G04 Layer_Color=8421504*
%FSLAX25Y25*%
%MOIN*%
G70*
G01*
G75*
%ADD11R,0.05118X0.01181*%
%ADD12R,0.08661X0.07087*%
%ADD13R,0.03347X0.03740*%
%ADD14R,0.03740X0.03347*%
%ADD15R,0.03740X0.03780*%
%ADD16O,0.02165X0.06890*%
%ADD17R,0.12205X0.09449*%
%ADD18R,0.06102X0.11024*%
%ADD19R,0.09252X0.13386*%
%ADD20R,0.03937X0.05512*%
%ADD21R,0.03150X0.03543*%
%ADD22R,0.08465X0.08465*%
%ADD24C,0.01000*%
%ADD29C,0.00100*%
D11*
X74476Y-18701D02*
D03*
Y-16732D02*
D03*
Y-14764D02*
D03*
Y-12795D02*
D03*
Y4921D02*
D03*
Y2953D02*
D03*
Y984D02*
D03*
Y-984D02*
D03*
Y-2953D02*
D03*
Y-4921D02*
D03*
Y-6890D02*
D03*
Y6890D02*
D03*
Y8858D02*
D03*
Y10827D02*
D03*
Y12795D02*
D03*
Y14764D02*
D03*
Y16732D02*
D03*
Y18701D02*
D03*
Y-8858D02*
D03*
Y-10827D02*
D03*
D12*
X52232Y27165D02*
D03*
Y-27165D02*
D03*
D13*
X-25650Y30000D02*
D03*
X-19350D02*
D03*
Y23500D02*
D03*
X-25650D02*
D03*
D14*
X-19500Y10350D02*
D03*
Y16650D02*
D03*
X-15000Y-17650D02*
D03*
Y-11350D02*
D03*
D15*
X-26146Y16500D02*
D03*
X-31854D02*
D03*
X-26146Y10000D02*
D03*
X-31854D02*
D03*
X-43146Y-18000D02*
D03*
X-48854D02*
D03*
X-31146Y-26000D02*
D03*
X-36854D02*
D03*
D16*
X-36500Y1941D02*
D03*
X-31500D02*
D03*
X-26500Y1941D02*
D03*
X-21500D02*
D03*
Y-17941D02*
D03*
X-26500D02*
D03*
X-31500Y-17941D02*
D03*
X-36500Y-17941D02*
D03*
D17*
X-29000Y-8000D02*
D03*
D18*
X-75610Y-25500D02*
D03*
X-64390D02*
D03*
X-75610Y-13000D02*
D03*
X-64390Y-13000D02*
D03*
X-28390Y-35500D02*
D03*
X-39610Y-35500D02*
D03*
X-28390Y-48000D02*
D03*
X-39610Y-48000D02*
D03*
D19*
X-81910Y7500D02*
D03*
X-58091D02*
D03*
D20*
X-42142Y-72500D02*
D03*
X-34858D02*
D03*
D21*
X-35547Y-80500D02*
D03*
X-41453D02*
D03*
D22*
X-46000Y-8374D02*
D03*
Y7374D02*
D03*
D24*
X1006462Y-765188D02*
Y-772186D01*
Y-765188D02*
X1011127Y-772186D01*
Y-765188D02*
Y-772186D01*
X1017059Y-767521D02*
Y-772186D01*
Y-768520D02*
X1016393Y-767854D01*
X1015726Y-767521D01*
X1014726D01*
X1014060Y-767854D01*
X1013393Y-768520D01*
X1013060Y-769520D01*
Y-770187D01*
X1013393Y-771186D01*
X1014060Y-771853D01*
X1014726Y-772186D01*
X1015726D01*
X1016393Y-771853D01*
X1017059Y-771186D01*
X1018925Y-767521D02*
Y-772186D01*
Y-768854D02*
X1019925Y-767854D01*
X1020592Y-767521D01*
X1021592D01*
X1022258Y-767854D01*
X1022591Y-768854D01*
Y-772186D01*
X1028424Y-768520D02*
X1027757Y-767854D01*
X1027090Y-767521D01*
X1026091D01*
X1025424Y-767854D01*
X1024758Y-768520D01*
X1024424Y-769520D01*
Y-770187D01*
X1024758Y-771186D01*
X1025424Y-771853D01*
X1026091Y-772186D01*
X1027090D01*
X1027757Y-771853D01*
X1028424Y-771186D01*
X1030256Y-767521D02*
X1032256Y-772186D01*
X1034256Y-767521D02*
X1032256Y-772186D01*
X1031590Y-773519D01*
X1030923Y-774186D01*
X1030256Y-774519D01*
X1029923D01*
X1040921Y-765188D02*
Y-772186D01*
Y-765188D02*
X1043920D01*
X1044920Y-765521D01*
X1045253Y-765854D01*
X1045586Y-766521D01*
Y-767187D01*
X1045253Y-767854D01*
X1044920Y-768187D01*
X1043920Y-768520D01*
X1040921D02*
X1043920D01*
X1044920Y-768854D01*
X1045253Y-769187D01*
X1045586Y-769853D01*
Y-770853D01*
X1045253Y-771520D01*
X1044920Y-771853D01*
X1043920Y-772186D01*
X1040921D01*
X1047153Y-767521D02*
Y-770853D01*
X1047486Y-771853D01*
X1048153Y-772186D01*
X1049152D01*
X1049819Y-771853D01*
X1050819Y-770853D01*
Y-767521D02*
Y-772186D01*
X1053985Y-765188D02*
X1054318Y-765521D01*
X1054651Y-765188D01*
X1054318Y-764854D01*
X1053985Y-765188D01*
X1054318Y-767521D02*
Y-773186D01*
X1053985Y-774186D01*
X1053318Y-774519D01*
X1052652D01*
X1057617Y-767521D02*
X1056951Y-767854D01*
X1056284Y-768520D01*
X1055951Y-769520D01*
Y-770187D01*
X1056284Y-771186D01*
X1056951Y-771853D01*
X1057617Y-772186D01*
X1058617D01*
X1059284Y-771853D01*
X1059950Y-771186D01*
X1060283Y-770187D01*
Y-769520D01*
X1059950Y-768520D01*
X1059284Y-767854D01*
X1058617Y-767521D01*
X1057617D01*
X1061816Y-765188D02*
Y-772186D01*
X1067282Y-765188D02*
Y-772186D01*
Y-768520D02*
X1066615Y-767854D01*
X1065949Y-767521D01*
X1064949D01*
X1064282Y-767854D01*
X1063616Y-768520D01*
X1063283Y-769520D01*
Y-770187D01*
X1063616Y-771186D01*
X1064282Y-771853D01*
X1064949Y-772186D01*
X1065949D01*
X1066615Y-771853D01*
X1067282Y-771186D01*
X1011460Y-789354D02*
X1011127Y-788688D01*
X1010461Y-788021D01*
X1009794Y-787688D01*
X1008461D01*
X1007794Y-788021D01*
X1007128Y-788688D01*
X1006795Y-789354D01*
X1006462Y-790354D01*
Y-792020D01*
X1006795Y-793020D01*
X1007128Y-793686D01*
X1007794Y-794353D01*
X1008461Y-794686D01*
X1009794D01*
X1010461Y-794353D01*
X1011127Y-793686D01*
X1011460Y-793020D01*
X1013427Y-792020D02*
X1017426D01*
Y-791354D01*
X1017093Y-790687D01*
X1016759Y-790354D01*
X1016093Y-790021D01*
X1015093D01*
X1014427Y-790354D01*
X1013760Y-791020D01*
X1013427Y-792020D01*
Y-792687D01*
X1013760Y-793686D01*
X1014427Y-794353D01*
X1015093Y-794686D01*
X1016093D01*
X1016759Y-794353D01*
X1017426Y-793686D01*
X1022925Y-787688D02*
Y-794686D01*
Y-791020D02*
X1022258Y-790354D01*
X1021592Y-790021D01*
X1020592D01*
X1019925Y-790354D01*
X1019259Y-791020D01*
X1018925Y-792020D01*
Y-792687D01*
X1019259Y-793686D01*
X1019925Y-794353D01*
X1020592Y-794686D01*
X1021592D01*
X1022258Y-794353D01*
X1022925Y-793686D01*
X1024791Y-790021D02*
Y-794686D01*
Y-792020D02*
X1025124Y-791020D01*
X1025791Y-790354D01*
X1026457Y-790021D01*
X1027457D01*
X1028757Y-787688D02*
X1029090Y-788021D01*
X1029423Y-787688D01*
X1029090Y-787355D01*
X1028757Y-787688D01*
X1029090Y-790021D02*
Y-794686D01*
X1034655Y-791020D02*
X1033989Y-790354D01*
X1033322Y-790021D01*
X1032323D01*
X1031656Y-790354D01*
X1030990Y-791020D01*
X1030656Y-792020D01*
Y-792687D01*
X1030990Y-793686D01*
X1031656Y-794353D01*
X1032323Y-794686D01*
X1033322D01*
X1033989Y-794353D01*
X1034655Y-793686D01*
X1046653Y-789354D02*
X1046320Y-788688D01*
X1045653Y-788021D01*
X1044987Y-787688D01*
X1043653D01*
X1042987Y-788021D01*
X1042321Y-788688D01*
X1041987Y-789354D01*
X1041654Y-790354D01*
Y-792020D01*
X1041987Y-793020D01*
X1042321Y-793686D01*
X1042987Y-794353D01*
X1043653Y-794686D01*
X1044987D01*
X1045653Y-794353D01*
X1046320Y-793686D01*
X1046653Y-793020D01*
Y-792020D01*
X1044987D02*
X1046653D01*
X1049919Y-790021D02*
X1049252Y-790354D01*
X1048586Y-791020D01*
X1048252Y-792020D01*
Y-792687D01*
X1048586Y-793686D01*
X1049252Y-794353D01*
X1049919Y-794686D01*
X1050919D01*
X1051585Y-794353D01*
X1052252Y-793686D01*
X1052585Y-792687D01*
Y-792020D01*
X1052252Y-791020D01*
X1051585Y-790354D01*
X1050919Y-790021D01*
X1049919D01*
X1058117Y-787688D02*
Y-794686D01*
Y-791020D02*
X1057451Y-790354D01*
X1056784Y-790021D01*
X1055784D01*
X1055118Y-790354D01*
X1054451Y-791020D01*
X1054118Y-792020D01*
Y-792687D01*
X1054451Y-793686D01*
X1055118Y-794353D01*
X1055784Y-794686D01*
X1056784D01*
X1057451Y-794353D01*
X1058117Y-793686D01*
X1060650Y-787688D02*
X1060983Y-788021D01*
X1061316Y-787688D01*
X1060983Y-787355D01*
X1060650Y-787688D01*
X1060983Y-790021D02*
Y-794686D01*
X1062549Y-790021D02*
Y-794686D01*
Y-791354D02*
X1063549Y-790354D01*
X1064216Y-790021D01*
X1065216D01*
X1065882Y-790354D01*
X1066215Y-791354D01*
Y-794686D01*
X952999Y-806358D02*
X952428Y-805787D01*
X951571Y-805501D01*
X950428D01*
X949571Y-805787D01*
X949000Y-806358D01*
Y-806930D01*
X949286Y-807501D01*
X949571Y-807786D01*
X950143Y-808072D01*
X951857Y-808644D01*
X952428Y-808929D01*
X952713Y-809215D01*
X952999Y-809786D01*
Y-810643D01*
X952428Y-811214D01*
X951571Y-811500D01*
X950428D01*
X949571Y-811214D01*
X949000Y-810643D01*
X954342Y-805501D02*
Y-811500D01*
X958341Y-805501D02*
Y-811500D01*
X954342Y-808358D02*
X958341D01*
X963711Y-805501D02*
X959998D01*
Y-811500D01*
X963711D01*
X959998Y-808358D02*
X962283D01*
X968424Y-805501D02*
X964711D01*
Y-811500D01*
X968424D01*
X964711Y-808358D02*
X966996D01*
X971424Y-805501D02*
Y-811500D01*
X969424Y-805501D02*
X973423D01*
X982564Y-807501D02*
X982279Y-808358D01*
X981707Y-808929D01*
X980850Y-809215D01*
X980565D01*
X979708Y-808929D01*
X979136Y-808358D01*
X978851Y-807501D01*
Y-807215D01*
X979136Y-806358D01*
X979708Y-805787D01*
X980565Y-805501D01*
X980850D01*
X981707Y-805787D01*
X982279Y-806358D01*
X982564Y-807501D01*
Y-808929D01*
X982279Y-810357D01*
X981707Y-811214D01*
X980850Y-811500D01*
X980279D01*
X979422Y-811214D01*
X979136Y-810643D01*
X990620Y-805501D02*
X990048Y-805787D01*
X989477Y-806358D01*
X989191Y-806930D01*
X988906Y-807786D01*
Y-809215D01*
X989191Y-810072D01*
X989477Y-810643D01*
X990048Y-811214D01*
X990620Y-811500D01*
X991762D01*
X992334Y-811214D01*
X992905Y-810643D01*
X993191Y-810072D01*
X993476Y-809215D01*
Y-807786D01*
X993191Y-806930D01*
X992905Y-806358D01*
X992334Y-805787D01*
X991762Y-805501D01*
X990620D01*
X994876D02*
Y-811500D01*
Y-805501D02*
X998589D01*
X994876Y-808358D02*
X997161D01*
X1007702Y-807501D02*
X1007416Y-808358D01*
X1006845Y-808929D01*
X1005988Y-809215D01*
X1005702D01*
X1004845Y-808929D01*
X1004274Y-808358D01*
X1003988Y-807501D01*
Y-807215D01*
X1004274Y-806358D01*
X1004845Y-805787D01*
X1005702Y-805501D01*
X1005988D01*
X1006845Y-805787D01*
X1007416Y-806358D01*
X1007702Y-807501D01*
Y-808929D01*
X1007416Y-810357D01*
X1006845Y-811214D01*
X1005988Y-811500D01*
X1005416D01*
X1004560Y-811214D01*
X1004274Y-810643D01*
X1046461Y-728854D02*
X1049461D01*
X1050461Y-728520D01*
X1050794Y-728187D01*
X1051127Y-727521D01*
Y-726521D01*
X1050794Y-725854D01*
X1050461Y-725521D01*
X1049461Y-725188D01*
X1046461D01*
Y-732186D01*
X1056693Y-727521D02*
Y-732186D01*
Y-728520D02*
X1056026Y-727854D01*
X1055360Y-727521D01*
X1054360D01*
X1053693Y-727854D01*
X1053027Y-728520D01*
X1052693Y-729520D01*
Y-730187D01*
X1053027Y-731186D01*
X1053693Y-731853D01*
X1054360Y-732186D01*
X1055360D01*
X1056026Y-731853D01*
X1056693Y-731186D01*
X1062225Y-728520D02*
X1061891Y-727854D01*
X1060892Y-727521D01*
X1059892D01*
X1058892Y-727854D01*
X1058559Y-728520D01*
X1058892Y-729187D01*
X1059559Y-729520D01*
X1061225Y-729853D01*
X1061891Y-730187D01*
X1062225Y-730853D01*
Y-731186D01*
X1061891Y-731853D01*
X1060892Y-732186D01*
X1059892D01*
X1058892Y-731853D01*
X1058559Y-731186D01*
X1064691Y-725188D02*
Y-730853D01*
X1065024Y-731853D01*
X1065691Y-732186D01*
X1066357D01*
X1063691Y-727521D02*
X1066024D01*
X1067357Y-729520D02*
X1071356D01*
Y-728854D01*
X1071023Y-728187D01*
X1070690Y-727854D01*
X1070023Y-727521D01*
X1069023D01*
X1068357Y-727854D01*
X1067690Y-728520D01*
X1067357Y-729520D01*
Y-730187D01*
X1067690Y-731186D01*
X1068357Y-731853D01*
X1069023Y-732186D01*
X1070023D01*
X1070690Y-731853D01*
X1071356Y-731186D01*
X1078355Y-725188D02*
Y-732186D01*
Y-725188D02*
X1081021Y-732186D01*
X1083687Y-725188D02*
X1081021Y-732186D01*
X1083687Y-725188D02*
Y-732186D01*
X1089686Y-727521D02*
Y-732186D01*
Y-728520D02*
X1089019Y-727854D01*
X1088352Y-727521D01*
X1087353D01*
X1086686Y-727854D01*
X1086020Y-728520D01*
X1085686Y-729520D01*
Y-730187D01*
X1086020Y-731186D01*
X1086686Y-731853D01*
X1087353Y-732186D01*
X1088352D01*
X1089019Y-731853D01*
X1089686Y-731186D01*
X1095218Y-728520D02*
X1094884Y-727854D01*
X1093885Y-727521D01*
X1092885D01*
X1091885Y-727854D01*
X1091552Y-728520D01*
X1091885Y-729187D01*
X1092552Y-729520D01*
X1094218Y-729853D01*
X1094884Y-730187D01*
X1095218Y-730853D01*
Y-731186D01*
X1094884Y-731853D01*
X1093885Y-732186D01*
X1092885D01*
X1091885Y-731853D01*
X1091552Y-731186D01*
X1096684Y-725188D02*
Y-732186D01*
X1100017Y-727521D02*
X1096684Y-730853D01*
X1098017Y-729520D02*
X1100350Y-732186D01*
X1109281Y-725188D02*
Y-732186D01*
X1106948Y-725188D02*
X1111614D01*
X1114114Y-727521D02*
X1113447Y-727854D01*
X1112781Y-728520D01*
X1112447Y-729520D01*
Y-730187D01*
X1112781Y-731186D01*
X1113447Y-731853D01*
X1114114Y-732186D01*
X1115114D01*
X1115780Y-731853D01*
X1116446Y-731186D01*
X1116780Y-730187D01*
Y-729520D01*
X1116446Y-728520D01*
X1115780Y-727854D01*
X1115114Y-727521D01*
X1114114D01*
X1118313D02*
Y-734519D01*
Y-728520D02*
X1118979Y-727854D01*
X1119646Y-727521D01*
X1120646D01*
X1121312Y-727854D01*
X1121979Y-728520D01*
X1122312Y-729520D01*
Y-730187D01*
X1121979Y-731186D01*
X1121312Y-731853D01*
X1120646Y-732186D01*
X1119646D01*
X1118979Y-731853D01*
X1118313Y-731186D01*
X1362662Y-755000D02*
G03*
X1362662Y-755000I-11662J0D01*
G01*
X49213Y-94496D02*
G03*
X53150Y-90559I0J3937D01*
G01*
X53150Y-80500D02*
G03*
X-53150Y-80500I-53150J80492D01*
G01*
X-53150Y-90559D02*
G03*
X-49213Y-94496I3937J0D01*
G01*
X1126028Y-719000D02*
Y-701814D01*
X944000Y-719000D02*
X1228000D01*
X943038Y-701814D02*
X1228039D01*
X1024039Y-816814D02*
Y-799314D01*
X1227759Y-661814D02*
X1617759D01*
Y-816814D02*
Y-661814D01*
X1227759Y-816814D02*
X1617759D01*
X1227759Y-736814D02*
X1617759D01*
X1126028Y-816814D02*
Y-756814D01*
X943038Y-661814D02*
X1228039D01*
Y-816814D02*
Y-661814D01*
X943038Y-816814D02*
X1228039D01*
X943038D02*
Y-661814D01*
Y-781814D02*
X1126000D01*
X943038Y-799314D02*
X1126000D01*
X943038Y-736814D02*
X1228039D01*
X943038Y-679314D02*
X1228039D01*
X943038Y-756814D02*
X1228039D01*
X1204635Y775037D02*
Y795037D01*
X385135Y775037D02*
Y795037D01*
Y775037D02*
X1204635D01*
X429635Y755037D02*
Y775037D01*
X501271Y755000D02*
Y775000D01*
X805635Y755037D02*
Y775037D01*
X885635Y755037D02*
Y775037D01*
X1045725Y754909D02*
Y774909D01*
X385135Y755037D02*
Y775037D01*
Y755037D02*
X1204635D01*
X1204635Y755037D02*
Y775037D01*
X385135D02*
X1204635D01*
X429635Y735037D02*
Y755037D01*
X501271Y735000D02*
Y755000D01*
X805635Y735037D02*
Y755037D01*
X885635Y735037D02*
Y755037D01*
X1045725Y734909D02*
Y754909D01*
X385135Y735037D02*
Y755037D01*
Y735037D02*
X1204635D01*
X1204635Y735037D02*
Y755037D01*
X385135D02*
X1204635D01*
X1204635Y715037D02*
Y735037D01*
X385135D02*
X1204635D01*
X1204635Y695037D02*
Y715037D01*
Y775037D02*
X1619635D01*
X1204635Y695037D02*
X1619635D01*
X-880365Y-819136D02*
Y795037D01*
Y-819136D02*
X1619635D01*
Y795037D01*
X-880365D02*
X1619635D01*
Y695037D02*
Y775037D01*
Y795037D01*
X1129635D02*
X1619635D01*
X-49187Y-94496D02*
X49213D01*
X53150Y-90559D02*
Y-80500D01*
X-53150Y-90559D02*
Y-80500D01*
X1169166Y-802501D02*
X1168167Y-802835D01*
X1167833Y-803501D01*
Y-804168D01*
X1168167Y-804834D01*
X1168833Y-805168D01*
X1170166Y-805501D01*
X1171166Y-805834D01*
X1171832Y-806501D01*
X1172166Y-807167D01*
Y-808167D01*
X1171832Y-808834D01*
X1171499Y-809167D01*
X1170499Y-809500D01*
X1169166D01*
X1168167Y-809167D01*
X1167833Y-808834D01*
X1167500Y-808167D01*
Y-807167D01*
X1167833Y-806501D01*
X1168500Y-805834D01*
X1169500Y-805501D01*
X1170833Y-805168D01*
X1171499Y-804834D01*
X1171832Y-804168D01*
Y-803501D01*
X1171499Y-802835D01*
X1170499Y-802501D01*
X1169166D01*
X1177731D02*
X1174399D01*
X1174065Y-805501D01*
X1174399Y-805168D01*
X1175398Y-804834D01*
X1176398D01*
X1177398Y-805168D01*
X1178064Y-805834D01*
X1178398Y-806834D01*
Y-807500D01*
X1178064Y-808500D01*
X1177398Y-809167D01*
X1176398Y-809500D01*
X1175398D01*
X1174399Y-809167D01*
X1174065Y-808834D01*
X1173732Y-808167D01*
X1181630Y-802501D02*
X1180630Y-802835D01*
X1180297Y-803501D01*
Y-804168D01*
X1180630Y-804834D01*
X1181297Y-805168D01*
X1182630Y-805501D01*
X1183630Y-805834D01*
X1184296Y-806501D01*
X1184630Y-807167D01*
Y-808167D01*
X1184296Y-808834D01*
X1183963Y-809167D01*
X1182963Y-809500D01*
X1181630D01*
X1180630Y-809167D01*
X1180297Y-808834D01*
X1179964Y-808167D01*
Y-807167D01*
X1180297Y-806501D01*
X1180964Y-805834D01*
X1181964Y-805501D01*
X1183297Y-805168D01*
X1183963Y-804834D01*
X1184296Y-804168D01*
Y-803501D01*
X1183963Y-802835D01*
X1182963Y-802501D01*
X1181630D01*
X1190195D02*
X1186862D01*
X1186529Y-805501D01*
X1186862Y-805168D01*
X1187862Y-804834D01*
X1188862D01*
X1189862Y-805168D01*
X1190528Y-805834D01*
X1190862Y-806834D01*
Y-807500D01*
X1190528Y-808500D01*
X1189862Y-809167D01*
X1188862Y-809500D01*
X1187862D01*
X1186862Y-809167D01*
X1186529Y-808834D01*
X1186196Y-808167D01*
X1129000Y-790667D02*
X1131999D01*
X1132999Y-790334D01*
X1133332Y-790001D01*
X1133666Y-789334D01*
Y-788335D01*
X1133332Y-787668D01*
X1132999Y-787335D01*
X1131999Y-787002D01*
X1129000D01*
Y-794000D01*
X1135232Y-789334D02*
Y-794000D01*
Y-791334D02*
X1135565Y-790334D01*
X1136232Y-789668D01*
X1136898Y-789334D01*
X1137898D01*
X1140198D02*
X1139531Y-789668D01*
X1138865Y-790334D01*
X1138531Y-791334D01*
Y-792000D01*
X1138865Y-793000D01*
X1139531Y-793667D01*
X1140198Y-794000D01*
X1141197D01*
X1141864Y-793667D01*
X1142530Y-793000D01*
X1142864Y-792000D01*
Y-791334D01*
X1142530Y-790334D01*
X1141864Y-789668D01*
X1141197Y-789334D01*
X1140198D01*
X1145730Y-787002D02*
X1146063Y-787335D01*
X1146396Y-787002D01*
X1146063Y-786668D01*
X1145730Y-787002D01*
X1146063Y-789334D02*
Y-795000D01*
X1145730Y-796000D01*
X1145063Y-796333D01*
X1144397D01*
X1147696Y-791334D02*
X1151695D01*
Y-790667D01*
X1151362Y-790001D01*
X1151029Y-789668D01*
X1150362Y-789334D01*
X1149362D01*
X1148696Y-789668D01*
X1148029Y-790334D01*
X1147696Y-791334D01*
Y-792000D01*
X1148029Y-793000D01*
X1148696Y-793667D01*
X1149362Y-794000D01*
X1150362D01*
X1151029Y-793667D01*
X1151695Y-793000D01*
X1157194Y-790334D02*
X1156527Y-789668D01*
X1155861Y-789334D01*
X1154861D01*
X1154195Y-789668D01*
X1153528Y-790334D01*
X1153195Y-791334D01*
Y-792000D01*
X1153528Y-793000D01*
X1154195Y-793667D01*
X1154861Y-794000D01*
X1155861D01*
X1156527Y-793667D01*
X1157194Y-793000D01*
X1159693Y-787002D02*
Y-792667D01*
X1160027Y-793667D01*
X1160693Y-794000D01*
X1161360D01*
X1158694Y-789334D02*
X1161026D01*
X1172524Y-788001D02*
X1171857Y-787335D01*
X1170858Y-787002D01*
X1169525D01*
X1168525Y-787335D01*
X1167858Y-788001D01*
Y-788668D01*
X1168192Y-789334D01*
X1168525Y-789668D01*
X1169191Y-790001D01*
X1171191Y-790667D01*
X1171857Y-791001D01*
X1172191Y-791334D01*
X1172524Y-792000D01*
Y-793000D01*
X1171857Y-793667D01*
X1170858Y-794000D01*
X1169525D01*
X1168525Y-793667D01*
X1167858Y-793000D01*
X1174090Y-787002D02*
X1176756Y-794000D01*
X1179422Y-787002D02*
X1176756Y-794000D01*
X1180322Y-787002D02*
Y-794000D01*
Y-787002D02*
X1184988Y-794000D01*
Y-787002D02*
Y-794000D01*
X1192420Y-787002D02*
X1195086Y-794000D01*
X1197752Y-787002D02*
X1195086Y-794000D01*
X1198652Y-791334D02*
X1202651D01*
Y-790667D01*
X1202318Y-790001D01*
X1201984Y-789668D01*
X1201318Y-789334D01*
X1200318D01*
X1199652Y-789668D01*
X1198985Y-790334D01*
X1198652Y-791334D01*
Y-792000D01*
X1198985Y-793000D01*
X1199652Y-793667D01*
X1200318Y-794000D01*
X1201318D01*
X1201984Y-793667D01*
X1202651Y-793000D01*
X1204151Y-789334D02*
Y-794000D01*
Y-791334D02*
X1204484Y-790334D01*
X1205150Y-789668D01*
X1205817Y-789334D01*
X1206817D01*
X1211116Y-790334D02*
X1210783Y-789668D01*
X1209783Y-789334D01*
X1208783D01*
X1207783Y-789668D01*
X1207450Y-790334D01*
X1207783Y-791001D01*
X1208450Y-791334D01*
X1210116Y-791667D01*
X1210783Y-792000D01*
X1211116Y-792667D01*
Y-793000D01*
X1210783Y-793667D01*
X1209783Y-794000D01*
X1208783D01*
X1207783Y-793667D01*
X1207450Y-793000D01*
X1213249Y-787002D02*
X1213582Y-787335D01*
X1213915Y-787002D01*
X1213582Y-786668D01*
X1213249Y-787002D01*
X1213582Y-789334D02*
Y-794000D01*
X1216815Y-789334D02*
X1216148Y-789668D01*
X1215481Y-790334D01*
X1215148Y-791334D01*
Y-792000D01*
X1215481Y-793000D01*
X1216148Y-793667D01*
X1216815Y-794000D01*
X1217814D01*
X1218481Y-793667D01*
X1219147Y-793000D01*
X1219481Y-792000D01*
Y-791334D01*
X1219147Y-790334D01*
X1218481Y-789668D01*
X1217814Y-789334D01*
X1216815D01*
X1221014D02*
Y-794000D01*
Y-790667D02*
X1222013Y-789668D01*
X1222680Y-789334D01*
X1223680D01*
X1224346Y-789668D01*
X1224679Y-790667D01*
Y-794000D01*
X1159332Y-714000D02*
X1156666Y-707001D01*
X1154000Y-714000D01*
X1155000Y-711667D02*
X1158332D01*
X1129000Y-707001D02*
Y-714000D01*
Y-707001D02*
X1131999D01*
X1132999Y-707335D01*
X1133332Y-707668D01*
X1133666Y-708335D01*
Y-709001D01*
X1133332Y-709668D01*
X1132999Y-710001D01*
X1131999Y-710334D01*
X1129000D01*
X1131333D02*
X1133666Y-714000D01*
X1139564Y-707001D02*
X1135232D01*
Y-714000D01*
X1139564D01*
X1135232Y-710334D02*
X1137898D01*
X1140731Y-707001D02*
X1143397Y-714000D01*
X1146063Y-707001D02*
X1143397Y-714000D01*
X1147296Y-713334D02*
X1146963Y-713667D01*
X1147296Y-714000D01*
X1147629Y-713667D01*
X1147296Y-713334D01*
X996500Y-707001D02*
Y-714000D01*
X1001166Y-707001D02*
X996500Y-711667D01*
X998166Y-710001D02*
X1001166Y-714000D01*
X1002732Y-707001D02*
Y-714000D01*
Y-707001D02*
X1005731D01*
X1006731Y-707335D01*
X1007064Y-707668D01*
X1007398Y-708335D01*
Y-709001D01*
X1007064Y-709668D01*
X1006731Y-710001D01*
X1005731Y-710334D01*
X1002732D01*
X1005065D02*
X1007398Y-714000D01*
X1008964Y-708335D02*
X1009630Y-708001D01*
X1010630Y-707001D01*
Y-714000D01*
X1014763Y-707001D02*
X1018429D01*
X1016429Y-709668D01*
X1017429D01*
X1018095Y-710001D01*
X1018429Y-710334D01*
X1018762Y-711334D01*
Y-712000D01*
X1018429Y-713000D01*
X1017762Y-713667D01*
X1016762Y-714000D01*
X1015763D01*
X1014763Y-713667D01*
X1014429Y-713334D01*
X1014096Y-712667D01*
X1024661Y-709334D02*
X1024327Y-710334D01*
X1023661Y-711001D01*
X1022661Y-711334D01*
X1022328D01*
X1021328Y-711001D01*
X1020662Y-710334D01*
X1020328Y-709334D01*
Y-709001D01*
X1020662Y-708001D01*
X1021328Y-707335D01*
X1022328Y-707001D01*
X1022661D01*
X1023661Y-707335D01*
X1024327Y-708001D01*
X1024661Y-709334D01*
Y-711001D01*
X1024327Y-712667D01*
X1023661Y-713667D01*
X1022661Y-714000D01*
X1021994D01*
X1020995Y-713667D01*
X1020662Y-713000D01*
X1027227Y-707001D02*
X1030893D01*
X1028893Y-709668D01*
X1029893D01*
X1030559Y-710001D01*
X1030893Y-710334D01*
X1031226Y-711334D01*
Y-712000D01*
X1030893Y-713000D01*
X1030226Y-713667D01*
X1029226Y-714000D01*
X1028226D01*
X1027227Y-713667D01*
X1026894Y-713334D01*
X1026560Y-712667D01*
X1033459Y-707001D02*
X1037125D01*
X1035125Y-709668D01*
X1036125D01*
X1036791Y-710001D01*
X1037125Y-710334D01*
X1037458Y-711334D01*
Y-712000D01*
X1037125Y-713000D01*
X1036458Y-713667D01*
X1035458Y-714000D01*
X1034459D01*
X1033459Y-713667D01*
X1033125Y-713334D01*
X1032792Y-712667D01*
X1039024Y-710667D02*
X1042024D01*
X1043023Y-710334D01*
X1043357Y-710001D01*
X1043690Y-709334D01*
Y-708335D01*
X1043357Y-707668D01*
X1043023Y-707335D01*
X1042024Y-707001D01*
X1039024D01*
Y-714000D01*
X1050255Y-708668D02*
X1049922Y-708001D01*
X1049255Y-707335D01*
X1048589Y-707001D01*
X1047256D01*
X1046589Y-707335D01*
X1045923Y-708001D01*
X1045590Y-708668D01*
X1045256Y-709668D01*
Y-711334D01*
X1045590Y-712334D01*
X1045923Y-713000D01*
X1046589Y-713667D01*
X1047256Y-714000D01*
X1048589D01*
X1049255Y-713667D01*
X1049922Y-713000D01*
X1050255Y-712334D01*
X1052221Y-707001D02*
Y-714000D01*
Y-707001D02*
X1055221D01*
X1056221Y-707335D01*
X1056554Y-707668D01*
X1056887Y-708335D01*
Y-709001D01*
X1056554Y-709668D01*
X1056221Y-710001D01*
X1055221Y-710334D01*
X1052221D02*
X1055221D01*
X1056221Y-710667D01*
X1056554Y-711001D01*
X1056887Y-711667D01*
Y-712667D01*
X1056554Y-713334D01*
X1056221Y-713667D01*
X1055221Y-714000D01*
X1052221D01*
X997999Y-688668D02*
X997666Y-688001D01*
X996999Y-687335D01*
X996333Y-687002D01*
X995000D01*
X994333Y-687335D01*
X993666Y-688001D01*
X993333Y-688668D01*
X993000Y-689668D01*
Y-691334D01*
X993333Y-692334D01*
X993666Y-693000D01*
X994333Y-693667D01*
X995000Y-694000D01*
X996333D01*
X996999Y-693667D01*
X997666Y-693000D01*
X997999Y-692334D01*
Y-691334D01*
X996333D02*
X997999D01*
X999599D02*
X1003598D01*
Y-690667D01*
X1003265Y-690001D01*
X1002931Y-689668D01*
X1002265Y-689334D01*
X1001265D01*
X1000598Y-689668D01*
X999932Y-690334D01*
X999599Y-691334D01*
Y-692000D01*
X999932Y-693000D01*
X1000598Y-693667D01*
X1001265Y-694000D01*
X1002265D01*
X1002931Y-693667D01*
X1003598Y-693000D01*
X1005097Y-689334D02*
Y-694000D01*
Y-690667D02*
X1006097Y-689668D01*
X1006764Y-689334D01*
X1007763D01*
X1008430Y-689668D01*
X1008763Y-690667D01*
Y-694000D01*
X1011263Y-687002D02*
X1014929D01*
X1012929Y-689668D01*
X1013929D01*
X1014595Y-690001D01*
X1014929Y-690334D01*
X1015262Y-691334D01*
Y-692000D01*
X1014929Y-693000D01*
X1014262Y-693667D01*
X1013262Y-694000D01*
X1012263D01*
X1011263Y-693667D01*
X1010929Y-693333D01*
X1010596Y-692667D01*
X1022327Y-687002D02*
Y-694000D01*
X1026326D01*
X1031092Y-687002D02*
X1027759D01*
X1027426Y-690001D01*
X1027759Y-689668D01*
X1028759Y-689334D01*
X1029759D01*
X1030759Y-689668D01*
X1031425Y-690334D01*
X1031758Y-691334D01*
Y-692000D01*
X1031425Y-693000D01*
X1030759Y-693667D01*
X1029759Y-694000D01*
X1028759D01*
X1027759Y-693667D01*
X1027426Y-693333D01*
X1027093Y-692667D01*
X1033991Y-687002D02*
X1037657D01*
X1035658Y-689668D01*
X1036657D01*
X1037324Y-690001D01*
X1037657Y-690334D01*
X1037990Y-691334D01*
Y-692000D01*
X1037657Y-693000D01*
X1036991Y-693667D01*
X1035991Y-694000D01*
X1034991D01*
X1033991Y-693667D01*
X1033658Y-693333D01*
X1033325Y-692667D01*
X1039557Y-687002D02*
Y-694000D01*
X1044222Y-687002D02*
X1039557Y-691667D01*
X1041223Y-690001D02*
X1044222Y-694000D01*
X1055620Y-687002D02*
X1051287D01*
Y-694000D01*
X1055620D01*
X1051287Y-690334D02*
X1053954D01*
X1056786Y-689334D02*
Y-694000D01*
Y-690667D02*
X1057786Y-689668D01*
X1058453Y-689334D01*
X1059452D01*
X1060119Y-689668D01*
X1060452Y-690667D01*
Y-694000D01*
X1066284Y-687002D02*
Y-694000D01*
Y-690334D02*
X1065618Y-689668D01*
X1064951Y-689334D01*
X1063951D01*
X1063285Y-689668D01*
X1062618Y-690334D01*
X1062285Y-691334D01*
Y-692000D01*
X1062618Y-693000D01*
X1063285Y-693667D01*
X1063951Y-694000D01*
X1064951D01*
X1065618Y-693667D01*
X1066284Y-693000D01*
X1077982Y-687002D02*
X1073649D01*
Y-694000D01*
X1077982D01*
X1073649Y-690334D02*
X1076315D01*
X1081814Y-687002D02*
X1081148D01*
X1080481Y-687335D01*
X1080148Y-688335D01*
Y-694000D01*
X1079148Y-689334D02*
X1081481D01*
X1085480Y-687002D02*
X1084814D01*
X1084147Y-687335D01*
X1083814Y-688335D01*
Y-694000D01*
X1082814Y-689334D02*
X1085147D01*
X1086480Y-691334D02*
X1090479D01*
Y-690667D01*
X1090146Y-690001D01*
X1089813Y-689668D01*
X1089146Y-689334D01*
X1088146D01*
X1087480Y-689668D01*
X1086813Y-690334D01*
X1086480Y-691334D01*
Y-692000D01*
X1086813Y-693000D01*
X1087480Y-693667D01*
X1088146Y-694000D01*
X1089146D01*
X1089813Y-693667D01*
X1090479Y-693000D01*
X1095978Y-690334D02*
X1095311Y-689668D01*
X1094645Y-689334D01*
X1093645D01*
X1092979Y-689668D01*
X1092312Y-690334D01*
X1091979Y-691334D01*
Y-692000D01*
X1092312Y-693000D01*
X1092979Y-693667D01*
X1093645Y-694000D01*
X1094645D01*
X1095311Y-693667D01*
X1095978Y-693000D01*
X1098477Y-687002D02*
Y-692667D01*
X1098811Y-693667D01*
X1099477Y-694000D01*
X1100144D01*
X1097478Y-689334D02*
X1099810D01*
X1102810D02*
X1102143Y-689668D01*
X1101477Y-690334D01*
X1101143Y-691334D01*
Y-692000D01*
X1101477Y-693000D01*
X1102143Y-693667D01*
X1102810Y-694000D01*
X1103810D01*
X1104476Y-693667D01*
X1105143Y-693000D01*
X1105476Y-692000D01*
Y-691334D01*
X1105143Y-690334D01*
X1104476Y-689668D01*
X1103810Y-689334D01*
X1102810D01*
X1107009D02*
Y-694000D01*
Y-691334D02*
X1107342Y-690334D01*
X1108009Y-689668D01*
X1108675Y-689334D01*
X1109675D01*
X1115807Y-687002D02*
Y-694000D01*
Y-687002D02*
X1118806D01*
X1119806Y-687335D01*
X1120139Y-687668D01*
X1120473Y-688335D01*
Y-689001D01*
X1120139Y-689668D01*
X1119806Y-690001D01*
X1118806Y-690334D01*
X1115807D01*
X1118140D02*
X1120473Y-694000D01*
X1122039Y-691334D02*
X1126038D01*
Y-690667D01*
X1125705Y-690001D01*
X1125372Y-689668D01*
X1124705Y-689334D01*
X1123705D01*
X1123039Y-689668D01*
X1122372Y-690334D01*
X1122039Y-691334D01*
Y-692000D01*
X1122372Y-693000D01*
X1123039Y-693667D01*
X1123705Y-694000D01*
X1124705D01*
X1125372Y-693667D01*
X1126038Y-693000D01*
X1130204Y-687002D02*
X1129537D01*
X1128871Y-687335D01*
X1128538Y-688335D01*
Y-694000D01*
X1127538Y-689334D02*
X1129871D01*
X1131204Y-691334D02*
X1135203D01*
Y-690667D01*
X1134870Y-690001D01*
X1134536Y-689668D01*
X1133870Y-689334D01*
X1132870D01*
X1132203Y-689668D01*
X1131537Y-690334D01*
X1131204Y-691334D01*
Y-692000D01*
X1131537Y-693000D01*
X1132203Y-693667D01*
X1132870Y-694000D01*
X1133870D01*
X1134536Y-693667D01*
X1135203Y-693000D01*
X1136703Y-689334D02*
Y-694000D01*
Y-691334D02*
X1137036Y-690334D01*
X1137702Y-689668D01*
X1138369Y-689334D01*
X1139369D01*
X1140002Y-691334D02*
X1144001D01*
Y-690667D01*
X1143668Y-690001D01*
X1143334Y-689668D01*
X1142668Y-689334D01*
X1141668D01*
X1141002Y-689668D01*
X1140335Y-690334D01*
X1140002Y-691334D01*
Y-692000D01*
X1140335Y-693000D01*
X1141002Y-693667D01*
X1141668Y-694000D01*
X1142668D01*
X1143334Y-693667D01*
X1144001Y-693000D01*
X1145501Y-689334D02*
Y-694000D01*
Y-690667D02*
X1146500Y-689668D01*
X1147167Y-689334D01*
X1148167D01*
X1148833Y-689668D01*
X1149166Y-690667D01*
Y-694000D01*
X1154999Y-690334D02*
X1154332Y-689668D01*
X1153666Y-689334D01*
X1152666D01*
X1151999Y-689668D01*
X1151333Y-690334D01*
X1151000Y-691334D01*
Y-692000D01*
X1151333Y-693000D01*
X1151999Y-693667D01*
X1152666Y-694000D01*
X1153666D01*
X1154332Y-693667D01*
X1154999Y-693000D01*
X1156498Y-691334D02*
X1160497D01*
Y-690667D01*
X1160164Y-690001D01*
X1159831Y-689668D01*
X1159164Y-689334D01*
X1158165D01*
X1157498Y-689668D01*
X1156831Y-690334D01*
X1156498Y-691334D01*
Y-692000D01*
X1156831Y-693000D01*
X1157498Y-693667D01*
X1158165Y-694000D01*
X1159164D01*
X1159831Y-693667D01*
X1160497Y-693000D01*
X1167496Y-687002D02*
Y-694000D01*
Y-687002D02*
X1169829D01*
X1170829Y-687335D01*
X1171495Y-688001D01*
X1171828Y-688668D01*
X1172162Y-689668D01*
Y-691334D01*
X1171828Y-692334D01*
X1171495Y-693000D01*
X1170829Y-693667D01*
X1169829Y-694000D01*
X1167496D01*
X1173728Y-691334D02*
X1177727D01*
Y-690667D01*
X1177394Y-690001D01*
X1177061Y-689668D01*
X1176394Y-689334D01*
X1175394D01*
X1174728Y-689668D01*
X1174061Y-690334D01*
X1173728Y-691334D01*
Y-692000D01*
X1174061Y-693000D01*
X1174728Y-693667D01*
X1175394Y-694000D01*
X1176394D01*
X1177061Y-693667D01*
X1177727Y-693000D01*
X1182893Y-690334D02*
X1182559Y-689668D01*
X1181560Y-689334D01*
X1180560D01*
X1179560Y-689668D01*
X1179227Y-690334D01*
X1179560Y-691001D01*
X1180227Y-691334D01*
X1181893Y-691667D01*
X1182559Y-692000D01*
X1182893Y-692667D01*
Y-693000D01*
X1182559Y-693667D01*
X1181560Y-694000D01*
X1180560D01*
X1179560Y-693667D01*
X1179227Y-693000D01*
X1185026Y-687002D02*
X1185359Y-687335D01*
X1185692Y-687002D01*
X1185359Y-686668D01*
X1185026Y-687002D01*
X1185359Y-689334D02*
Y-694000D01*
X1190924Y-689334D02*
Y-694666D01*
X1190591Y-695666D01*
X1190258Y-696000D01*
X1189591Y-696333D01*
X1188591D01*
X1187925Y-696000D01*
X1190924Y-690334D02*
X1190258Y-689668D01*
X1189591Y-689334D01*
X1188591D01*
X1187925Y-689668D01*
X1187258Y-690334D01*
X1186925Y-691334D01*
Y-692000D01*
X1187258Y-693000D01*
X1187925Y-693667D01*
X1188591Y-694000D01*
X1189591D01*
X1190258Y-693667D01*
X1190924Y-693000D01*
X1192791Y-689334D02*
Y-694000D01*
Y-690667D02*
X1193790Y-689668D01*
X1194457Y-689334D01*
X1195457D01*
X1196123Y-689668D01*
X1196456Y-690667D01*
Y-694000D01*
X1411500Y-712002D02*
Y-719000D01*
X1416166Y-712002D02*
X1411500Y-716667D01*
X1413166Y-715001D02*
X1416166Y-719000D01*
X1417732Y-712002D02*
Y-719000D01*
X1419198Y-712002D02*
Y-719000D01*
Y-712002D02*
X1423864Y-719000D01*
Y-712002D02*
Y-719000D01*
X1427796Y-712002D02*
X1427130Y-712335D01*
X1426464Y-713001D01*
X1426130Y-713668D01*
X1425797Y-714668D01*
Y-716334D01*
X1426130Y-717334D01*
X1426464Y-718000D01*
X1427130Y-718667D01*
X1427796Y-719000D01*
X1429130D01*
X1429796Y-718667D01*
X1430463Y-718000D01*
X1430796Y-717334D01*
X1431129Y-716334D01*
Y-714668D01*
X1430796Y-713668D01*
X1430463Y-713001D01*
X1429796Y-712335D01*
X1429130Y-712002D01*
X1427796D01*
X1432762D02*
X1435428Y-719000D01*
X1438094Y-712002D02*
X1435428Y-719000D01*
X1444326D02*
X1441660Y-712002D01*
X1438994Y-719000D01*
X1439994Y-716667D02*
X1443326D01*
X1446292Y-718333D02*
X1445959Y-718667D01*
X1446292Y-719000D01*
X1446626Y-718667D01*
X1446292Y-718333D01*
X1414000Y-674502D02*
Y-681500D01*
X1418666Y-674502D02*
X1414000Y-679167D01*
X1415666Y-677501D02*
X1418666Y-681500D01*
X1420232Y-674502D02*
Y-681500D01*
X1421698Y-674502D02*
Y-681500D01*
Y-674502D02*
X1426364Y-681500D01*
Y-674502D02*
Y-681500D01*
X1430297Y-674502D02*
X1429630Y-674835D01*
X1428963Y-675501D01*
X1428630Y-676168D01*
X1428297Y-677168D01*
Y-678834D01*
X1428630Y-679834D01*
X1428963Y-680500D01*
X1429630Y-681167D01*
X1430297Y-681500D01*
X1431630D01*
X1432296Y-681167D01*
X1432963Y-680500D01*
X1433296Y-679834D01*
X1433629Y-678834D01*
Y-677168D01*
X1433296Y-676168D01*
X1432963Y-675501D01*
X1432296Y-674835D01*
X1431630Y-674502D01*
X1430297D01*
X1435262D02*
X1437928Y-681500D01*
X1440594Y-674502D02*
X1437928Y-681500D01*
X1446826D02*
X1444160Y-674502D01*
X1441494Y-681500D01*
X1442494Y-679167D02*
X1445827D01*
X1448792Y-680833D02*
X1448459Y-681167D01*
X1448792Y-681500D01*
X1449126Y-681167D01*
X1448792Y-680833D01*
X1370759Y-750316D02*
Y-760314D01*
X1377424Y-750316D02*
X1370759Y-756981D01*
X1373139Y-754601D02*
X1377424Y-760314D01*
X1379661Y-750316D02*
Y-760314D01*
X1381756Y-750316D02*
Y-760314D01*
Y-750316D02*
X1388421Y-760314D01*
Y-750316D02*
Y-760314D01*
X1394039Y-750316D02*
X1393087Y-750792D01*
X1392135Y-751744D01*
X1391659Y-752696D01*
X1391183Y-754124D01*
Y-756505D01*
X1391659Y-757933D01*
X1392135Y-758885D01*
X1393087Y-759838D01*
X1394039Y-760314D01*
X1395944D01*
X1396896Y-759838D01*
X1397848Y-758885D01*
X1398324Y-757933D01*
X1398800Y-756505D01*
Y-754124D01*
X1398324Y-752696D01*
X1397848Y-751744D01*
X1396896Y-750792D01*
X1395944Y-750316D01*
X1394039D01*
X1401133D02*
X1404942Y-760314D01*
X1408750Y-750316D02*
X1404942Y-760314D01*
X1417653D02*
X1413844Y-750316D01*
X1410036Y-760314D01*
X1411464Y-756981D02*
X1416225D01*
X1240309Y-694000D02*
X1238404Y-689001D01*
X1236500Y-694000D01*
X1237214Y-692334D02*
X1239595D01*
X1241475Y-689001D02*
Y-694000D01*
Y-689001D02*
X1244808Y-694000D01*
Y-689001D02*
Y-694000D01*
X1246188Y-689001D02*
Y-694000D01*
Y-689001D02*
X1247855D01*
X1248569Y-689239D01*
X1249045Y-689715D01*
X1249283Y-690191D01*
X1249521Y-690905D01*
Y-692096D01*
X1249283Y-692810D01*
X1249045Y-693286D01*
X1248569Y-693762D01*
X1247855Y-694000D01*
X1246188D01*
X1258138Y-690191D02*
X1257900Y-689715D01*
X1257424Y-689239D01*
X1256948Y-689001D01*
X1255996D01*
X1255520Y-689239D01*
X1255044Y-689715D01*
X1254806Y-690191D01*
X1254568Y-690905D01*
Y-692096D01*
X1254806Y-692810D01*
X1255044Y-693286D01*
X1255520Y-693762D01*
X1255996Y-694000D01*
X1256948D01*
X1257424Y-693762D01*
X1257900Y-693286D01*
X1258138Y-692810D01*
X1260971Y-689001D02*
X1260495Y-689239D01*
X1260019Y-689715D01*
X1259781Y-690191D01*
X1259543Y-690905D01*
Y-692096D01*
X1259781Y-692810D01*
X1260019Y-693286D01*
X1260495Y-693762D01*
X1260971Y-694000D01*
X1261923D01*
X1262399Y-693762D01*
X1262875Y-693286D01*
X1263113Y-692810D01*
X1263351Y-692096D01*
Y-690905D01*
X1263113Y-690191D01*
X1262875Y-689715D01*
X1262399Y-689239D01*
X1261923Y-689001D01*
X1260971D01*
X1264518D02*
Y-694000D01*
Y-689001D02*
X1267850Y-694000D01*
Y-689001D02*
Y-694000D01*
X1270897Y-689001D02*
Y-694000D01*
X1269231Y-689001D02*
X1272564D01*
X1276968Y-694000D02*
X1275063Y-689001D01*
X1273159Y-694000D01*
X1273873Y-692334D02*
X1276253D01*
X1278134Y-689001D02*
Y-694000D01*
X1279181Y-689001D02*
Y-694000D01*
Y-689001D02*
X1282514Y-694000D01*
Y-689001D02*
Y-694000D01*
X1287227Y-689715D02*
X1286751Y-689239D01*
X1286037Y-689001D01*
X1285085D01*
X1284371Y-689239D01*
X1283895Y-689715D01*
Y-690191D01*
X1284133Y-690667D01*
X1284371Y-690905D01*
X1284847Y-691144D01*
X1286275Y-691620D01*
X1286751Y-691858D01*
X1286989Y-692096D01*
X1287227Y-692572D01*
Y-693286D01*
X1286751Y-693762D01*
X1286037Y-694000D01*
X1285085D01*
X1284371Y-693762D01*
X1283895Y-693286D01*
X1295844Y-690191D02*
X1295606Y-689715D01*
X1295130Y-689239D01*
X1294654Y-689001D01*
X1293702D01*
X1293226Y-689239D01*
X1292750Y-689715D01*
X1292512Y-690191D01*
X1292274Y-690905D01*
Y-692096D01*
X1292512Y-692810D01*
X1292750Y-693286D01*
X1293226Y-693762D01*
X1293702Y-694000D01*
X1294654D01*
X1295130Y-693762D01*
X1295606Y-693286D01*
X1295844Y-692810D01*
X1298677Y-689001D02*
X1298201Y-689239D01*
X1297725Y-689715D01*
X1297487Y-690191D01*
X1297249Y-690905D01*
Y-692096D01*
X1297487Y-692810D01*
X1297725Y-693286D01*
X1298201Y-693762D01*
X1298677Y-694000D01*
X1299629D01*
X1300105Y-693762D01*
X1300581Y-693286D01*
X1300819Y-692810D01*
X1301058Y-692096D01*
Y-690905D01*
X1300819Y-690191D01*
X1300581Y-689715D01*
X1300105Y-689239D01*
X1299629Y-689001D01*
X1298677D01*
X1302224D02*
Y-694000D01*
Y-689001D02*
X1305557Y-694000D01*
Y-689001D02*
Y-694000D01*
X1306937Y-689001D02*
Y-694000D01*
Y-689001D02*
X1310032D01*
X1306937Y-691382D02*
X1308842D01*
X1310603Y-689001D02*
Y-694000D01*
X1311650Y-689001D02*
Y-694000D01*
Y-689001D02*
X1313317D01*
X1314031Y-689239D01*
X1314507Y-689715D01*
X1314745Y-690191D01*
X1314983Y-690905D01*
Y-692096D01*
X1314745Y-692810D01*
X1314507Y-693286D01*
X1314031Y-693762D01*
X1313317Y-694000D01*
X1311650D01*
X1319197Y-689001D02*
X1316102D01*
Y-694000D01*
X1319197D01*
X1316102Y-691382D02*
X1318006D01*
X1320030Y-689001D02*
Y-694000D01*
Y-689001D02*
X1323362Y-694000D01*
Y-689001D02*
Y-694000D01*
X1326409Y-689001D02*
Y-694000D01*
X1324743Y-689001D02*
X1328076D01*
X1328671D02*
Y-694000D01*
X1333527D02*
X1331623Y-689001D01*
X1329718Y-694000D01*
X1330432Y-692334D02*
X1332813D01*
X1334693Y-689001D02*
Y-694000D01*
X1337550D01*
X1342025Y-689001D02*
Y-694000D01*
X1343072Y-689001D02*
Y-694000D01*
Y-689001D02*
X1346405Y-694000D01*
Y-689001D02*
Y-694000D01*
X1347786Y-689001D02*
Y-694000D01*
Y-689001D02*
X1350880D01*
X1347786Y-691382D02*
X1349690D01*
X1352880Y-689001D02*
X1352404Y-689239D01*
X1351928Y-689715D01*
X1351690Y-690191D01*
X1351451Y-690905D01*
Y-692096D01*
X1351690Y-692810D01*
X1351928Y-693286D01*
X1352404Y-693762D01*
X1352880Y-694000D01*
X1353832D01*
X1354308Y-693762D01*
X1354784Y-693286D01*
X1355022Y-692810D01*
X1355260Y-692096D01*
Y-690905D01*
X1355022Y-690191D01*
X1354784Y-689715D01*
X1354308Y-689239D01*
X1353832Y-689001D01*
X1352880D01*
X1356427D02*
Y-694000D01*
Y-689001D02*
X1358569D01*
X1359283Y-689239D01*
X1359521Y-689477D01*
X1359759Y-689953D01*
Y-690429D01*
X1359521Y-690905D01*
X1359283Y-691144D01*
X1358569Y-691382D01*
X1356427D01*
X1358093D02*
X1359759Y-694000D01*
X1360878Y-689001D02*
Y-694000D01*
Y-689001D02*
X1362782Y-694000D01*
X1364687Y-689001D02*
X1362782Y-694000D01*
X1364687Y-689001D02*
Y-694000D01*
X1369924D02*
X1368019Y-689001D01*
X1366115Y-694000D01*
X1366829Y-692334D02*
X1369210D01*
X1372756Y-689001D02*
Y-694000D01*
X1371090Y-689001D02*
X1374423D01*
X1375018D02*
Y-694000D01*
X1377494Y-689001D02*
X1377017Y-689239D01*
X1376541Y-689715D01*
X1376303Y-690191D01*
X1376065Y-690905D01*
Y-692096D01*
X1376303Y-692810D01*
X1376541Y-693286D01*
X1377017Y-693762D01*
X1377494Y-694000D01*
X1378446D01*
X1378922Y-693762D01*
X1379398Y-693286D01*
X1379636Y-692810D01*
X1379874Y-692096D01*
Y-690905D01*
X1379636Y-690191D01*
X1379398Y-689715D01*
X1378922Y-689239D01*
X1378446Y-689001D01*
X1377494D01*
X1381040D02*
Y-694000D01*
Y-689001D02*
X1384373Y-694000D01*
Y-689001D02*
Y-694000D01*
X1385992Y-693524D02*
X1385754Y-693762D01*
X1385992Y-694000D01*
X1386230Y-693762D01*
X1385992Y-693524D01*
X1395180Y-689001D02*
Y-694000D01*
X1397894Y-689001D02*
Y-694000D01*
X1396228Y-689001D02*
X1399560D01*
X1407654Y-690191D02*
X1407416Y-689715D01*
X1406940Y-689239D01*
X1406464Y-689001D01*
X1405511D01*
X1405035Y-689239D01*
X1404559Y-689715D01*
X1404321Y-690191D01*
X1404083Y-690905D01*
Y-692096D01*
X1404321Y-692810D01*
X1404559Y-693286D01*
X1405035Y-693762D01*
X1405511Y-694000D01*
X1406464D01*
X1406940Y-693762D01*
X1407416Y-693286D01*
X1407654Y-692810D01*
X1412867Y-694000D02*
X1410963Y-689001D01*
X1409058Y-694000D01*
X1409772Y-692334D02*
X1412153D01*
X1414033Y-689001D02*
Y-694000D01*
Y-689001D02*
X1417366Y-694000D01*
Y-689001D02*
Y-694000D01*
X1418747Y-689001D02*
Y-694000D01*
Y-689001D02*
X1422079Y-694000D01*
Y-689001D02*
Y-694000D01*
X1424888Y-689001D02*
X1424412Y-689239D01*
X1423936Y-689715D01*
X1423698Y-690191D01*
X1423460Y-690905D01*
Y-692096D01*
X1423698Y-692810D01*
X1423936Y-693286D01*
X1424412Y-693762D01*
X1424888Y-694000D01*
X1425840D01*
X1426316Y-693762D01*
X1426793Y-693286D01*
X1427031Y-692810D01*
X1427269Y-692096D01*
Y-690905D01*
X1427031Y-690191D01*
X1426793Y-689715D01*
X1426316Y-689239D01*
X1425840Y-689001D01*
X1424888D01*
X1430101D02*
Y-694000D01*
X1428435Y-689001D02*
X1431768D01*
X1436290D02*
Y-694000D01*
Y-689001D02*
X1438433D01*
X1439147Y-689239D01*
X1439385Y-689477D01*
X1439623Y-689953D01*
Y-690429D01*
X1439385Y-690905D01*
X1439147Y-691144D01*
X1438433Y-691382D01*
X1436290D02*
X1438433D01*
X1439147Y-691620D01*
X1439385Y-691858D01*
X1439623Y-692334D01*
Y-693048D01*
X1439385Y-693524D01*
X1439147Y-693762D01*
X1438433Y-694000D01*
X1436290D01*
X1443836Y-689001D02*
X1440742D01*
Y-694000D01*
X1443836D01*
X1440742Y-691382D02*
X1442646D01*
X1448597Y-689001D02*
Y-694000D01*
Y-689001D02*
X1450740D01*
X1451454Y-689239D01*
X1451692Y-689477D01*
X1451930Y-689953D01*
Y-690429D01*
X1451692Y-690905D01*
X1451454Y-691144D01*
X1450740Y-691382D01*
X1448597D01*
X1450264D02*
X1451930Y-694000D01*
X1456143Y-689001D02*
X1453049D01*
Y-694000D01*
X1456143D01*
X1453049Y-691382D02*
X1454953D01*
X1456977Y-691620D02*
X1459119D01*
X1459833Y-691382D01*
X1460071Y-691144D01*
X1460309Y-690667D01*
Y-689953D01*
X1460071Y-689477D01*
X1459833Y-689239D01*
X1459119Y-689001D01*
X1456977D01*
Y-694000D01*
X1461428Y-689001D02*
Y-694000D01*
Y-689001D02*
X1463570D01*
X1464285Y-689239D01*
X1464522Y-689477D01*
X1464761Y-689953D01*
Y-690429D01*
X1464522Y-690905D01*
X1464285Y-691144D01*
X1463570Y-691382D01*
X1461428D01*
X1463094D02*
X1464761Y-694000D01*
X1467308Y-689001D02*
X1466832Y-689239D01*
X1466356Y-689715D01*
X1466117Y-690191D01*
X1465879Y-690905D01*
Y-692096D01*
X1466117Y-692810D01*
X1466356Y-693286D01*
X1466832Y-693762D01*
X1467308Y-694000D01*
X1468260D01*
X1468736Y-693762D01*
X1469212Y-693286D01*
X1469450Y-692810D01*
X1469688Y-692096D01*
Y-690905D01*
X1469450Y-690191D01*
X1469212Y-689715D01*
X1468736Y-689239D01*
X1468260Y-689001D01*
X1467308D01*
X1470854D02*
Y-694000D01*
Y-689001D02*
X1472521D01*
X1473235Y-689239D01*
X1473711Y-689715D01*
X1473949Y-690191D01*
X1474187Y-690905D01*
Y-692096D01*
X1473949Y-692810D01*
X1473711Y-693286D01*
X1473235Y-693762D01*
X1472521Y-694000D01*
X1470854D01*
X1475306Y-689001D02*
Y-692572D01*
X1475544Y-693286D01*
X1476020Y-693762D01*
X1476734Y-694000D01*
X1477210D01*
X1477924Y-693762D01*
X1478401Y-693286D01*
X1478639Y-692572D01*
Y-689001D01*
X1483590Y-690191D02*
X1483352Y-689715D01*
X1482876Y-689239D01*
X1482400Y-689001D01*
X1481448D01*
X1480971Y-689239D01*
X1480495Y-689715D01*
X1480257Y-690191D01*
X1480019Y-690905D01*
Y-692096D01*
X1480257Y-692810D01*
X1480495Y-693286D01*
X1480971Y-693762D01*
X1481448Y-694000D01*
X1482400D01*
X1482876Y-693762D01*
X1483352Y-693286D01*
X1483590Y-692810D01*
X1488089Y-689001D02*
X1484994D01*
Y-694000D01*
X1488089D01*
X1484994Y-691382D02*
X1486899D01*
X1488922Y-689001D02*
Y-694000D01*
Y-689001D02*
X1490588D01*
X1491302Y-689239D01*
X1491779Y-689715D01*
X1492017Y-690191D01*
X1492255Y-690905D01*
Y-692096D01*
X1492017Y-692810D01*
X1491779Y-693286D01*
X1491302Y-693762D01*
X1490588Y-694000D01*
X1488922D01*
X1497301Y-689001D02*
Y-694000D01*
X1498349Y-689001D02*
Y-694000D01*
Y-689001D02*
X1501681Y-694000D01*
Y-689001D02*
Y-694000D01*
X1506990Y-689001D02*
X1508180Y-694000D01*
X1509370Y-689001D02*
X1508180Y-694000D01*
X1509370Y-689001D02*
X1510560Y-694000D01*
X1511751Y-689001D02*
X1510560Y-694000D01*
X1512750Y-689001D02*
Y-694000D01*
X1516083Y-689001D02*
Y-694000D01*
X1512750Y-691382D02*
X1516083D01*
X1518892Y-689001D02*
X1518416Y-689239D01*
X1517940Y-689715D01*
X1517702Y-690191D01*
X1517464Y-690905D01*
Y-692096D01*
X1517702Y-692810D01*
X1517940Y-693286D01*
X1518416Y-693762D01*
X1518892Y-694000D01*
X1519844D01*
X1520320Y-693762D01*
X1520796Y-693286D01*
X1521034Y-692810D01*
X1521272Y-692096D01*
Y-690905D01*
X1521034Y-690191D01*
X1520796Y-689715D01*
X1520320Y-689239D01*
X1519844Y-689001D01*
X1518892D01*
X1522439D02*
Y-694000D01*
X1525295D01*
X1528937Y-689001D02*
X1525843D01*
Y-694000D01*
X1528937D01*
X1525843Y-691382D02*
X1527747D01*
X1061786Y-806930D02*
Y-806644D01*
X1062071Y-806073D01*
X1062357Y-805787D01*
X1062928Y-805501D01*
X1064071D01*
X1064642Y-805787D01*
X1064928Y-806073D01*
X1065213Y-806644D01*
Y-807215D01*
X1064928Y-807786D01*
X1064357Y-808644D01*
X1061500Y-811500D01*
X1065499D01*
X1068556Y-805501D02*
X1067699Y-805787D01*
X1067127Y-806644D01*
X1066842Y-808072D01*
Y-808929D01*
X1067127Y-810357D01*
X1067699Y-811214D01*
X1068556Y-811500D01*
X1069127D01*
X1069984Y-811214D01*
X1070555Y-810357D01*
X1070841Y-808929D01*
Y-808072D01*
X1070555Y-806644D01*
X1069984Y-805787D01*
X1069127Y-805501D01*
X1068556D01*
X1072183Y-806644D02*
X1072755Y-806358D01*
X1073612Y-805501D01*
Y-811500D01*
X1078011Y-805501D02*
X1077154Y-805787D01*
X1076868Y-806358D01*
Y-806930D01*
X1077154Y-807501D01*
X1077725Y-807786D01*
X1078868Y-808072D01*
X1079725Y-808358D01*
X1080296Y-808929D01*
X1080582Y-809500D01*
Y-810357D01*
X1080296Y-810929D01*
X1080010Y-811214D01*
X1079153Y-811500D01*
X1078011D01*
X1077154Y-811214D01*
X1076868Y-810929D01*
X1076583Y-810357D01*
Y-809500D01*
X1076868Y-808929D01*
X1077439Y-808358D01*
X1078296Y-808072D01*
X1079439Y-807786D01*
X1080010Y-807501D01*
X1080296Y-806930D01*
Y-806358D01*
X1080010Y-805787D01*
X1079153Y-805501D01*
X1078011D01*
X1081924Y-808929D02*
X1087066D01*
X1088837Y-806644D02*
X1089408Y-806358D01*
X1090265Y-805501D01*
Y-811500D01*
X1093522Y-806930D02*
Y-806644D01*
X1093807Y-806073D01*
X1094093Y-805787D01*
X1094664Y-805501D01*
X1095807D01*
X1096378Y-805787D01*
X1096664Y-806073D01*
X1096949Y-806644D01*
Y-807215D01*
X1096664Y-807786D01*
X1096093Y-808644D01*
X1093236Y-811500D01*
X1097235D01*
X1098578Y-808929D02*
X1103720D01*
X1105491Y-806644D02*
X1106062Y-806358D01*
X1106919Y-805501D01*
Y-811500D01*
X1112746Y-805501D02*
X1109890Y-809500D01*
X1114174D01*
X1112746Y-805501D02*
Y-811500D01*
X946500Y-764501D02*
Y-771500D01*
Y-764501D02*
X948833D01*
X949833Y-764835D01*
X950499Y-765501D01*
X950832Y-766168D01*
X951166Y-767168D01*
Y-768834D01*
X950832Y-769834D01*
X950499Y-770500D01*
X949833Y-771167D01*
X948833Y-771500D01*
X946500D01*
X952732Y-764501D02*
Y-771500D01*
Y-764501D02*
X955731D01*
X956731Y-764835D01*
X957064Y-765168D01*
X957398Y-765835D01*
Y-766501D01*
X957064Y-767168D01*
X956731Y-767501D01*
X955731Y-767834D01*
X952732D01*
X955065D02*
X957398Y-771500D01*
X964296D02*
X961630Y-764501D01*
X958964Y-771500D01*
X959964Y-769167D02*
X963296D01*
X965929Y-764501D02*
X967595Y-771500D01*
X969262Y-764501D02*
X967595Y-771500D01*
X969262Y-764501D02*
X970928Y-771500D01*
X972594Y-764501D02*
X970928Y-771500D01*
X973994Y-764501D02*
Y-771500D01*
Y-764501D02*
X978660Y-771500D01*
Y-764501D02*
Y-771500D01*
X986092Y-764501D02*
Y-771500D01*
Y-764501D02*
X989091D01*
X990091Y-764835D01*
X990424Y-765168D01*
X990757Y-765835D01*
Y-766501D01*
X990424Y-767168D01*
X990091Y-767501D01*
X989091Y-767834D01*
X986092D02*
X989091D01*
X990091Y-768167D01*
X990424Y-768501D01*
X990757Y-769167D01*
Y-770167D01*
X990424Y-770833D01*
X990091Y-771167D01*
X989091Y-771500D01*
X986092D01*
X992323Y-764501D02*
X994990Y-767834D01*
Y-771500D01*
X997656Y-764501D02*
X994990Y-767834D01*
X998889Y-766834D02*
X998555Y-767168D01*
X998889Y-767501D01*
X999222Y-767168D01*
X998889Y-766834D01*
Y-770833D02*
X998555Y-771167D01*
X998889Y-771500D01*
X999222Y-771167D01*
X998889Y-770833D01*
X946500Y-787002D02*
X949166Y-794000D01*
X951832Y-787002D02*
X949166Y-794000D01*
X957064Y-787002D02*
X952732D01*
Y-794000D01*
X957064D01*
X952732Y-790334D02*
X955398D01*
X958231Y-787002D02*
Y-794000D01*
Y-787002D02*
X961230D01*
X962230Y-787335D01*
X962563Y-787668D01*
X962897Y-788335D01*
Y-789001D01*
X962563Y-789668D01*
X962230Y-790001D01*
X961230Y-790334D01*
X958231D01*
X960564D02*
X962897Y-794000D01*
X964463Y-787002D02*
Y-794000D01*
X965929Y-787002D02*
Y-794000D01*
Y-787002D02*
X970262D01*
X965929Y-790334D02*
X968595D01*
X971061Y-787002D02*
Y-794000D01*
X976860Y-787002D02*
X972528D01*
Y-794000D01*
X976860D01*
X972528Y-790334D02*
X975194D01*
X978027Y-787002D02*
Y-794000D01*
Y-787002D02*
X980359D01*
X981359Y-787335D01*
X982026Y-788001D01*
X982359Y-788668D01*
X982692Y-789668D01*
Y-791334D01*
X982359Y-792334D01*
X982026Y-793000D01*
X981359Y-793667D01*
X980359Y-794000D01*
X978027D01*
X989757Y-787002D02*
Y-794000D01*
Y-787002D02*
X992757D01*
X993756Y-787335D01*
X994090Y-787668D01*
X994423Y-788335D01*
Y-789001D01*
X994090Y-789668D01*
X993756Y-790001D01*
X992757Y-790334D01*
X989757D02*
X992757D01*
X993756Y-790667D01*
X994090Y-791001D01*
X994423Y-791667D01*
Y-792667D01*
X994090Y-793333D01*
X993756Y-793667D01*
X992757Y-794000D01*
X989757D01*
X995989Y-787002D02*
X998656Y-790334D01*
Y-794000D01*
X1001322Y-787002D02*
X998656Y-790334D01*
X1002555Y-789334D02*
X1002221Y-789668D01*
X1002555Y-790001D01*
X1002888Y-789668D01*
X1002555Y-789334D01*
Y-793333D02*
X1002221Y-793667D01*
X1002555Y-794000D01*
X1002888Y-793667D01*
X1002555Y-793333D01*
X1051333Y-744501D02*
Y-751500D01*
X1049000Y-744501D02*
X1053666D01*
X1056498D02*
X1055832Y-744835D01*
X1055165Y-745501D01*
X1054832Y-746168D01*
X1054499Y-747168D01*
Y-748834D01*
X1054832Y-749834D01*
X1055165Y-750500D01*
X1055832Y-751167D01*
X1056498Y-751500D01*
X1057831D01*
X1058498Y-751167D01*
X1059165Y-750500D01*
X1059498Y-749834D01*
X1059831Y-748834D01*
Y-747168D01*
X1059498Y-746168D01*
X1059165Y-745501D01*
X1058498Y-744835D01*
X1057831Y-744501D01*
X1056498D01*
X1061464Y-748167D02*
X1064463D01*
X1065463Y-747834D01*
X1065796Y-747501D01*
X1066130Y-746834D01*
Y-745835D01*
X1065796Y-745168D01*
X1065463Y-744835D01*
X1064463Y-744501D01*
X1061464D01*
Y-751500D01*
X1077861Y-745501D02*
X1077194Y-744835D01*
X1076194Y-744501D01*
X1074861D01*
X1073861Y-744835D01*
X1073195Y-745501D01*
Y-746168D01*
X1073528Y-746834D01*
X1073861Y-747168D01*
X1074528Y-747501D01*
X1076527Y-748167D01*
X1077194Y-748501D01*
X1077527Y-748834D01*
X1077861Y-749500D01*
Y-750500D01*
X1077194Y-751167D01*
X1076194Y-751500D01*
X1074861D01*
X1073861Y-751167D01*
X1073195Y-750500D01*
X1079427Y-744501D02*
Y-751500D01*
X1080893Y-744501D02*
Y-751500D01*
Y-744501D02*
X1083226D01*
X1084226Y-744835D01*
X1084892Y-745501D01*
X1085226Y-746168D01*
X1085559Y-747168D01*
Y-748834D01*
X1085226Y-749834D01*
X1084892Y-750500D01*
X1084226Y-751167D01*
X1083226Y-751500D01*
X1080893D01*
X1091458Y-744501D02*
X1087125D01*
Y-751500D01*
X1091458D01*
X1087125Y-747834D02*
X1089791D01*
X1098123Y-744501D02*
X1100789Y-751500D01*
X1103455Y-744501D02*
X1100789Y-751500D01*
X1104355Y-744501D02*
Y-751500D01*
X1110153Y-744501D02*
X1105821D01*
Y-751500D01*
X1110153D01*
X1105821Y-747834D02*
X1108487D01*
X1111320Y-744501D02*
X1112986Y-751500D01*
X1114653Y-744501D02*
X1112986Y-751500D01*
X1114653Y-744501D02*
X1116319Y-751500D01*
X1117985Y-744501D02*
X1116319Y-751500D01*
X946500Y-724502D02*
Y-731500D01*
Y-724502D02*
X948833D01*
X949833Y-724835D01*
X950499Y-725501D01*
X950832Y-726168D01*
X951166Y-727168D01*
Y-728834D01*
X950832Y-729834D01*
X950499Y-730500D01*
X949833Y-731167D01*
X948833Y-731500D01*
X946500D01*
X952732Y-724502D02*
Y-731500D01*
Y-724502D02*
X955731D01*
X956731Y-724835D01*
X957064Y-725168D01*
X957398Y-725835D01*
Y-726501D01*
X957064Y-727168D01*
X956731Y-727501D01*
X955731Y-727834D01*
X952732D01*
X955065D02*
X957398Y-731500D01*
X964296D02*
X961630Y-724502D01*
X958964Y-731500D01*
X959964Y-729167D02*
X963296D01*
X965929Y-724502D02*
X967595Y-731500D01*
X969262Y-724502D02*
X967595Y-731500D01*
X969262Y-724502D02*
X970928Y-731500D01*
X972594Y-724502D02*
X970928Y-731500D01*
X973994Y-724502D02*
Y-731500D01*
X975461Y-724502D02*
Y-731500D01*
Y-724502D02*
X980126Y-731500D01*
Y-724502D02*
Y-731500D01*
X987058Y-726168D02*
X986725Y-725501D01*
X986058Y-724835D01*
X985392Y-724502D01*
X984059D01*
X983392Y-724835D01*
X982726Y-725501D01*
X982392Y-726168D01*
X982059Y-727168D01*
Y-728834D01*
X982392Y-729834D01*
X982726Y-730500D01*
X983392Y-731167D01*
X984059Y-731500D01*
X985392D01*
X986058Y-731167D01*
X986725Y-730500D01*
X987058Y-729834D01*
Y-728834D01*
X985392D02*
X987058D01*
X988991Y-726834D02*
X988658Y-727168D01*
X988991Y-727501D01*
X989324Y-727168D01*
X988991Y-726834D01*
Y-730833D02*
X988658Y-731167D01*
X988991Y-731500D01*
X989324Y-731167D01*
X988991Y-730833D01*
X946500Y-685667D02*
X949499D01*
X950499Y-685334D01*
X950832Y-685001D01*
X951166Y-684334D01*
Y-683335D01*
X950832Y-682668D01*
X950499Y-682335D01*
X949499Y-682001D01*
X946500D01*
Y-689000D01*
X952732Y-682001D02*
Y-689000D01*
Y-682001D02*
X955731D01*
X956731Y-682335D01*
X957064Y-682668D01*
X957398Y-683335D01*
Y-684001D01*
X957064Y-684668D01*
X956731Y-685001D01*
X955731Y-685334D01*
X952732D01*
X955065D02*
X957398Y-689000D01*
X960964Y-682001D02*
X960297Y-682335D01*
X959630Y-683001D01*
X959297Y-683668D01*
X958964Y-684668D01*
Y-686334D01*
X959297Y-687334D01*
X959630Y-688000D01*
X960297Y-688667D01*
X960964Y-689000D01*
X962297D01*
X962963Y-688667D01*
X963630Y-688000D01*
X963963Y-687334D01*
X964296Y-686334D01*
Y-684668D01*
X963963Y-683668D01*
X963630Y-683001D01*
X962963Y-682335D01*
X962297Y-682001D01*
X960964D01*
X969262D02*
Y-687334D01*
X968929Y-688334D01*
X968595Y-688667D01*
X967929Y-689000D01*
X967262D01*
X966596Y-688667D01*
X966262Y-688334D01*
X965929Y-687334D01*
Y-686667D01*
X975394Y-682001D02*
X971061D01*
Y-689000D01*
X975394D01*
X971061Y-685334D02*
X973728D01*
X981559Y-683668D02*
X981226Y-683001D01*
X980559Y-682335D01*
X979893Y-682001D01*
X978560D01*
X977893Y-682335D01*
X977227Y-683001D01*
X976894Y-683668D01*
X976560Y-684668D01*
Y-686334D01*
X976894Y-687334D01*
X977227Y-688000D01*
X977893Y-688667D01*
X978560Y-689000D01*
X979893D01*
X980559Y-688667D01*
X981226Y-688000D01*
X981559Y-687334D01*
X985858Y-682001D02*
Y-689000D01*
X983525Y-682001D02*
X988191D01*
X989357Y-684334D02*
X989024Y-684668D01*
X989357Y-685001D01*
X989691Y-684668D01*
X989357Y-684334D01*
Y-688334D02*
X989024Y-688667D01*
X989357Y-689000D01*
X989691Y-688667D01*
X989357Y-688334D01*
X1237928Y-701501D02*
X1237452Y-701739D01*
X1236976Y-702215D01*
X1236738Y-702691D01*
X1236500Y-703405D01*
Y-704596D01*
X1236738Y-705310D01*
X1236976Y-705786D01*
X1237452Y-706262D01*
X1237928Y-706500D01*
X1238880D01*
X1239357Y-706262D01*
X1239833Y-705786D01*
X1240071Y-705310D01*
X1240309Y-704596D01*
Y-703405D01*
X1240071Y-702691D01*
X1239833Y-702215D01*
X1239357Y-701739D01*
X1238880Y-701501D01*
X1237928D01*
X1241475D02*
Y-706500D01*
Y-701501D02*
X1243618D01*
X1244332Y-701739D01*
X1244570Y-701977D01*
X1244808Y-702453D01*
Y-702929D01*
X1244570Y-703405D01*
X1244332Y-703644D01*
X1243618Y-703882D01*
X1241475D01*
X1243141D02*
X1244808Y-706500D01*
X1249854Y-701501D02*
Y-706500D01*
X1250902Y-701501D02*
Y-706500D01*
Y-701501D02*
X1254234Y-706500D01*
Y-701501D02*
Y-706500D01*
X1259543Y-704120D02*
X1261685D01*
X1262399Y-703882D01*
X1262637Y-703644D01*
X1262875Y-703167D01*
Y-702453D01*
X1262637Y-701977D01*
X1262399Y-701739D01*
X1261685Y-701501D01*
X1259543D01*
Y-706500D01*
X1267803D02*
X1265899Y-701501D01*
X1263994Y-706500D01*
X1264708Y-704834D02*
X1267089D01*
X1268969Y-701501D02*
Y-706500D01*
Y-701501D02*
X1271112D01*
X1271826Y-701739D01*
X1272064Y-701977D01*
X1272302Y-702453D01*
Y-702929D01*
X1272064Y-703405D01*
X1271826Y-703644D01*
X1271112Y-703882D01*
X1268969D01*
X1270636D02*
X1272302Y-706500D01*
X1275087Y-701501D02*
Y-706500D01*
X1273421Y-701501D02*
X1276753D01*
X1277824Y-706262D02*
X1277586Y-706500D01*
X1277348Y-706262D01*
X1277586Y-706024D01*
X1277824Y-706262D01*
Y-706738D01*
X1277586Y-707214D01*
X1277348Y-707452D01*
X1286656Y-706500D02*
X1284752Y-701501D01*
X1282847Y-706500D01*
X1283561Y-704834D02*
X1285942D01*
X1287822Y-701501D02*
Y-706500D01*
Y-701501D02*
X1291155Y-706500D01*
Y-701501D02*
Y-706500D01*
X1292536Y-701501D02*
Y-706500D01*
Y-701501D02*
X1294202D01*
X1294916Y-701739D01*
X1295392Y-702215D01*
X1295630Y-702691D01*
X1295868Y-703405D01*
Y-704596D01*
X1295630Y-705310D01*
X1295392Y-705786D01*
X1294916Y-706262D01*
X1294202Y-706500D01*
X1292536D01*
X1302581Y-701501D02*
Y-706500D01*
X1300915Y-701501D02*
X1304247D01*
X1304842D02*
Y-706500D01*
X1308175Y-701501D02*
Y-706500D01*
X1304842Y-703882D02*
X1308175D01*
X1312650Y-701501D02*
X1309556D01*
Y-706500D01*
X1312650D01*
X1309556Y-703882D02*
X1311460D01*
X1317411Y-701501D02*
Y-706500D01*
X1318459Y-701501D02*
Y-706500D01*
Y-701501D02*
X1321791Y-706500D01*
Y-701501D02*
Y-706500D01*
X1323172Y-701501D02*
Y-706500D01*
Y-701501D02*
X1326266D01*
X1323172Y-703882D02*
X1325076D01*
X1328266Y-701501D02*
X1327790Y-701739D01*
X1327314Y-702215D01*
X1327076Y-702691D01*
X1326838Y-703405D01*
Y-704596D01*
X1327076Y-705310D01*
X1327314Y-705786D01*
X1327790Y-706262D01*
X1328266Y-706500D01*
X1329218D01*
X1329694Y-706262D01*
X1330170Y-705786D01*
X1330408Y-705310D01*
X1330647Y-704596D01*
Y-703405D01*
X1330408Y-702691D01*
X1330170Y-702215D01*
X1329694Y-701739D01*
X1329218Y-701501D01*
X1328266D01*
X1331813D02*
Y-706500D01*
Y-701501D02*
X1333955D01*
X1334669Y-701739D01*
X1334908Y-701977D01*
X1335145Y-702453D01*
Y-702929D01*
X1334908Y-703405D01*
X1334669Y-703644D01*
X1333955Y-703882D01*
X1331813D01*
X1333479D02*
X1335145Y-706500D01*
X1336264Y-701501D02*
Y-706500D01*
Y-701501D02*
X1338169Y-706500D01*
X1340073Y-701501D02*
X1338169Y-706500D01*
X1340073Y-701501D02*
Y-706500D01*
X1345310D02*
X1343406Y-701501D01*
X1341501Y-706500D01*
X1342215Y-704834D02*
X1344596D01*
X1348143Y-701501D02*
Y-706500D01*
X1346476Y-701501D02*
X1349809D01*
X1350404D02*
Y-706500D01*
X1352880Y-701501D02*
X1352404Y-701739D01*
X1351928Y-702215D01*
X1351690Y-702691D01*
X1351451Y-703405D01*
Y-704596D01*
X1351690Y-705310D01*
X1351928Y-705786D01*
X1352404Y-706262D01*
X1352880Y-706500D01*
X1353832D01*
X1354308Y-706262D01*
X1354784Y-705786D01*
X1355022Y-705310D01*
X1355260Y-704596D01*
Y-703405D01*
X1355022Y-702691D01*
X1354784Y-702215D01*
X1354308Y-701739D01*
X1353832Y-701501D01*
X1352880D01*
X1356427D02*
Y-706500D01*
Y-701501D02*
X1359759Y-706500D01*
Y-701501D02*
Y-706500D01*
X1368638Y-702691D02*
X1368400Y-702215D01*
X1367924Y-701739D01*
X1367448Y-701501D01*
X1366496D01*
X1366020Y-701739D01*
X1365544Y-702215D01*
X1365306Y-702691D01*
X1365068Y-703405D01*
Y-704596D01*
X1365306Y-705310D01*
X1365544Y-705786D01*
X1366020Y-706262D01*
X1366496Y-706500D01*
X1367448D01*
X1367924Y-706262D01*
X1368400Y-705786D01*
X1368638Y-705310D01*
X1371471Y-701501D02*
X1370995Y-701739D01*
X1370519Y-702215D01*
X1370281Y-702691D01*
X1370043Y-703405D01*
Y-704596D01*
X1370281Y-705310D01*
X1370519Y-705786D01*
X1370995Y-706262D01*
X1371471Y-706500D01*
X1372423D01*
X1372899Y-706262D01*
X1373375Y-705786D01*
X1373613Y-705310D01*
X1373851Y-704596D01*
Y-703405D01*
X1373613Y-702691D01*
X1373375Y-702215D01*
X1372899Y-701739D01*
X1372423Y-701501D01*
X1371471D01*
X1375018D02*
Y-706500D01*
Y-701501D02*
X1378351Y-706500D01*
Y-701501D02*
Y-706500D01*
X1381398Y-701501D02*
Y-706500D01*
X1379731Y-701501D02*
X1383064D01*
X1387468Y-706500D02*
X1385563Y-701501D01*
X1383659Y-706500D01*
X1384373Y-704834D02*
X1386753D01*
X1388634Y-701501D02*
Y-706500D01*
X1389681Y-701501D02*
Y-706500D01*
Y-701501D02*
X1393014Y-706500D01*
Y-701501D02*
Y-706500D01*
X1397489Y-701501D02*
X1394395D01*
Y-706500D01*
X1397489D01*
X1394395Y-703882D02*
X1396299D01*
X1398322Y-701501D02*
Y-706500D01*
Y-701501D02*
X1399989D01*
X1400703Y-701739D01*
X1401179Y-702215D01*
X1401417Y-702691D01*
X1401655Y-703405D01*
Y-704596D01*
X1401417Y-705310D01*
X1401179Y-705786D01*
X1400703Y-706262D01*
X1399989Y-706500D01*
X1398322D01*
X1408368Y-701501D02*
Y-706500D01*
X1406702Y-701501D02*
X1410034D01*
X1410629D02*
Y-706500D01*
X1413962Y-701501D02*
Y-706500D01*
X1410629Y-703882D02*
X1413962D01*
X1418437Y-701501D02*
X1415343D01*
Y-706500D01*
X1418437D01*
X1415343Y-703882D02*
X1417247D01*
X1419270Y-701501D02*
Y-706500D01*
Y-701501D02*
X1421413D01*
X1422127Y-701739D01*
X1422365Y-701977D01*
X1422603Y-702453D01*
Y-702929D01*
X1422365Y-703405D01*
X1422127Y-703644D01*
X1421413Y-703882D01*
X1419270D01*
X1420937D02*
X1422603Y-706500D01*
X1426816Y-701501D02*
X1423722D01*
Y-706500D01*
X1426816D01*
X1423722Y-703882D02*
X1425626D01*
X1427649Y-701501D02*
Y-706500D01*
X1428697Y-701501D02*
Y-706500D01*
Y-701501D02*
X1432030Y-706500D01*
Y-701501D02*
Y-706500D01*
X1440909Y-702691D02*
X1440670Y-702215D01*
X1440194Y-701739D01*
X1439718Y-701501D01*
X1438766D01*
X1438290Y-701739D01*
X1437814Y-702215D01*
X1437576Y-702691D01*
X1437338Y-703405D01*
Y-704596D01*
X1437576Y-705310D01*
X1437814Y-705786D01*
X1438290Y-706262D01*
X1438766Y-706500D01*
X1439718D01*
X1440194Y-706262D01*
X1440670Y-705786D01*
X1440909Y-705310D01*
X1446122Y-706500D02*
X1444217Y-701501D01*
X1442313Y-706500D01*
X1443027Y-704834D02*
X1445408D01*
X1447288Y-701501D02*
Y-706500D01*
Y-701501D02*
X1450621Y-706500D01*
Y-701501D02*
Y-706500D01*
X1452001Y-701501D02*
Y-706500D01*
Y-701501D02*
X1455334Y-706500D01*
Y-701501D02*
Y-706500D01*
X1458143Y-701501D02*
X1457667Y-701739D01*
X1457191Y-702215D01*
X1456953Y-702691D01*
X1456715Y-703405D01*
Y-704596D01*
X1456953Y-705310D01*
X1457191Y-705786D01*
X1457667Y-706262D01*
X1458143Y-706500D01*
X1459095D01*
X1459571Y-706262D01*
X1460047Y-705786D01*
X1460285Y-705310D01*
X1460523Y-704596D01*
Y-703405D01*
X1460285Y-702691D01*
X1460047Y-702215D01*
X1459571Y-701739D01*
X1459095Y-701501D01*
X1458143D01*
X1463356D02*
Y-706500D01*
X1461690Y-701501D02*
X1465022D01*
X1469545D02*
Y-706500D01*
Y-701501D02*
X1471688D01*
X1472402Y-701739D01*
X1472640Y-701977D01*
X1472878Y-702453D01*
Y-702929D01*
X1472640Y-703405D01*
X1472402Y-703644D01*
X1471688Y-703882D01*
X1469545D02*
X1471688D01*
X1472402Y-704120D01*
X1472640Y-704358D01*
X1472878Y-704834D01*
Y-705548D01*
X1472640Y-706024D01*
X1472402Y-706262D01*
X1471688Y-706500D01*
X1469545D01*
X1477091Y-701501D02*
X1473997D01*
Y-706500D01*
X1477091D01*
X1473997Y-703882D02*
X1475901D01*
X1481852Y-701501D02*
Y-705072D01*
X1482090Y-705786D01*
X1482566Y-706262D01*
X1483280Y-706500D01*
X1483757D01*
X1484471Y-706262D01*
X1484947Y-705786D01*
X1485185Y-705072D01*
Y-701501D01*
X1489898Y-702215D02*
X1489422Y-701739D01*
X1488708Y-701501D01*
X1487756D01*
X1487041Y-701739D01*
X1486565Y-702215D01*
Y-702691D01*
X1486804Y-703167D01*
X1487041Y-703405D01*
X1487518Y-703644D01*
X1488946Y-704120D01*
X1489422Y-704358D01*
X1489660Y-704596D01*
X1489898Y-705072D01*
Y-705786D01*
X1489422Y-706262D01*
X1488708Y-706500D01*
X1487756D01*
X1487041Y-706262D01*
X1486565Y-705786D01*
X1494112Y-701501D02*
X1491017D01*
Y-706500D01*
X1494112D01*
X1491017Y-703882D02*
X1492921D01*
X1494945Y-701501D02*
Y-706500D01*
Y-701501D02*
X1496611D01*
X1497325Y-701739D01*
X1497801Y-702215D01*
X1498039Y-702691D01*
X1498277Y-703405D01*
Y-704596D01*
X1498039Y-705310D01*
X1497801Y-705786D01*
X1497325Y-706262D01*
X1496611Y-706500D01*
X1494945D01*
X1504752Y-701501D02*
X1504276Y-701739D01*
X1503800Y-702215D01*
X1503562Y-702691D01*
X1503324Y-703405D01*
Y-704596D01*
X1503562Y-705310D01*
X1503800Y-705786D01*
X1504276Y-706262D01*
X1504752Y-706500D01*
X1505704D01*
X1506180Y-706262D01*
X1506656Y-705786D01*
X1506894Y-705310D01*
X1507133Y-704596D01*
Y-703405D01*
X1506894Y-702691D01*
X1506656Y-702215D01*
X1506180Y-701739D01*
X1505704Y-701501D01*
X1504752D01*
X1508299D02*
Y-706500D01*
Y-701501D02*
X1510441D01*
X1511155Y-701739D01*
X1511394Y-701977D01*
X1511631Y-702453D01*
Y-702929D01*
X1511394Y-703405D01*
X1511155Y-703644D01*
X1510441Y-703882D01*
X1508299D01*
X1509965D02*
X1511631Y-706500D01*
X1516678Y-701501D02*
Y-706500D01*
Y-701501D02*
X1518344D01*
X1519059Y-701739D01*
X1519535Y-702215D01*
X1519773Y-702691D01*
X1520011Y-703405D01*
Y-704596D01*
X1519773Y-705310D01*
X1519535Y-705786D01*
X1519059Y-706262D01*
X1518344Y-706500D01*
X1516678D01*
X1521130Y-701501D02*
Y-706500D01*
X1522177Y-701501D02*
X1524081Y-706500D01*
X1525986Y-701501D02*
X1524081Y-706500D01*
X1526628Y-701501D02*
Y-705072D01*
X1526866Y-705786D01*
X1527342Y-706262D01*
X1528057Y-706500D01*
X1528533D01*
X1529247Y-706262D01*
X1529723Y-705786D01*
X1529961Y-705072D01*
Y-701501D01*
X1531342D02*
Y-706500D01*
X1534198D01*
X1538316Y-702691D02*
X1538078Y-702215D01*
X1537602Y-701739D01*
X1537126Y-701501D01*
X1536174D01*
X1535698Y-701739D01*
X1535222Y-702215D01*
X1534984Y-702691D01*
X1534746Y-703405D01*
Y-704596D01*
X1534984Y-705310D01*
X1535222Y-705786D01*
X1535698Y-706262D01*
X1536174Y-706500D01*
X1537126D01*
X1537602Y-706262D01*
X1538078Y-705786D01*
X1538316Y-705310D01*
Y-704596D01*
X1537126D02*
X1538316D01*
X1542554Y-701501D02*
X1539459D01*
Y-706500D01*
X1542554D01*
X1539459Y-703882D02*
X1541363D01*
X1543387Y-701501D02*
Y-706500D01*
Y-701501D02*
X1545053D01*
X1545767Y-701739D01*
X1546243Y-702215D01*
X1546481Y-702691D01*
X1546719Y-703405D01*
Y-704596D01*
X1546481Y-705310D01*
X1546243Y-705786D01*
X1545767Y-706262D01*
X1545053Y-706500D01*
X1543387D01*
X1238166Y-676501D02*
Y-681500D01*
X1236500Y-676501D02*
X1239833D01*
X1240428D02*
Y-681500D01*
X1243760Y-676501D02*
Y-681500D01*
X1240428Y-678882D02*
X1243760D01*
X1245141Y-676501D02*
Y-681500D01*
X1249521Y-677215D02*
X1249045Y-676739D01*
X1248331Y-676501D01*
X1247379D01*
X1246665Y-676739D01*
X1246188Y-677215D01*
Y-677691D01*
X1246426Y-678167D01*
X1246665Y-678405D01*
X1247141Y-678644D01*
X1248569Y-679120D01*
X1249045Y-679358D01*
X1249283Y-679596D01*
X1249521Y-680072D01*
Y-680786D01*
X1249045Y-681262D01*
X1248331Y-681500D01*
X1247379D01*
X1246665Y-681262D01*
X1246188Y-680786D01*
X1254568Y-676501D02*
Y-681500D01*
Y-676501D02*
X1256234D01*
X1256948Y-676739D01*
X1257424Y-677215D01*
X1257662Y-677691D01*
X1257900Y-678405D01*
Y-679596D01*
X1257662Y-680310D01*
X1257424Y-680786D01*
X1256948Y-681262D01*
X1256234Y-681500D01*
X1254568D01*
X1260447Y-676501D02*
X1259971Y-676739D01*
X1259495Y-677215D01*
X1259257Y-677691D01*
X1259019Y-678405D01*
Y-679596D01*
X1259257Y-680310D01*
X1259495Y-680786D01*
X1259971Y-681262D01*
X1260447Y-681500D01*
X1261399D01*
X1261876Y-681262D01*
X1262352Y-680786D01*
X1262590Y-680310D01*
X1262828Y-679596D01*
Y-678405D01*
X1262590Y-677691D01*
X1262352Y-677215D01*
X1261876Y-676739D01*
X1261399Y-676501D01*
X1260447D01*
X1267565Y-677691D02*
X1267327Y-677215D01*
X1266851Y-676739D01*
X1266375Y-676501D01*
X1265422D01*
X1264946Y-676739D01*
X1264470Y-677215D01*
X1264232Y-677691D01*
X1263994Y-678405D01*
Y-679596D01*
X1264232Y-680310D01*
X1264470Y-680786D01*
X1264946Y-681262D01*
X1265422Y-681500D01*
X1266375D01*
X1266851Y-681262D01*
X1267327Y-680786D01*
X1267565Y-680310D01*
X1268969Y-676501D02*
Y-680072D01*
X1269207Y-680786D01*
X1269683Y-681262D01*
X1270397Y-681500D01*
X1270874D01*
X1271588Y-681262D01*
X1272064Y-680786D01*
X1272302Y-680072D01*
Y-676501D01*
X1273682D02*
Y-681500D01*
Y-676501D02*
X1275587Y-681500D01*
X1277491Y-676501D02*
X1275587Y-681500D01*
X1277491Y-676501D02*
Y-681500D01*
X1282014Y-676501D02*
X1278920D01*
Y-681500D01*
X1282014D01*
X1278920Y-678882D02*
X1280824D01*
X1282847Y-676501D02*
Y-681500D01*
Y-676501D02*
X1286180Y-681500D01*
Y-676501D02*
Y-681500D01*
X1289227Y-676501D02*
Y-681500D01*
X1287560Y-676501D02*
X1290893D01*
X1295416D02*
Y-681500D01*
X1299796Y-677215D02*
X1299320Y-676739D01*
X1298606Y-676501D01*
X1297654D01*
X1296939Y-676739D01*
X1296463Y-677215D01*
Y-677691D01*
X1296701Y-678167D01*
X1296939Y-678405D01*
X1297416Y-678644D01*
X1298844Y-679120D01*
X1299320Y-679358D01*
X1299558Y-679596D01*
X1299796Y-680072D01*
Y-680786D01*
X1299320Y-681262D01*
X1298606Y-681500D01*
X1297654D01*
X1296939Y-681262D01*
X1296463Y-680786D01*
X1306509Y-676501D02*
Y-681500D01*
X1304842Y-676501D02*
X1308175D01*
X1308770D02*
Y-681500D01*
X1312103Y-676501D02*
Y-681500D01*
X1308770Y-678882D02*
X1312103D01*
X1316578Y-676501D02*
X1313484D01*
Y-681500D01*
X1316578D01*
X1313484Y-678882D02*
X1315388D01*
X1324434Y-676501D02*
X1321339D01*
Y-681500D01*
X1324434D01*
X1321339Y-678882D02*
X1323243D01*
X1325267Y-676501D02*
X1328599Y-681500D01*
Y-676501D02*
X1325267Y-681500D01*
X1333289Y-677691D02*
X1333051Y-677215D01*
X1332575Y-676739D01*
X1332099Y-676501D01*
X1331146D01*
X1330670Y-676739D01*
X1330194Y-677215D01*
X1329956Y-677691D01*
X1329718Y-678405D01*
Y-679596D01*
X1329956Y-680310D01*
X1330194Y-680786D01*
X1330670Y-681262D01*
X1331146Y-681500D01*
X1332099D01*
X1332575Y-681262D01*
X1333051Y-680786D01*
X1333289Y-680310D01*
X1334693Y-676501D02*
Y-681500D01*
X1337550D01*
X1338097Y-676501D02*
Y-680072D01*
X1338335Y-680786D01*
X1338811Y-681262D01*
X1339526Y-681500D01*
X1340002D01*
X1340716Y-681262D01*
X1341192Y-680786D01*
X1341430Y-680072D01*
Y-676501D01*
X1346143Y-677215D02*
X1345667Y-676739D01*
X1344953Y-676501D01*
X1344001D01*
X1343287Y-676739D01*
X1342811Y-677215D01*
Y-677691D01*
X1343049Y-678167D01*
X1343287Y-678405D01*
X1343763Y-678644D01*
X1345191Y-679120D01*
X1345667Y-679358D01*
X1345905Y-679596D01*
X1346143Y-680072D01*
Y-680786D01*
X1345667Y-681262D01*
X1344953Y-681500D01*
X1344001D01*
X1343287Y-681262D01*
X1342811Y-680786D01*
X1347262Y-676501D02*
Y-681500D01*
X1348309Y-676501D02*
X1350214Y-681500D01*
X1352118Y-676501D02*
X1350214Y-681500D01*
X1355855Y-676501D02*
X1352761D01*
Y-681500D01*
X1355855D01*
X1352761Y-678882D02*
X1354665D01*
X1360616Y-679120D02*
X1362759D01*
X1363473Y-678882D01*
X1363711Y-678644D01*
X1363949Y-678167D01*
Y-677453D01*
X1363711Y-676977D01*
X1363473Y-676739D01*
X1362759Y-676501D01*
X1360616D01*
Y-681500D01*
X1365068Y-676501D02*
Y-681500D01*
Y-676501D02*
X1367210D01*
X1367924Y-676739D01*
X1368162Y-676977D01*
X1368400Y-677453D01*
Y-677929D01*
X1368162Y-678405D01*
X1367924Y-678644D01*
X1367210Y-678882D01*
X1365068D01*
X1366734D02*
X1368400Y-681500D01*
X1370947Y-676501D02*
X1370471Y-676739D01*
X1369995Y-677215D01*
X1369757Y-677691D01*
X1369519Y-678405D01*
Y-679596D01*
X1369757Y-680310D01*
X1369995Y-680786D01*
X1370471Y-681262D01*
X1370947Y-681500D01*
X1371900D01*
X1372376Y-681262D01*
X1372852Y-680786D01*
X1373090Y-680310D01*
X1373328Y-679596D01*
Y-678405D01*
X1373090Y-677691D01*
X1372852Y-677215D01*
X1372376Y-676739D01*
X1371900Y-676501D01*
X1370947D01*
X1374494Y-679120D02*
X1376637D01*
X1377351Y-678882D01*
X1377589Y-678644D01*
X1377827Y-678167D01*
Y-677453D01*
X1377589Y-676977D01*
X1377351Y-676739D01*
X1376637Y-676501D01*
X1374494D01*
Y-681500D01*
X1382040Y-676501D02*
X1378946D01*
Y-681500D01*
X1382040D01*
X1378946Y-678882D02*
X1380850D01*
X1382873Y-676501D02*
Y-681500D01*
Y-676501D02*
X1385016D01*
X1385730Y-676739D01*
X1385968Y-676977D01*
X1386206Y-677453D01*
Y-677929D01*
X1385968Y-678405D01*
X1385730Y-678644D01*
X1385016Y-678882D01*
X1382873D01*
X1384540D02*
X1386206Y-681500D01*
X1388991Y-676501D02*
Y-681500D01*
X1387325Y-676501D02*
X1390658D01*
X1391253D02*
X1393157Y-678882D01*
Y-681500D01*
X1395061Y-676501D02*
X1393157Y-678882D01*
X1401060Y-676501D02*
X1400584Y-676739D01*
X1400108Y-677215D01*
X1399870Y-677691D01*
X1399632Y-678405D01*
Y-679596D01*
X1399870Y-680310D01*
X1400108Y-680786D01*
X1400584Y-681262D01*
X1401060Y-681500D01*
X1402012D01*
X1402488Y-681262D01*
X1402964Y-680786D01*
X1403202Y-680310D01*
X1403440Y-679596D01*
Y-678405D01*
X1403202Y-677691D01*
X1402964Y-677215D01*
X1402488Y-676739D01*
X1402012Y-676501D01*
X1401060D01*
X1404607D02*
Y-681500D01*
Y-676501D02*
X1407701D01*
X1404607Y-678882D02*
X1406511D01*
X1236500Y-714001D02*
X1237690Y-719000D01*
X1238880Y-714001D02*
X1237690Y-719000D01*
X1238880Y-714001D02*
X1240071Y-719000D01*
X1241261Y-714001D02*
X1240071Y-719000D01*
X1242261Y-714001D02*
Y-719000D01*
X1244974Y-714001D02*
Y-719000D01*
X1243308Y-714001D02*
X1246641D01*
X1247236D02*
Y-719000D01*
X1250568Y-714001D02*
Y-719000D01*
X1247236Y-716382D02*
X1250568D01*
X1253377Y-714001D02*
X1252901Y-714239D01*
X1252425Y-714715D01*
X1252187Y-715191D01*
X1251949Y-715905D01*
Y-717096D01*
X1252187Y-717810D01*
X1252425Y-718286D01*
X1252901Y-718762D01*
X1253377Y-719000D01*
X1254329D01*
X1254806Y-718762D01*
X1255282Y-718286D01*
X1255520Y-717810D01*
X1255758Y-717096D01*
Y-715905D01*
X1255520Y-715191D01*
X1255282Y-714715D01*
X1254806Y-714239D01*
X1254329Y-714001D01*
X1253377D01*
X1256924D02*
Y-717572D01*
X1257162Y-718286D01*
X1257638Y-718762D01*
X1258352Y-719000D01*
X1258829D01*
X1259543Y-718762D01*
X1260019Y-718286D01*
X1260257Y-717572D01*
Y-714001D01*
X1263304D02*
Y-719000D01*
X1261637Y-714001D02*
X1264970D01*
X1271159D02*
Y-719000D01*
X1269493Y-714001D02*
X1272826D01*
X1273421D02*
Y-719000D01*
X1276753Y-714001D02*
Y-719000D01*
X1273421Y-716382D02*
X1276753D01*
X1281229Y-714001D02*
X1278134D01*
Y-719000D01*
X1281229D01*
X1278134Y-716382D02*
X1280038D01*
X1289084Y-714001D02*
X1285989D01*
Y-719000D01*
X1289084D01*
X1285989Y-716382D02*
X1287894D01*
X1289917Y-714001D02*
X1293250Y-719000D01*
Y-714001D02*
X1289917Y-719000D01*
X1294369Y-716620D02*
X1296511D01*
X1297225Y-716382D01*
X1297463Y-716144D01*
X1297701Y-715667D01*
Y-714953D01*
X1297463Y-714477D01*
X1297225Y-714239D01*
X1296511Y-714001D01*
X1294369D01*
Y-719000D01*
X1298820Y-714001D02*
Y-719000D01*
Y-714001D02*
X1300962D01*
X1301676Y-714239D01*
X1301915Y-714477D01*
X1302153Y-714953D01*
Y-715429D01*
X1301915Y-715905D01*
X1301676Y-716144D01*
X1300962Y-716382D01*
X1298820D01*
X1300486D02*
X1302153Y-719000D01*
X1306366Y-714001D02*
X1303271D01*
Y-719000D01*
X1306366D01*
X1303271Y-716382D02*
X1305176D01*
X1310532Y-714715D02*
X1310056Y-714239D01*
X1309342Y-714001D01*
X1308389D01*
X1307675Y-714239D01*
X1307199Y-714715D01*
Y-715191D01*
X1307437Y-715667D01*
X1307675Y-715905D01*
X1308151Y-716144D01*
X1309580Y-716620D01*
X1310056Y-716858D01*
X1310294Y-717096D01*
X1310532Y-717572D01*
Y-718286D01*
X1310056Y-718762D01*
X1309342Y-719000D01*
X1308389D01*
X1307675Y-718762D01*
X1307199Y-718286D01*
X1314983Y-714715D02*
X1314507Y-714239D01*
X1313793Y-714001D01*
X1312841D01*
X1312127Y-714239D01*
X1311651Y-714715D01*
Y-715191D01*
X1311889Y-715667D01*
X1312127Y-715905D01*
X1312603Y-716144D01*
X1314031Y-716620D01*
X1314507Y-716858D01*
X1314745Y-717096D01*
X1314983Y-717572D01*
Y-718286D01*
X1314507Y-718762D01*
X1313793Y-719000D01*
X1312841D01*
X1312127Y-718762D01*
X1311651Y-718286D01*
X1319197Y-714001D02*
X1316102D01*
Y-719000D01*
X1319197D01*
X1316102Y-716382D02*
X1318006D01*
X1320030Y-714001D02*
Y-719000D01*
Y-714001D02*
X1321696D01*
X1322410Y-714239D01*
X1322886Y-714715D01*
X1323124Y-715191D01*
X1323362Y-715905D01*
Y-717096D01*
X1323124Y-717810D01*
X1322886Y-718286D01*
X1322410Y-718762D01*
X1321696Y-719000D01*
X1320030D01*
X1328409Y-714001D02*
X1329599Y-719000D01*
X1330789Y-714001D02*
X1329599Y-719000D01*
X1330789Y-714001D02*
X1331980Y-719000D01*
X1333170Y-714001D02*
X1331980Y-719000D01*
X1334170Y-714001D02*
Y-719000D01*
Y-714001D02*
X1336312D01*
X1337026Y-714239D01*
X1337264Y-714477D01*
X1337502Y-714953D01*
Y-715429D01*
X1337264Y-715905D01*
X1337026Y-716144D01*
X1336312Y-716382D01*
X1334170D01*
X1335836D02*
X1337502Y-719000D01*
X1338621Y-714001D02*
Y-719000D01*
X1341335Y-714001D02*
Y-719000D01*
X1339668Y-714001D02*
X1343001D01*
X1345262D02*
Y-719000D01*
X1343596Y-714001D02*
X1346929D01*
X1350618D02*
X1347524D01*
Y-719000D01*
X1350618D01*
X1347524Y-716382D02*
X1349428D01*
X1351452Y-714001D02*
Y-719000D01*
Y-714001D02*
X1354784Y-719000D01*
Y-714001D02*
Y-719000D01*
X1363663Y-715191D02*
X1363425Y-714715D01*
X1362949Y-714239D01*
X1362473Y-714001D01*
X1361521D01*
X1361045Y-714239D01*
X1360569Y-714715D01*
X1360331Y-715191D01*
X1360093Y-715905D01*
Y-717096D01*
X1360331Y-717810D01*
X1360569Y-718286D01*
X1361045Y-718762D01*
X1361521Y-719000D01*
X1362473D01*
X1362949Y-718762D01*
X1363425Y-718286D01*
X1363663Y-717810D01*
X1366496Y-714001D02*
X1366020Y-714239D01*
X1365544Y-714715D01*
X1365306Y-715191D01*
X1365068Y-715905D01*
Y-717096D01*
X1365306Y-717810D01*
X1365544Y-718286D01*
X1366020Y-718762D01*
X1366496Y-719000D01*
X1367448D01*
X1367924Y-718762D01*
X1368400Y-718286D01*
X1368638Y-717810D01*
X1368876Y-717096D01*
Y-715905D01*
X1368638Y-715191D01*
X1368400Y-714715D01*
X1367924Y-714239D01*
X1367448Y-714001D01*
X1366496D01*
X1370043D02*
Y-719000D01*
Y-714001D02*
X1373375Y-719000D01*
Y-714001D02*
Y-719000D01*
X1378089Y-714715D02*
X1377613Y-714239D01*
X1376898Y-714001D01*
X1375946D01*
X1375232Y-714239D01*
X1374756Y-714715D01*
Y-715191D01*
X1374994Y-715667D01*
X1375232Y-715905D01*
X1375708Y-716144D01*
X1377137Y-716620D01*
X1377613Y-716858D01*
X1377851Y-717096D01*
X1378089Y-717572D01*
Y-718286D01*
X1377613Y-718762D01*
X1376898Y-719000D01*
X1375946D01*
X1375232Y-718762D01*
X1374756Y-718286D01*
X1382302Y-714001D02*
X1379208D01*
Y-719000D01*
X1382302D01*
X1379208Y-716382D02*
X1381112D01*
X1383135Y-714001D02*
Y-719000D01*
Y-714001D02*
X1386468Y-719000D01*
Y-714001D02*
Y-719000D01*
X1389515Y-714001D02*
Y-719000D01*
X1387849Y-714001D02*
X1391181D01*
X1397132D02*
X1396656Y-714239D01*
X1396180Y-714715D01*
X1395942Y-715191D01*
X1395704Y-715905D01*
Y-717096D01*
X1395942Y-717810D01*
X1396180Y-718286D01*
X1396656Y-718762D01*
X1397132Y-719000D01*
X1398084D01*
X1398561Y-718762D01*
X1399037Y-718286D01*
X1399275Y-717810D01*
X1399513Y-717096D01*
Y-715905D01*
X1399275Y-715191D01*
X1399037Y-714715D01*
X1398561Y-714239D01*
X1398084Y-714001D01*
X1397132D01*
X1400679D02*
Y-719000D01*
Y-714001D02*
X1403774D01*
X1400679Y-716382D02*
X1402584D01*
X1347156Y-809314D02*
X1343347Y-799316D01*
X1339538Y-809314D01*
X1340967Y-805981D02*
X1345728D01*
X1349489Y-799316D02*
Y-809314D01*
X1355202D01*
X1356297Y-799316D02*
Y-809314D01*
X1362010D01*
X1370960Y-799316D02*
Y-809314D01*
Y-799316D02*
X1375245D01*
X1376673Y-799792D01*
X1377149Y-800268D01*
X1377626Y-801220D01*
Y-802172D01*
X1377149Y-803125D01*
X1376673Y-803601D01*
X1375245Y-804077D01*
X1370960D01*
X1374293D02*
X1377626Y-809314D01*
X1379863Y-799316D02*
Y-809314D01*
X1389099Y-801696D02*
X1388623Y-800744D01*
X1387671Y-799792D01*
X1386719Y-799316D01*
X1384814D01*
X1383862Y-799792D01*
X1382910Y-800744D01*
X1382434Y-801696D01*
X1381958Y-803125D01*
Y-805505D01*
X1382434Y-806933D01*
X1382910Y-807885D01*
X1383862Y-808838D01*
X1384814Y-809314D01*
X1386719D01*
X1387671Y-808838D01*
X1388623Y-807885D01*
X1389099Y-806933D01*
Y-805505D01*
X1386719D02*
X1389099D01*
X1391385Y-799316D02*
Y-809314D01*
X1398050Y-799316D02*
Y-809314D01*
X1391385Y-804077D02*
X1398050D01*
X1404144Y-799316D02*
Y-809314D01*
X1400811Y-799316D02*
X1407476D01*
X1415332Y-800744D02*
X1414380Y-799792D01*
X1412951Y-799316D01*
X1411047D01*
X1409619Y-799792D01*
X1408667Y-800744D01*
Y-801696D01*
X1409143Y-802649D01*
X1409619Y-803125D01*
X1410571Y-803601D01*
X1413427Y-804553D01*
X1414380Y-805029D01*
X1414856Y-805505D01*
X1415332Y-806457D01*
Y-807885D01*
X1414380Y-808838D01*
X1412951Y-809314D01*
X1411047D01*
X1409619Y-808838D01*
X1408667Y-807885D01*
X1425425Y-799316D02*
Y-809314D01*
Y-799316D02*
X1429710D01*
X1431138Y-799792D01*
X1431614Y-800268D01*
X1432090Y-801220D01*
Y-802172D01*
X1431614Y-803125D01*
X1431138Y-803601D01*
X1429710Y-804077D01*
X1425425D01*
X1428757D02*
X1432090Y-809314D01*
X1440517Y-799316D02*
X1434328D01*
Y-809314D01*
X1440517D01*
X1434328Y-804077D02*
X1438136D01*
X1448848Y-800744D02*
X1447896Y-799792D01*
X1446468Y-799316D01*
X1444564D01*
X1443135Y-799792D01*
X1442183Y-800744D01*
Y-801696D01*
X1442659Y-802649D01*
X1443135Y-803125D01*
X1444088Y-803601D01*
X1446944Y-804553D01*
X1447896Y-805029D01*
X1448372Y-805505D01*
X1448848Y-806457D01*
Y-807885D01*
X1447896Y-808838D01*
X1446468Y-809314D01*
X1444564D01*
X1443135Y-808838D01*
X1442183Y-807885D01*
X1457275Y-799316D02*
X1451086D01*
Y-809314D01*
X1457275D01*
X1451086Y-804077D02*
X1454895D01*
X1458941Y-799316D02*
Y-809314D01*
Y-799316D02*
X1463226D01*
X1464655Y-799792D01*
X1465131Y-800268D01*
X1465607Y-801220D01*
Y-802172D01*
X1465131Y-803125D01*
X1464655Y-803601D01*
X1463226Y-804077D01*
X1458941D01*
X1462274D02*
X1465607Y-809314D01*
X1467844Y-799316D02*
X1471653Y-809314D01*
X1475462Y-799316D02*
X1471653Y-809314D01*
X1482936Y-799316D02*
X1476747D01*
Y-809314D01*
X1482936D01*
X1476747Y-804077D02*
X1480556D01*
X1484603Y-799316D02*
Y-809314D01*
Y-799316D02*
X1487935D01*
X1489363Y-799792D01*
X1490316Y-800744D01*
X1490792Y-801696D01*
X1491268Y-803125D01*
Y-805505D01*
X1490792Y-806933D01*
X1490316Y-807885D01*
X1489363Y-808838D01*
X1487935Y-809314D01*
X1484603D01*
X1493982Y-808362D02*
X1493505Y-808838D01*
X1493982Y-809314D01*
X1494458Y-808838D01*
X1493982Y-808362D01*
X1340235Y-778696D02*
Y-778220D01*
X1340711Y-777268D01*
X1341187Y-776792D01*
X1342139Y-776316D01*
X1344043D01*
X1344995Y-776792D01*
X1345472Y-777268D01*
X1345948Y-778220D01*
Y-779172D01*
X1345472Y-780125D01*
X1344519Y-781553D01*
X1339758Y-786314D01*
X1346424D01*
X1351518Y-776316D02*
X1350090Y-776792D01*
X1349137Y-778220D01*
X1348661Y-780601D01*
Y-782029D01*
X1349137Y-784409D01*
X1350090Y-785838D01*
X1351518Y-786314D01*
X1352470D01*
X1353898Y-785838D01*
X1354850Y-784409D01*
X1355327Y-782029D01*
Y-780601D01*
X1354850Y-778220D01*
X1353898Y-776792D01*
X1352470Y-776316D01*
X1351518D01*
X1360421D02*
X1358992Y-776792D01*
X1358040Y-778220D01*
X1357564Y-780601D01*
Y-782029D01*
X1358040Y-784409D01*
X1358992Y-785838D01*
X1360421Y-786314D01*
X1361373D01*
X1362801Y-785838D01*
X1363753Y-784409D01*
X1364229Y-782029D01*
Y-780601D01*
X1363753Y-778220D01*
X1362801Y-776792D01*
X1361373Y-776316D01*
X1360421D01*
X1372656Y-779648D02*
X1372180Y-781077D01*
X1371228Y-782029D01*
X1369800Y-782505D01*
X1369324D01*
X1367895Y-782029D01*
X1366943Y-781077D01*
X1366467Y-779648D01*
Y-779172D01*
X1366943Y-777744D01*
X1367895Y-776792D01*
X1369324Y-776316D01*
X1369800D01*
X1371228Y-776792D01*
X1372180Y-777744D01*
X1372656Y-779648D01*
Y-782029D01*
X1372180Y-784409D01*
X1371228Y-785838D01*
X1369800Y-786314D01*
X1368847D01*
X1367419Y-785838D01*
X1366943Y-784885D01*
X1375370Y-782029D02*
X1383939D01*
X1387367Y-778696D02*
Y-778220D01*
X1387843Y-777268D01*
X1388319Y-776792D01*
X1389272Y-776316D01*
X1391176D01*
X1392128Y-776792D01*
X1392604Y-777268D01*
X1393080Y-778220D01*
Y-779172D01*
X1392604Y-780125D01*
X1391652Y-781553D01*
X1386891Y-786314D01*
X1393556D01*
X1398651Y-776316D02*
X1397222Y-776792D01*
X1396270Y-778220D01*
X1395794Y-780601D01*
Y-782029D01*
X1396270Y-784409D01*
X1397222Y-785838D01*
X1398651Y-786314D01*
X1399603D01*
X1401031Y-785838D01*
X1401983Y-784409D01*
X1402459Y-782029D01*
Y-780601D01*
X1401983Y-778220D01*
X1401031Y-776792D01*
X1399603Y-776316D01*
X1398651D01*
X1404697Y-778220D02*
X1405649Y-777744D01*
X1407077Y-776316D01*
Y-786314D01*
X1414409Y-776316D02*
X1412981Y-776792D01*
X1412505Y-777744D01*
Y-778696D01*
X1412981Y-779648D01*
X1413933Y-780125D01*
X1415837Y-780601D01*
X1417266Y-781077D01*
X1418218Y-782029D01*
X1418694Y-782981D01*
Y-784409D01*
X1418218Y-785361D01*
X1417742Y-785838D01*
X1416313Y-786314D01*
X1414409D01*
X1412981Y-785838D01*
X1412505Y-785361D01*
X1412029Y-784409D01*
Y-782981D01*
X1412505Y-782029D01*
X1413457Y-781077D01*
X1414885Y-780601D01*
X1416790Y-780125D01*
X1417742Y-779648D01*
X1418218Y-778696D01*
Y-777744D01*
X1417742Y-776792D01*
X1416313Y-776316D01*
X1414409D01*
X1354400Y-752196D02*
X1353924Y-751244D01*
X1352972Y-750292D01*
X1352019Y-749816D01*
X1350115D01*
X1349163Y-750292D01*
X1348211Y-751244D01*
X1347735Y-752196D01*
X1347258Y-753624D01*
Y-756005D01*
X1347735Y-757433D01*
X1348211Y-758385D01*
X1349163Y-759338D01*
X1350115Y-759814D01*
X1352019D01*
X1352972Y-759338D01*
X1353924Y-758385D01*
X1354400Y-757433D01*
X1067000Y-667001D02*
Y-674000D01*
X1071666Y-667001D02*
X1067000Y-671667D01*
X1068666Y-670001D02*
X1071666Y-674000D01*
X1073232Y-667001D02*
Y-674000D01*
X1074698Y-667001D02*
Y-674000D01*
Y-667001D02*
X1079364Y-674000D01*
Y-667001D02*
Y-674000D01*
X1083296Y-667001D02*
X1082630Y-667335D01*
X1081964Y-668001D01*
X1081630Y-668668D01*
X1081297Y-669668D01*
Y-671334D01*
X1081630Y-672334D01*
X1081964Y-673000D01*
X1082630Y-673667D01*
X1083296Y-674000D01*
X1084630D01*
X1085296Y-673667D01*
X1085963Y-673000D01*
X1086296Y-672334D01*
X1086629Y-671334D01*
Y-669668D01*
X1086296Y-668668D01*
X1085963Y-668001D01*
X1085296Y-667335D01*
X1084630Y-667001D01*
X1083296D01*
X1088262D02*
X1090928Y-674000D01*
X1093594Y-667001D02*
X1090928Y-674000D01*
X1099826D02*
X1097160Y-667001D01*
X1094494Y-674000D01*
X1095494Y-671667D02*
X1098827D01*
X1029000Y-804502D02*
Y-811500D01*
Y-804502D02*
X1031333D01*
X1032333Y-804835D01*
X1032999Y-805501D01*
X1033332Y-806168D01*
X1033666Y-807168D01*
Y-808834D01*
X1033332Y-809834D01*
X1032999Y-810500D01*
X1032333Y-811167D01*
X1031333Y-811500D01*
X1029000D01*
X1040564D02*
X1037898Y-804502D01*
X1035232Y-811500D01*
X1036232Y-809167D02*
X1039564D01*
X1044530Y-804502D02*
Y-811500D01*
X1042197Y-804502D02*
X1046863D01*
X1052028D02*
X1047696D01*
Y-811500D01*
X1052028D01*
X1047696Y-807834D02*
X1050362D01*
X1053528Y-806834D02*
X1053195Y-807168D01*
X1053528Y-807501D01*
X1053861Y-807168D01*
X1053528Y-806834D01*
Y-810833D02*
X1053195Y-811167D01*
X1053528Y-811500D01*
X1053861Y-811167D01*
X1053528Y-810833D01*
X815833Y746332D02*
Y746665D01*
X816166Y747332D01*
X816500Y747665D01*
X817166Y747999D01*
X818499D01*
X819166Y747665D01*
X819499Y747332D01*
X819832Y746665D01*
Y745999D01*
X819499Y745332D01*
X818833Y744333D01*
X815500Y741000D01*
X820166D01*
X823732Y747999D02*
X822732Y747665D01*
X822065Y746665D01*
X821732Y744999D01*
Y743999D01*
X822065Y742333D01*
X822732Y741333D01*
X823732Y741000D01*
X824398D01*
X825398Y741333D01*
X826064Y742333D01*
X826398Y743999D01*
Y744999D01*
X826064Y746665D01*
X825398Y747665D01*
X824398Y747999D01*
X823732D01*
X827964Y746665D02*
X828631Y746999D01*
X829630Y747999D01*
Y741000D01*
X834762Y747999D02*
X833763Y747665D01*
X833430Y746999D01*
Y746332D01*
X833763Y745666D01*
X834429Y745332D01*
X835762Y744999D01*
X836762Y744666D01*
X837429Y743999D01*
X837762Y743333D01*
Y742333D01*
X837429Y741667D01*
X837095Y741333D01*
X836096Y741000D01*
X834762D01*
X833763Y741333D01*
X833430Y741667D01*
X833096Y742333D01*
Y743333D01*
X833430Y743999D01*
X834096Y744666D01*
X835096Y744999D01*
X836429Y745332D01*
X837095Y745666D01*
X837429Y746332D01*
Y746999D01*
X837095Y747665D01*
X836096Y747999D01*
X834762D01*
X839328Y743999D02*
X845327D01*
X847393Y746665D02*
X848060Y746999D01*
X849059Y747999D01*
Y741000D01*
X852859Y746332D02*
Y746665D01*
X853192Y747332D01*
X853525Y747665D01*
X854192Y747999D01*
X855525D01*
X856191Y747665D01*
X856524Y747332D01*
X856858Y746665D01*
Y745999D01*
X856524Y745332D01*
X855858Y744333D01*
X852525Y741000D01*
X857191D01*
X858757Y743999D02*
X864756D01*
X866822Y746665D02*
X867489Y746999D01*
X868489Y747999D01*
Y741000D01*
X875287Y747999D02*
X871955Y743333D01*
X876954D01*
X875287Y747999D02*
Y741000D01*
X934500Y749999D02*
Y743000D01*
Y749999D02*
X939166Y743000D01*
Y749999D02*
Y743000D01*
X945098Y747666D02*
Y743000D01*
Y746666D02*
X944431Y747332D01*
X943765Y747666D01*
X942765D01*
X942098Y747332D01*
X941432Y746666D01*
X941099Y745666D01*
Y745000D01*
X941432Y744000D01*
X942098Y743333D01*
X942765Y743000D01*
X943765D01*
X944431Y743333D01*
X945098Y744000D01*
X946964Y747666D02*
Y743000D01*
Y746333D02*
X947964Y747332D01*
X948630Y747666D01*
X949630D01*
X950297Y747332D01*
X950630Y746333D01*
Y743000D01*
X956462Y746666D02*
X955795Y747332D01*
X955129Y747666D01*
X954129D01*
X953463Y747332D01*
X952796Y746666D01*
X952463Y745666D01*
Y745000D01*
X952796Y744000D01*
X953463Y743333D01*
X954129Y743000D01*
X955129D01*
X955795Y743333D01*
X956462Y744000D01*
X958295Y747666D02*
X960295Y743000D01*
X962294Y747666D02*
X960295Y743000D01*
X959628Y741667D01*
X958961Y741000D01*
X958295Y740667D01*
X957962D01*
X968959Y749999D02*
Y743000D01*
Y749999D02*
X971959D01*
X972958Y749665D01*
X973292Y749332D01*
X973625Y748665D01*
Y747999D01*
X973292Y747332D01*
X972958Y746999D01*
X971959Y746666D01*
X968959D02*
X971959D01*
X972958Y746333D01*
X973292Y745999D01*
X973625Y745333D01*
Y744333D01*
X973292Y743667D01*
X972958Y743333D01*
X971959Y743000D01*
X968959D01*
X975191Y747666D02*
Y744333D01*
X975525Y743333D01*
X976191Y743000D01*
X977191D01*
X977857Y743333D01*
X978857Y744333D01*
Y747666D02*
Y743000D01*
X982023Y749999D02*
X982356Y749665D01*
X982690Y749999D01*
X982356Y750332D01*
X982023Y749999D01*
X982356Y747666D02*
Y742000D01*
X982023Y741000D01*
X981357Y740667D01*
X980690D01*
X985656Y747666D02*
X984989Y747332D01*
X984323Y746666D01*
X983989Y745666D01*
Y745000D01*
X984323Y744000D01*
X984989Y743333D01*
X985656Y743000D01*
X986656D01*
X987322Y743333D01*
X987988Y744000D01*
X988322Y745000D01*
Y745666D01*
X987988Y746666D01*
X987322Y747332D01*
X986656Y747666D01*
X985656D01*
X989855Y749999D02*
Y743000D01*
X995320Y749999D02*
Y743000D01*
Y746666D02*
X994654Y747332D01*
X993987Y747666D01*
X992988D01*
X992321Y747332D01*
X991654Y746666D01*
X991321Y745666D01*
Y745000D01*
X991654Y744000D01*
X992321Y743333D01*
X992988Y743000D01*
X993987D01*
X994654Y743333D01*
X995320Y744000D01*
X1099999Y747332D02*
X1099666Y747999D01*
X1098999Y748665D01*
X1098333Y748998D01*
X1097000D01*
X1096333Y748665D01*
X1095667Y747999D01*
X1095333Y747332D01*
X1095000Y746332D01*
Y744666D01*
X1095333Y743666D01*
X1095667Y743000D01*
X1096333Y742333D01*
X1097000Y742000D01*
X1098333D01*
X1098999Y742333D01*
X1099666Y743000D01*
X1099999Y743666D01*
X1101965Y744666D02*
X1105964D01*
Y745333D01*
X1105631Y745999D01*
X1105298Y746332D01*
X1104631Y746666D01*
X1103631D01*
X1102965Y746332D01*
X1102298Y745666D01*
X1101965Y744666D01*
Y744000D01*
X1102298Y743000D01*
X1102965Y742333D01*
X1103631Y742000D01*
X1104631D01*
X1105298Y742333D01*
X1105964Y743000D01*
X1111463Y748998D02*
Y742000D01*
Y745666D02*
X1110797Y746332D01*
X1110130Y746666D01*
X1109130D01*
X1108464Y746332D01*
X1107797Y745666D01*
X1107464Y744666D01*
Y744000D01*
X1107797Y743000D01*
X1108464Y742333D01*
X1109130Y742000D01*
X1110130D01*
X1110797Y742333D01*
X1111463Y743000D01*
X1113329Y746666D02*
Y742000D01*
Y744666D02*
X1113663Y745666D01*
X1114329Y746332D01*
X1114996Y746666D01*
X1115996D01*
X1117295Y748998D02*
X1117628Y748665D01*
X1117962Y748998D01*
X1117628Y749332D01*
X1117295Y748998D01*
X1117628Y746666D02*
Y742000D01*
X1123194Y745666D02*
X1122527Y746332D01*
X1121861Y746666D01*
X1120861D01*
X1120195Y746332D01*
X1119528Y745666D01*
X1119195Y744666D01*
Y744000D01*
X1119528Y743000D01*
X1120195Y742333D01*
X1120861Y742000D01*
X1121861D01*
X1122527Y742333D01*
X1123194Y743000D01*
X1135191Y747332D02*
X1134858Y747999D01*
X1134192Y748665D01*
X1133525Y748998D01*
X1132192D01*
X1131526Y748665D01*
X1130859Y747999D01*
X1130526Y747332D01*
X1130192Y746332D01*
Y744666D01*
X1130526Y743666D01*
X1130859Y743000D01*
X1131526Y742333D01*
X1132192Y742000D01*
X1133525D01*
X1134192Y742333D01*
X1134858Y743000D01*
X1135191Y743666D01*
Y744666D01*
X1133525D02*
X1135191D01*
X1138457Y746666D02*
X1137791Y746332D01*
X1137124Y745666D01*
X1136791Y744666D01*
Y744000D01*
X1137124Y743000D01*
X1137791Y742333D01*
X1138457Y742000D01*
X1139457D01*
X1140124Y742333D01*
X1140790Y743000D01*
X1141123Y744000D01*
Y744666D01*
X1140790Y745666D01*
X1140124Y746332D01*
X1139457Y746666D01*
X1138457D01*
X1146656Y748998D02*
Y742000D01*
Y745666D02*
X1145989Y746332D01*
X1145323Y746666D01*
X1144323D01*
X1143656Y746332D01*
X1142990Y745666D01*
X1142657Y744666D01*
Y744000D01*
X1142990Y743000D01*
X1143656Y742333D01*
X1144323Y742000D01*
X1145323D01*
X1145989Y742333D01*
X1146656Y743000D01*
X1149188Y748998D02*
X1149522Y748665D01*
X1149855Y748998D01*
X1149522Y749332D01*
X1149188Y748998D01*
X1149522Y746666D02*
Y742000D01*
X1151088Y746666D02*
Y742000D01*
Y745333D02*
X1152088Y746332D01*
X1152754Y746666D01*
X1153754D01*
X1154421Y746332D01*
X1154754Y745333D01*
Y742000D01*
X1093229Y760537D02*
X1090182Y768535D01*
X1087135Y760537D01*
X1088278Y763203D02*
X1092087D01*
X1095096Y764346D02*
X1098523D01*
X1099666Y764727D01*
X1100047Y765107D01*
X1100428Y765869D01*
Y767012D01*
X1100047Y767773D01*
X1099666Y768154D01*
X1098523Y768535D01*
X1095096D01*
Y760537D01*
X1102218Y764346D02*
X1105646D01*
X1106788Y764727D01*
X1107169Y765107D01*
X1107550Y765869D01*
Y767012D01*
X1107169Y767773D01*
X1106788Y768154D01*
X1105646Y768535D01*
X1102218D01*
Y760537D01*
X1109340Y768535D02*
Y760537D01*
Y768535D02*
X1112768D01*
X1113911Y768154D01*
X1114291Y767773D01*
X1114672Y767012D01*
Y766250D01*
X1114291Y765488D01*
X1113911Y765107D01*
X1112768Y764727D01*
X1109340D01*
X1112006D02*
X1114672Y760537D01*
X1118748Y768535D02*
X1117986Y768154D01*
X1117224Y767393D01*
X1116843Y766631D01*
X1116462Y765488D01*
Y763584D01*
X1116843Y762441D01*
X1117224Y761680D01*
X1117986Y760918D01*
X1118748Y760537D01*
X1120271D01*
X1121033Y760918D01*
X1121795Y761680D01*
X1122175Y762441D01*
X1122556Y763584D01*
Y765488D01*
X1122175Y766631D01*
X1121795Y767393D01*
X1121033Y768154D01*
X1120271Y768535D01*
X1118748D01*
X1124423D02*
X1127470Y760537D01*
X1130517Y768535D02*
X1127470Y760537D01*
X1136496Y768535D02*
X1131545D01*
Y760537D01*
X1136496D01*
X1131545Y764727D02*
X1134592D01*
X1137829Y768535D02*
Y760537D01*
Y768535D02*
X1140495D01*
X1141638Y768154D01*
X1142400Y767393D01*
X1142781Y766631D01*
X1143161Y765488D01*
Y763584D01*
X1142781Y762441D01*
X1142400Y761680D01*
X1141638Y760918D01*
X1140495Y760537D01*
X1137829D01*
X1151236Y768535D02*
Y760537D01*
Y768535D02*
X1154664D01*
X1155806Y768154D01*
X1156187Y767773D01*
X1156568Y767012D01*
Y766250D01*
X1156187Y765488D01*
X1155806Y765107D01*
X1154664Y764727D01*
X1151236D02*
X1154664D01*
X1155806Y764346D01*
X1156187Y763965D01*
X1156568Y763203D01*
Y762060D01*
X1156187Y761299D01*
X1155806Y760918D01*
X1154664Y760537D01*
X1151236D01*
X1158358Y768535D02*
X1161405Y764727D01*
Y760537D01*
X1164452Y768535D02*
X1161405Y764727D01*
X409714Y741140D02*
X407048Y748138D01*
X404382Y741140D01*
X405381Y743473D02*
X408714D01*
X455371Y747945D02*
Y740947D01*
Y747945D02*
X460036Y740947D01*
Y747945D02*
Y740947D01*
X461969Y739947D02*
X466635Y747945D01*
X472434Y740947D02*
X469768Y747945D01*
X467101Y740947D01*
X468101Y743280D02*
X471434D01*
X830135Y768035D02*
Y760037D01*
Y768035D02*
X832801D01*
X833944Y767654D01*
X834706Y766893D01*
X835087Y766131D01*
X835468Y764988D01*
Y763084D01*
X835087Y761941D01*
X834706Y761180D01*
X833944Y760418D01*
X832801Y760037D01*
X830135D01*
X843352D02*
X840305Y768035D01*
X837258Y760037D01*
X838400Y762703D02*
X842209D01*
X847884Y768035D02*
Y760037D01*
X845218Y768035D02*
X850550D01*
X856454D02*
X851502D01*
Y760037D01*
X856454D01*
X851502Y764227D02*
X854549D01*
X398135Y768035D02*
Y760037D01*
Y768035D02*
X401563D01*
X402706Y767654D01*
X403087Y767274D01*
X403468Y766512D01*
Y765750D01*
X403087Y764988D01*
X402706Y764607D01*
X401563Y764227D01*
X398135D01*
X400802D02*
X403468Y760037D01*
X410209Y768035D02*
X405258D01*
Y760037D01*
X410209D01*
X405258Y764227D02*
X408305D01*
X411542Y768035D02*
X414589Y760037D01*
X417636Y768035D02*
X414589Y760037D01*
X619135Y768035D02*
Y760037D01*
Y768035D02*
X621802D01*
X622944Y767654D01*
X623706Y766893D01*
X624087Y766131D01*
X624468Y764988D01*
Y763084D01*
X624087Y761941D01*
X623706Y761180D01*
X622944Y760418D01*
X621802Y760037D01*
X619135D01*
X631209Y768035D02*
X626258D01*
Y760037D01*
X631209D01*
X626258Y764227D02*
X629305D01*
X637874Y766893D02*
X637112Y767654D01*
X635970Y768035D01*
X634446D01*
X633304Y767654D01*
X632542Y766893D01*
Y766131D01*
X632923Y765369D01*
X633304Y764988D01*
X634065Y764607D01*
X636351Y763846D01*
X637112Y763465D01*
X637493Y763084D01*
X637874Y762322D01*
Y761180D01*
X637112Y760418D01*
X635970Y760037D01*
X634446D01*
X633304Y760418D01*
X632542Y761180D01*
X645377Y766131D02*
X644997Y766893D01*
X644235Y767654D01*
X643473Y768035D01*
X641950D01*
X641188Y767654D01*
X640426Y766893D01*
X640045Y766131D01*
X639664Y764988D01*
Y763084D01*
X640045Y761941D01*
X640426Y761180D01*
X641188Y760418D01*
X641950Y760037D01*
X643473D01*
X644235Y760418D01*
X644997Y761180D01*
X645377Y761941D01*
X647624Y768035D02*
Y760037D01*
Y768035D02*
X651052D01*
X652195Y767654D01*
X652576Y767274D01*
X652957Y766512D01*
Y765750D01*
X652576Y764988D01*
X652195Y764607D01*
X651052Y764227D01*
X647624D01*
X650291D02*
X652957Y760037D01*
X654747Y768035D02*
Y760037D01*
X656423Y763846D02*
X659850D01*
X660993Y764227D01*
X661374Y764607D01*
X661755Y765369D01*
Y766512D01*
X661374Y767274D01*
X660993Y767654D01*
X659850Y768035D01*
X656423D01*
Y760037D01*
X666211Y768035D02*
Y760037D01*
X663545Y768035D02*
X668877D01*
X669829D02*
Y760037D01*
X673790Y768035D02*
X673029Y767654D01*
X672267Y766893D01*
X671886Y766131D01*
X671505Y764988D01*
Y763084D01*
X671886Y761941D01*
X672267Y761180D01*
X673029Y760418D01*
X673790Y760037D01*
X675314D01*
X676076Y760418D01*
X676837Y761180D01*
X677218Y761941D01*
X677599Y763084D01*
Y764988D01*
X677218Y766131D01*
X676837Y766893D01*
X676076Y767654D01*
X675314Y768035D01*
X673790D01*
X679465D02*
Y760037D01*
Y768035D02*
X684797Y760037D01*
Y768035D02*
Y760037D01*
X781725Y789407D02*
Y781409D01*
Y789407D02*
X785153D01*
X786296Y789026D01*
X786676Y788645D01*
X787057Y787884D01*
Y787122D01*
X786676Y786360D01*
X786296Y785979D01*
X785153Y785598D01*
X781725D01*
X784391D02*
X787057Y781409D01*
X793799Y789407D02*
X788847D01*
Y781409D01*
X793799D01*
X788847Y785598D02*
X791894D01*
X795132Y789407D02*
X798179Y781409D01*
X801226Y789407D02*
X798179Y781409D01*
X802254Y789407D02*
Y781409D01*
X809262Y788265D02*
X808500Y789026D01*
X807358Y789407D01*
X805834D01*
X804692Y789026D01*
X803930Y788265D01*
Y787503D01*
X804311Y786741D01*
X804692Y786360D01*
X805453Y785979D01*
X807739Y785218D01*
X808500Y784837D01*
X808881Y784456D01*
X809262Y783694D01*
Y782551D01*
X808500Y781790D01*
X807358Y781409D01*
X805834D01*
X804692Y781790D01*
X803930Y782551D01*
X811052Y789407D02*
Y781409D01*
X815013Y789407D02*
X814251Y789026D01*
X813490Y788265D01*
X813109Y787503D01*
X812728Y786360D01*
Y784456D01*
X813109Y783313D01*
X813490Y782551D01*
X814251Y781790D01*
X815013Y781409D01*
X816537D01*
X817298Y781790D01*
X818060Y782551D01*
X818441Y783313D01*
X818822Y784456D01*
Y786360D01*
X818441Y787503D01*
X818060Y788265D01*
X817298Y789026D01*
X816537Y789407D01*
X815013D01*
X820688D02*
Y781409D01*
Y789407D02*
X826020Y781409D01*
Y789407D02*
Y781409D01*
X833562Y788265D02*
X832800Y789026D01*
X831657Y789407D01*
X830134D01*
X828991Y789026D01*
X828229Y788265D01*
Y787503D01*
X828610Y786741D01*
X828991Y786360D01*
X829753Y785979D01*
X832038Y785218D01*
X832800Y784837D01*
X833181Y784456D01*
X833562Y783694D01*
Y782551D01*
X832800Y781790D01*
X831657Y781409D01*
X830134D01*
X828991Y781790D01*
X828229Y782551D01*
X937635Y768535D02*
Y760537D01*
Y768535D02*
X940301D01*
X941444Y768154D01*
X942206Y767393D01*
X942587Y766631D01*
X942968Y765488D01*
Y763584D01*
X942587Y762441D01*
X942206Y761680D01*
X941444Y760918D01*
X940301Y760537D01*
X937635D01*
X944758Y768535D02*
Y760537D01*
Y768535D02*
X948186D01*
X949328Y768154D01*
X949709Y767773D01*
X950090Y767012D01*
Y766250D01*
X949709Y765488D01*
X949328Y765107D01*
X948186Y764727D01*
X944758D01*
X947424D02*
X950090Y760537D01*
X957974D02*
X954927Y768535D01*
X951880Y760537D01*
X953022Y763203D02*
X956831D01*
X959840Y768535D02*
X961744Y760537D01*
X963649Y768535D02*
X961744Y760537D01*
X963649Y768535D02*
X965553Y760537D01*
X967457Y768535D02*
X965553Y760537D01*
X969057Y768535D02*
Y760537D01*
Y768535D02*
X974389Y760537D01*
Y768535D02*
Y760537D01*
X982883Y768535D02*
Y760537D01*
Y768535D02*
X986311D01*
X987453Y768154D01*
X987834Y767773D01*
X988215Y767012D01*
Y766250D01*
X987834Y765488D01*
X987453Y765107D01*
X986311Y764727D01*
X982883D02*
X986311D01*
X987453Y764346D01*
X987834Y763965D01*
X988215Y763203D01*
Y762060D01*
X987834Y761299D01*
X987453Y760918D01*
X986311Y760537D01*
X982883D01*
X990005Y768535D02*
X993052Y764727D01*
Y760537D01*
X996099Y768535D02*
X993052Y764727D01*
X456587Y768535D02*
X451635D01*
Y760537D01*
X456587D01*
X451635Y764727D02*
X454682D01*
X463633Y766631D02*
X463252Y767393D01*
X462490Y768154D01*
X461728Y768535D01*
X460205D01*
X459443Y768154D01*
X458681Y767393D01*
X458301Y766631D01*
X457920Y765488D01*
Y763584D01*
X458301Y762441D01*
X458681Y761680D01*
X459443Y760918D01*
X460205Y760537D01*
X461728D01*
X462490Y760918D01*
X463252Y761680D01*
X463633Y762441D01*
X468165Y768535D02*
X467403Y768154D01*
X466642Y767393D01*
X466261Y766631D01*
X465880Y765488D01*
Y763584D01*
X466261Y762441D01*
X466642Y761680D01*
X467403Y760918D01*
X468165Y760537D01*
X469689D01*
X470450Y760918D01*
X471212Y761680D01*
X471593Y762441D01*
X471974Y763584D01*
Y765488D01*
X471593Y766631D01*
X471212Y767393D01*
X470450Y768154D01*
X469689Y768535D01*
X468165D01*
X476887D02*
X474221Y757871D01*
X479172Y768535D02*
X476506Y757871D01*
X474221Y764346D02*
X479553D01*
X473840Y762060D02*
X479172D01*
X508371Y747945D02*
Y740947D01*
Y747945D02*
X512703D01*
X508371Y744613D02*
X511037D01*
X514169Y747945D02*
X514503Y747612D01*
X514836Y747945D01*
X514503Y748279D01*
X514169Y747945D01*
X514503Y745612D02*
Y740947D01*
X516069Y745612D02*
Y740947D01*
Y743613D02*
X516402Y744613D01*
X517069Y745279D01*
X517735Y745612D01*
X518735D01*
X523034Y744613D02*
X522701Y745279D01*
X521701Y745612D01*
X520701D01*
X519702Y745279D01*
X519368Y744613D01*
X519702Y743946D01*
X520368Y743613D01*
X522034Y743280D01*
X522701Y742946D01*
X523034Y742280D01*
Y741947D01*
X522701Y741280D01*
X521701Y740947D01*
X520701D01*
X519702Y741280D01*
X519368Y741947D01*
X525500Y747945D02*
Y742280D01*
X525834Y741280D01*
X526500Y740947D01*
X527167D01*
X524501Y745612D02*
X526833D01*
X533665D02*
Y740947D01*
Y743613D02*
X533998Y744613D01*
X534665Y745279D01*
X535331Y745612D01*
X536331D01*
X536965Y743613D02*
X540964D01*
Y744279D01*
X540630Y744946D01*
X540297Y745279D01*
X539631Y745612D01*
X538631D01*
X537964Y745279D01*
X537298Y744613D01*
X536965Y743613D01*
Y742946D01*
X537298Y741947D01*
X537964Y741280D01*
X538631Y740947D01*
X539631D01*
X540297Y741280D01*
X540964Y741947D01*
X542463Y747945D02*
Y740947D01*
X543930Y743613D02*
X547929D01*
Y744279D01*
X547596Y744946D01*
X547262Y745279D01*
X546596Y745612D01*
X545596D01*
X544930Y745279D01*
X544263Y744613D01*
X543930Y743613D01*
Y742946D01*
X544263Y741947D01*
X544930Y741280D01*
X545596Y740947D01*
X546596D01*
X547262Y741280D01*
X547929Y741947D01*
X553428Y745612D02*
Y740947D01*
Y744613D02*
X552761Y745279D01*
X552095Y745612D01*
X551095D01*
X550428Y745279D01*
X549762Y744613D01*
X549429Y743613D01*
Y742946D01*
X549762Y741947D01*
X550428Y741280D01*
X551095Y740947D01*
X552095D01*
X552761Y741280D01*
X553428Y741947D01*
X558960Y744613D02*
X558627Y745279D01*
X557627Y745612D01*
X556627D01*
X555627Y745279D01*
X555294Y744613D01*
X555627Y743946D01*
X556294Y743613D01*
X557960Y743280D01*
X558627Y742946D01*
X558960Y742280D01*
Y741947D01*
X558627Y741280D01*
X557627Y740947D01*
X556627D01*
X555627Y741280D01*
X555294Y741947D01*
X560426Y743613D02*
X564425D01*
Y744279D01*
X564092Y744946D01*
X563759Y745279D01*
X563092Y745612D01*
X562092D01*
X561426Y745279D01*
X560759Y744613D01*
X560426Y743613D01*
Y742946D01*
X560759Y741947D01*
X561426Y741280D01*
X562092Y740947D01*
X563092D01*
X563759Y741280D01*
X564425Y741947D01*
X1395500Y789998D02*
Y782500D01*
X1400499Y789998D02*
X1395500Y785000D01*
X1397285Y786785D02*
X1400499Y782500D01*
X1402177Y789998D02*
Y782500D01*
X1403748Y789998D02*
Y782500D01*
Y789998D02*
X1408747Y782500D01*
Y789998D02*
Y782500D01*
X1412961Y789998D02*
X1412246Y789641D01*
X1411532Y788927D01*
X1411175Y788213D01*
X1410818Y787142D01*
Y785357D01*
X1411175Y784285D01*
X1411532Y783571D01*
X1412246Y782857D01*
X1412961Y782500D01*
X1414389D01*
X1415103Y782857D01*
X1415817Y783571D01*
X1416174Y784285D01*
X1416531Y785357D01*
Y787142D01*
X1416174Y788213D01*
X1415817Y788927D01*
X1415103Y789641D01*
X1414389Y789998D01*
X1412961D01*
X1418281D02*
X1421137Y782500D01*
X1423994Y789998D02*
X1421137Y782500D01*
X1430671D02*
X1427814Y789998D01*
X1424958Y782500D01*
X1426029Y785000D02*
X1429600D01*
X1222944Y708037D02*
X1221040Y713036D01*
X1219135Y708037D01*
X1219849Y709703D02*
X1222230D01*
X1224111Y713036D02*
Y708037D01*
Y713036D02*
X1227443Y708037D01*
Y713036D02*
Y708037D01*
X1228824Y713036D02*
Y708037D01*
Y713036D02*
X1230490D01*
X1231204Y712798D01*
X1231680Y712322D01*
X1231918Y711846D01*
X1232156Y711132D01*
Y709941D01*
X1231918Y709227D01*
X1231680Y708751D01*
X1231204Y708275D01*
X1230490Y708037D01*
X1228824D01*
X1237203Y713036D02*
Y709465D01*
X1237441Y708751D01*
X1237917Y708275D01*
X1238631Y708037D01*
X1239107D01*
X1239821Y708275D01*
X1240298Y708751D01*
X1240536Y709465D01*
Y713036D01*
X1245249Y712322D02*
X1244773Y712798D01*
X1244059Y713036D01*
X1243106D01*
X1242392Y712798D01*
X1241916Y712322D01*
Y711846D01*
X1242154Y711370D01*
X1242392Y711132D01*
X1242868Y710893D01*
X1244297Y710418D01*
X1244773Y710179D01*
X1245011Y709941D01*
X1245249Y709465D01*
Y708751D01*
X1244773Y708275D01*
X1244059Y708037D01*
X1243106D01*
X1242392Y708275D01*
X1241916Y708751D01*
X1249462Y713036D02*
X1246368D01*
Y708037D01*
X1249462D01*
X1246368Y710655D02*
X1248272D01*
X1257556Y712322D02*
X1257080Y712798D01*
X1256365Y713036D01*
X1255413D01*
X1254699Y712798D01*
X1254223Y712322D01*
Y711846D01*
X1254461Y711370D01*
X1254699Y711132D01*
X1255175Y710893D01*
X1256604Y710418D01*
X1257080Y710179D01*
X1257318Y709941D01*
X1257556Y709465D01*
Y708751D01*
X1257080Y708275D01*
X1256365Y708037D01*
X1255413D01*
X1254699Y708275D01*
X1254223Y708751D01*
X1262483Y708037D02*
X1260579Y713036D01*
X1258675Y708037D01*
X1259389Y709703D02*
X1261769D01*
X1263650Y713036D02*
Y708037D01*
Y713036D02*
X1265554Y708037D01*
X1267458Y713036D02*
X1265554Y708037D01*
X1267458Y713036D02*
Y708037D01*
X1271981Y713036D02*
X1268887D01*
Y708037D01*
X1271981D01*
X1268887Y710655D02*
X1270791D01*
X1276742Y713036D02*
Y708037D01*
Y713036D02*
X1279837D01*
X1276742Y710655D02*
X1278646D01*
X1281836Y713036D02*
X1281360Y712798D01*
X1280884Y712322D01*
X1280646Y711846D01*
X1280408Y711132D01*
Y709941D01*
X1280646Y709227D01*
X1280884Y708751D01*
X1281360Y708275D01*
X1281836Y708037D01*
X1282788D01*
X1283265Y708275D01*
X1283741Y708751D01*
X1283979Y709227D01*
X1284217Y709941D01*
Y711132D01*
X1283979Y711846D01*
X1283741Y712322D01*
X1283265Y712798D01*
X1282788Y713036D01*
X1281836D01*
X1285383D02*
Y708037D01*
Y713036D02*
X1287525D01*
X1288240Y712798D01*
X1288478Y712560D01*
X1288716Y712084D01*
Y711608D01*
X1288478Y711132D01*
X1288240Y710893D01*
X1287525Y710655D01*
X1285383D01*
X1287049D02*
X1288716Y708037D01*
X1296857Y713036D02*
X1293762D01*
Y708037D01*
X1296857D01*
X1293762Y710655D02*
X1295667D01*
X1297690Y713036D02*
X1299594Y708037D01*
X1301499Y713036D02*
X1299594Y708037D01*
X1305950D02*
X1304046Y713036D01*
X1302141Y708037D01*
X1302855Y709703D02*
X1305236D01*
X1307117Y713036D02*
Y708037D01*
X1309973D01*
X1310520Y713036D02*
Y709465D01*
X1310759Y708751D01*
X1311235Y708275D01*
X1311949Y708037D01*
X1312425D01*
X1313139Y708275D01*
X1313615Y708751D01*
X1313853Y709465D01*
Y713036D01*
X1319042Y708037D02*
X1317138Y713036D01*
X1315234Y708037D01*
X1315948Y709703D02*
X1318328D01*
X1321875Y713036D02*
Y708037D01*
X1320209Y713036D02*
X1323542D01*
X1324137D02*
Y708037D01*
X1326612Y713036D02*
X1326136Y712798D01*
X1325660Y712322D01*
X1325422Y711846D01*
X1325184Y711132D01*
Y709941D01*
X1325422Y709227D01*
X1325660Y708751D01*
X1326136Y708275D01*
X1326612Y708037D01*
X1327565D01*
X1328041Y708275D01*
X1328517Y708751D01*
X1328755Y709227D01*
X1328993Y709941D01*
Y711132D01*
X1328755Y711846D01*
X1328517Y712322D01*
X1328041Y712798D01*
X1327565Y713036D01*
X1326612D01*
X1330159D02*
Y708037D01*
Y713036D02*
X1333492Y708037D01*
Y713036D02*
Y708037D01*
X1335349Y708275D02*
X1335110Y708037D01*
X1334873Y708275D01*
X1335110Y708513D01*
X1335349Y708275D01*
Y707799D01*
X1335110Y707323D01*
X1334873Y707085D01*
X1341800Y713036D02*
X1341323Y712798D01*
X1340847Y712322D01*
X1340609Y711846D01*
X1340371Y711132D01*
Y709941D01*
X1340609Y709227D01*
X1340847Y708751D01*
X1341323Y708275D01*
X1341800Y708037D01*
X1342752D01*
X1343228Y708275D01*
X1343704Y708751D01*
X1343942Y709227D01*
X1344180Y709941D01*
Y711132D01*
X1343942Y711846D01*
X1343704Y712322D01*
X1343228Y712798D01*
X1342752Y713036D01*
X1341800D01*
X1345346Y710418D02*
X1347489D01*
X1348203Y710655D01*
X1348441Y710893D01*
X1348679Y711370D01*
Y712084D01*
X1348441Y712560D01*
X1348203Y712798D01*
X1347489Y713036D01*
X1345346D01*
Y708037D01*
X1352892Y713036D02*
X1349798D01*
Y708037D01*
X1352892D01*
X1349798Y710655D02*
X1351702D01*
X1353726Y713036D02*
Y708037D01*
Y713036D02*
X1355868D01*
X1356582Y712798D01*
X1356820Y712560D01*
X1357058Y712084D01*
Y711608D01*
X1356820Y711132D01*
X1356582Y710893D01*
X1355868Y710655D01*
X1353726D01*
X1355392D02*
X1357058Y708037D01*
X1361986D02*
X1360081Y713036D01*
X1358177Y708037D01*
X1358891Y709703D02*
X1361272D01*
X1364818Y713036D02*
Y708037D01*
X1363152Y713036D02*
X1366485D01*
X1367080D02*
Y708037D01*
X1369555Y713036D02*
X1369079Y712798D01*
X1368603Y712322D01*
X1368365Y711846D01*
X1368127Y711132D01*
Y709941D01*
X1368365Y709227D01*
X1368603Y708751D01*
X1369079Y708275D01*
X1369555Y708037D01*
X1370508D01*
X1370984Y708275D01*
X1371460Y708751D01*
X1371698Y709227D01*
X1371936Y709941D01*
Y711132D01*
X1371698Y711846D01*
X1371460Y712322D01*
X1370984Y712798D01*
X1370508Y713036D01*
X1369555D01*
X1373102D02*
Y708037D01*
Y713036D02*
X1376435Y708037D01*
Y713036D02*
Y708037D01*
X1385552D02*
X1383648Y713036D01*
X1381743Y708037D01*
X1382458Y709703D02*
X1384838D01*
X1386718Y713036D02*
Y708037D01*
Y713036D02*
X1390051Y708037D01*
Y713036D02*
Y708037D01*
X1391432Y713036D02*
Y708037D01*
Y713036D02*
X1393098D01*
X1393812Y712798D01*
X1394288Y712322D01*
X1394526Y711846D01*
X1394764Y711132D01*
Y709941D01*
X1394526Y709227D01*
X1394288Y708751D01*
X1393812Y708275D01*
X1393098Y708037D01*
X1391432D01*
X1399811Y713036D02*
Y708037D01*
Y713036D02*
X1401715Y708037D01*
X1403620Y713036D02*
X1401715Y708037D01*
X1403620Y713036D02*
Y708037D01*
X1408857D02*
X1406952Y713036D01*
X1405048Y708037D01*
X1405762Y709703D02*
X1408142D01*
X1410023Y713036D02*
Y708037D01*
X1411070Y713036D02*
Y708037D01*
Y713036D02*
X1414403Y708037D01*
Y713036D02*
Y708037D01*
X1417450Y713036D02*
Y708037D01*
X1415784Y713036D02*
X1419116D01*
X1422806D02*
X1419711D01*
Y708037D01*
X1422806D01*
X1419711Y710655D02*
X1421616D01*
X1423639Y713036D02*
Y708037D01*
Y713036D02*
X1426972Y708037D01*
Y713036D02*
Y708037D01*
X1432161D02*
X1430257Y713036D01*
X1428352Y708037D01*
X1429066Y709703D02*
X1431447D01*
X1433327Y713036D02*
Y708037D01*
Y713036D02*
X1436660Y708037D01*
Y713036D02*
Y708037D01*
X1441611Y711846D02*
X1441373Y712322D01*
X1440897Y712798D01*
X1440421Y713036D01*
X1439469D01*
X1438993Y712798D01*
X1438517Y712322D01*
X1438279Y711846D01*
X1438041Y711132D01*
Y709941D01*
X1438279Y709227D01*
X1438517Y708751D01*
X1438993Y708275D01*
X1439469Y708037D01*
X1440421D01*
X1440897Y708275D01*
X1441373Y708751D01*
X1441611Y709227D01*
X1446111Y713036D02*
X1443016D01*
Y708037D01*
X1446111D01*
X1443016Y710655D02*
X1444920D01*
X1450871Y710418D02*
X1453014D01*
X1453728Y710655D01*
X1453966Y710893D01*
X1454204Y711370D01*
Y712084D01*
X1453966Y712560D01*
X1453728Y712798D01*
X1453014Y713036D01*
X1450871D01*
Y708037D01*
X1455323Y713036D02*
Y709465D01*
X1455561Y708751D01*
X1456037Y708275D01*
X1456751Y708037D01*
X1457227D01*
X1457941Y708275D01*
X1458417Y708751D01*
X1458655Y709465D01*
Y713036D01*
X1460036D02*
Y708037D01*
Y713036D02*
X1462179D01*
X1462893Y712798D01*
X1463131Y712560D01*
X1463369Y712084D01*
Y711608D01*
X1463131Y711132D01*
X1462893Y710893D01*
X1462179Y710655D01*
X1460036D01*
X1461702D02*
X1463369Y708037D01*
X1464487Y710418D02*
X1466630D01*
X1467344Y710655D01*
X1467582Y710893D01*
X1467820Y711370D01*
Y712084D01*
X1467582Y712560D01*
X1467344Y712798D01*
X1466630Y713036D01*
X1464487D01*
Y708037D01*
X1470367Y713036D02*
X1469891Y712798D01*
X1469415Y712322D01*
X1469177Y711846D01*
X1468939Y711132D01*
Y709941D01*
X1469177Y709227D01*
X1469415Y708751D01*
X1469891Y708275D01*
X1470367Y708037D01*
X1471319D01*
X1471795Y708275D01*
X1472272Y708751D01*
X1472510Y709227D01*
X1472748Y709941D01*
Y711132D01*
X1472510Y711846D01*
X1472272Y712322D01*
X1471795Y712798D01*
X1471319Y713036D01*
X1470367D01*
X1477247Y712322D02*
X1476771Y712798D01*
X1476056Y713036D01*
X1475104D01*
X1474390Y712798D01*
X1473914Y712322D01*
Y711846D01*
X1474152Y711370D01*
X1474390Y711132D01*
X1474866Y710893D01*
X1476295Y710418D01*
X1476771Y710179D01*
X1477009Y709941D01*
X1477247Y709465D01*
Y708751D01*
X1476771Y708275D01*
X1476056Y708037D01*
X1475104D01*
X1474390Y708275D01*
X1473914Y708751D01*
X1481460Y713036D02*
X1478366D01*
Y708037D01*
X1481460D01*
X1478366Y710655D02*
X1480270D01*
X1485626Y712322D02*
X1485150Y712798D01*
X1484436Y713036D01*
X1483484D01*
X1482769Y712798D01*
X1482293Y712322D01*
Y711846D01*
X1482531Y711370D01*
X1482769Y711132D01*
X1483245Y710893D01*
X1484674Y710418D01*
X1485150Y710179D01*
X1485388Y709941D01*
X1485626Y709465D01*
Y708751D01*
X1485150Y708275D01*
X1484436Y708037D01*
X1483484D01*
X1482769Y708275D01*
X1482293Y708751D01*
X1492101Y713036D02*
X1491625Y712798D01*
X1491148Y712322D01*
X1490910Y711846D01*
X1490672Y711132D01*
Y709941D01*
X1490910Y709227D01*
X1491148Y708751D01*
X1491625Y708275D01*
X1492101Y708037D01*
X1493053D01*
X1493529Y708275D01*
X1494005Y708751D01*
X1494243Y709227D01*
X1494481Y709941D01*
Y711132D01*
X1494243Y711846D01*
X1494005Y712322D01*
X1493529Y712798D01*
X1493053Y713036D01*
X1492101D01*
X1495648D02*
Y708037D01*
Y713036D02*
X1498980Y708037D01*
Y713036D02*
Y708037D01*
X1500361Y713036D02*
Y708037D01*
X1503217D01*
X1503765Y713036D02*
X1505669Y710655D01*
Y708037D01*
X1507574Y713036D02*
X1505669Y710655D01*
X1508454Y708513D02*
X1508216Y708275D01*
X1508454Y708037D01*
X1508692Y708275D01*
X1508454Y708513D01*
X1222944Y719537D02*
X1221040Y724536D01*
X1219135Y719537D01*
X1219849Y721203D02*
X1222230D01*
X1224111Y724536D02*
Y719537D01*
Y724536D02*
X1227443Y719537D01*
Y724536D02*
Y719537D01*
X1228824Y724536D02*
Y719537D01*
Y724536D02*
X1230490D01*
X1231204Y724298D01*
X1231680Y723822D01*
X1231918Y723346D01*
X1232156Y722632D01*
Y721441D01*
X1231918Y720727D01*
X1231680Y720251D01*
X1231204Y719775D01*
X1230490Y719537D01*
X1228824D01*
X1240536Y723822D02*
X1240059Y724298D01*
X1239345Y724536D01*
X1238393D01*
X1237679Y724298D01*
X1237203Y723822D01*
Y723346D01*
X1237441Y722870D01*
X1237679Y722632D01*
X1238155Y722394D01*
X1239583Y721917D01*
X1240059Y721679D01*
X1240298Y721441D01*
X1240536Y720965D01*
Y720251D01*
X1240059Y719775D01*
X1239345Y719537D01*
X1238393D01*
X1237679Y719775D01*
X1237203Y720251D01*
X1241654Y724536D02*
Y719537D01*
X1244987Y724536D02*
Y719537D01*
X1241654Y722156D02*
X1244987D01*
X1250176Y719537D02*
X1248272Y724536D01*
X1246368Y719537D01*
X1247082Y721203D02*
X1249462D01*
X1251343Y724536D02*
Y719537D01*
X1254199D01*
X1254747Y724536D02*
Y719537D01*
X1257603D01*
X1262078Y721917D02*
X1264221D01*
X1264935Y722156D01*
X1265173Y722394D01*
X1265411Y722870D01*
Y723584D01*
X1265173Y724060D01*
X1264935Y724298D01*
X1264221Y724536D01*
X1262078D01*
Y719537D01*
X1266530Y724536D02*
Y719537D01*
Y724536D02*
X1268672D01*
X1269386Y724298D01*
X1269625Y724060D01*
X1269863Y723584D01*
Y723108D01*
X1269625Y722632D01*
X1269386Y722394D01*
X1268672Y722156D01*
X1266530D01*
X1268196D02*
X1269863Y719537D01*
X1272410Y724536D02*
X1271934Y724298D01*
X1271457Y723822D01*
X1271219Y723346D01*
X1270981Y722632D01*
Y721441D01*
X1271219Y720727D01*
X1271457Y720251D01*
X1271934Y719775D01*
X1272410Y719537D01*
X1273362D01*
X1273838Y719775D01*
X1274314Y720251D01*
X1274552Y720727D01*
X1274790Y721441D01*
Y722632D01*
X1274552Y723346D01*
X1274314Y723822D01*
X1273838Y724298D01*
X1273362Y724536D01*
X1272410D01*
X1277623D02*
Y719537D01*
X1275957Y724536D02*
X1279289D01*
X1282979D02*
X1279884D01*
Y719537D01*
X1282979D01*
X1279884Y722156D02*
X1281789D01*
X1287383Y723346D02*
X1287145Y723822D01*
X1286668Y724298D01*
X1286192Y724536D01*
X1285240D01*
X1284764Y724298D01*
X1284288Y723822D01*
X1284050Y723346D01*
X1283812Y722632D01*
Y721441D01*
X1284050Y720727D01*
X1284288Y720251D01*
X1284764Y719775D01*
X1285240Y719537D01*
X1286192D01*
X1286668Y719775D01*
X1287145Y720251D01*
X1287383Y720727D01*
X1290453Y724536D02*
Y719537D01*
X1288787Y724536D02*
X1292120D01*
X1299975Y723822D02*
X1299499Y724298D01*
X1298785Y724536D01*
X1297833D01*
X1297119Y724298D01*
X1296642Y723822D01*
Y723346D01*
X1296881Y722870D01*
X1297119Y722632D01*
X1297595Y722394D01*
X1299023Y721917D01*
X1299499Y721679D01*
X1299737Y721441D01*
X1299975Y720965D01*
Y720251D01*
X1299499Y719775D01*
X1298785Y719537D01*
X1297833D01*
X1297119Y719775D01*
X1296642Y720251D01*
X1304903Y719537D02*
X1302998Y724536D01*
X1301094Y719537D01*
X1301808Y721203D02*
X1304189D01*
X1306069Y724536D02*
Y719537D01*
Y724536D02*
X1307973Y719537D01*
X1309878Y724536D02*
X1307973Y719537D01*
X1309878Y724536D02*
Y719537D01*
X1314401Y724536D02*
X1311306D01*
Y719537D01*
X1314401D01*
X1311306Y722156D02*
X1313210D01*
X1319162Y724536D02*
Y719537D01*
X1320209Y724536D02*
Y719537D01*
Y724536D02*
X1323542Y719537D01*
Y724536D02*
Y719537D01*
X1328850Y724536D02*
X1330040Y719537D01*
X1331230Y724536D02*
X1330040Y719537D01*
X1331230Y724536D02*
X1332421Y719537D01*
X1333611Y724536D02*
X1332421Y719537D01*
X1334611Y724536D02*
Y719537D01*
X1337943Y724536D02*
Y719537D01*
X1334611Y722156D02*
X1337943D01*
X1340752Y724536D02*
X1340276Y724298D01*
X1339800Y723822D01*
X1339562Y723346D01*
X1339324Y722632D01*
Y721441D01*
X1339562Y720727D01*
X1339800Y720251D01*
X1340276Y719775D01*
X1340752Y719537D01*
X1341704D01*
X1342180Y719775D01*
X1342657Y720251D01*
X1342894Y720727D01*
X1343133Y721441D01*
Y722632D01*
X1342894Y723346D01*
X1342657Y723822D01*
X1342180Y724298D01*
X1341704Y724536D01*
X1340752D01*
X1344299D02*
Y719537D01*
X1347155D01*
X1350798Y724536D02*
X1347703D01*
Y719537D01*
X1350798D01*
X1347703Y722156D02*
X1349607D01*
X1356987Y724536D02*
X1356511Y724298D01*
X1356035Y723822D01*
X1355797Y723346D01*
X1355558Y722632D01*
Y721441D01*
X1355797Y720727D01*
X1356035Y720251D01*
X1356511Y719775D01*
X1356987Y719537D01*
X1357939D01*
X1358415Y719775D01*
X1358891Y720251D01*
X1359129Y720727D01*
X1359367Y721441D01*
Y722632D01*
X1359129Y723346D01*
X1358891Y723822D01*
X1358415Y724298D01*
X1357939Y724536D01*
X1356987D01*
X1360534D02*
Y719537D01*
Y724536D02*
X1362676D01*
X1363390Y724298D01*
X1363628Y724060D01*
X1363866Y723584D01*
Y723108D01*
X1363628Y722632D01*
X1363390Y722394D01*
X1362676Y722156D01*
X1360534D01*
X1362200D02*
X1363866Y719537D01*
X1368913Y724536D02*
Y719537D01*
X1369960Y724536D02*
Y719537D01*
Y724536D02*
X1373293Y719537D01*
Y724536D02*
Y719537D01*
X1378601Y721917D02*
X1380744D01*
X1381458Y722156D01*
X1381696Y722394D01*
X1381934Y722870D01*
Y723584D01*
X1381696Y724060D01*
X1381458Y724298D01*
X1380744Y724536D01*
X1378601D01*
Y719537D01*
X1386861D02*
X1384957Y724536D01*
X1383053Y719537D01*
X1383767Y721203D02*
X1386147D01*
X1388028Y724536D02*
Y719537D01*
Y724536D02*
X1390170D01*
X1390884Y724298D01*
X1391122Y724060D01*
X1391360Y723584D01*
Y723108D01*
X1391122Y722632D01*
X1390884Y722394D01*
X1390170Y722156D01*
X1388028D01*
X1389694D02*
X1391360Y719537D01*
X1394145Y724536D02*
Y719537D01*
X1392479Y724536D02*
X1395812D01*
X1400335D02*
Y719537D01*
Y724536D02*
X1403429D01*
X1400335Y722156D02*
X1402239D01*
X1404000Y724536D02*
Y719537D01*
Y724536D02*
X1406143D01*
X1406857Y724298D01*
X1407095Y724060D01*
X1407333Y723584D01*
Y723108D01*
X1407095Y722632D01*
X1406857Y722394D01*
X1406143Y722156D01*
X1404000D01*
X1405667D02*
X1407333Y719537D01*
X1409880Y724536D02*
X1409404Y724298D01*
X1408928Y723822D01*
X1408690Y723346D01*
X1408452Y722632D01*
Y721441D01*
X1408690Y720727D01*
X1408928Y720251D01*
X1409404Y719775D01*
X1409880Y719537D01*
X1410832D01*
X1411308Y719775D01*
X1411784Y720251D01*
X1412023Y720727D01*
X1412261Y721441D01*
Y722632D01*
X1412023Y723346D01*
X1411784Y723822D01*
X1411308Y724298D01*
X1410832Y724536D01*
X1409880D01*
X1413427D02*
Y719537D01*
Y724536D02*
X1415331Y719537D01*
X1417236Y724536D02*
X1415331Y719537D01*
X1417236Y724536D02*
Y719537D01*
X1422592Y724536D02*
Y719537D01*
Y724536D02*
X1424258D01*
X1424972Y724298D01*
X1425448Y723822D01*
X1425686Y723346D01*
X1425924Y722632D01*
Y721441D01*
X1425686Y720727D01*
X1425448Y720251D01*
X1424972Y719775D01*
X1424258Y719537D01*
X1422592D01*
X1427043Y724536D02*
Y719537D01*
X1431423Y723822D02*
X1430947Y724298D01*
X1430233Y724536D01*
X1429281D01*
X1428567Y724298D01*
X1428091Y723822D01*
Y723346D01*
X1428329Y722870D01*
X1428567Y722632D01*
X1429043Y722394D01*
X1430471Y721917D01*
X1430947Y721679D01*
X1431185Y721441D01*
X1431423Y720965D01*
Y720251D01*
X1430947Y719775D01*
X1430233Y719537D01*
X1429281D01*
X1428567Y719775D01*
X1428091Y720251D01*
X1436113Y723346D02*
X1435875Y723822D01*
X1435398Y724298D01*
X1434922Y724536D01*
X1433970D01*
X1433494Y724298D01*
X1433018Y723822D01*
X1432780Y723346D01*
X1432542Y722632D01*
Y721441D01*
X1432780Y720727D01*
X1433018Y720251D01*
X1433494Y719775D01*
X1433970Y719537D01*
X1434922D01*
X1435398Y719775D01*
X1435875Y720251D01*
X1436113Y720727D01*
X1437517Y724536D02*
Y719537D01*
X1440374D01*
X1442349Y724536D02*
X1441873Y724298D01*
X1441397Y723822D01*
X1441159Y723346D01*
X1440921Y722632D01*
Y721441D01*
X1441159Y720727D01*
X1441397Y720251D01*
X1441873Y719775D01*
X1442349Y719537D01*
X1443302D01*
X1443778Y719775D01*
X1444254Y720251D01*
X1444492Y720727D01*
X1444730Y721441D01*
Y722632D01*
X1444492Y723346D01*
X1444254Y723822D01*
X1443778Y724298D01*
X1443302Y724536D01*
X1442349D01*
X1449229Y723822D02*
X1448753Y724298D01*
X1448039Y724536D01*
X1447087D01*
X1446372Y724298D01*
X1445896Y723822D01*
Y723346D01*
X1446134Y722870D01*
X1446372Y722632D01*
X1446848Y722394D01*
X1448277Y721917D01*
X1448753Y721679D01*
X1448991Y721441D01*
X1449229Y720965D01*
Y720251D01*
X1448753Y719775D01*
X1448039Y719537D01*
X1447087D01*
X1446372Y719775D01*
X1445896Y720251D01*
X1450348Y724536D02*
Y720965D01*
X1450586Y720251D01*
X1451062Y719775D01*
X1451776Y719537D01*
X1452252D01*
X1452966Y719775D01*
X1453442Y720251D01*
X1453680Y720965D01*
Y724536D01*
X1455061D02*
Y719537D01*
Y724536D02*
X1457203D01*
X1457917Y724298D01*
X1458156Y724060D01*
X1458394Y723584D01*
Y723108D01*
X1458156Y722632D01*
X1457917Y722394D01*
X1457203Y722156D01*
X1455061D01*
X1456727D02*
X1458394Y719537D01*
X1462607Y724536D02*
X1459512D01*
Y719537D01*
X1462607D01*
X1459512Y722156D02*
X1461417D01*
X1471177Y719537D02*
X1469272Y724536D01*
X1467368Y719537D01*
X1468082Y721203D02*
X1470462D01*
X1472343Y724536D02*
Y719537D01*
Y724536D02*
X1475676Y719537D01*
Y724536D02*
Y719537D01*
X1477056Y724536D02*
Y719537D01*
Y724536D02*
X1478723D01*
X1479437Y724298D01*
X1479913Y723822D01*
X1480151Y723346D01*
X1480389Y722632D01*
Y721441D01*
X1480151Y720727D01*
X1479913Y720251D01*
X1479437Y719775D01*
X1478723Y719537D01*
X1477056D01*
X1485435Y724536D02*
Y719537D01*
Y724536D02*
X1487102D01*
X1487816Y724298D01*
X1488292Y723822D01*
X1488530Y723346D01*
X1488768Y722632D01*
Y721441D01*
X1488530Y720727D01*
X1488292Y720251D01*
X1487816Y719775D01*
X1487102Y719537D01*
X1485435D01*
X1489887Y724536D02*
Y719537D01*
X1494267Y723822D02*
X1493791Y724298D01*
X1493077Y724536D01*
X1492124D01*
X1491410Y724298D01*
X1490934Y723822D01*
Y723346D01*
X1491172Y722870D01*
X1491410Y722632D01*
X1491886Y722394D01*
X1493315Y721917D01*
X1493791Y721679D01*
X1494029Y721441D01*
X1494267Y720965D01*
Y720251D01*
X1493791Y719775D01*
X1493077Y719537D01*
X1492124D01*
X1491410Y719775D01*
X1490934Y720251D01*
X1498718Y723822D02*
X1498242Y724298D01*
X1497528Y724536D01*
X1496576D01*
X1495862Y724298D01*
X1495386Y723822D01*
Y723346D01*
X1495624Y722870D01*
X1495862Y722632D01*
X1496338Y722394D01*
X1497766Y721917D01*
X1498242Y721679D01*
X1498480Y721441D01*
X1498718Y720965D01*
Y720251D01*
X1498242Y719775D01*
X1497528Y719537D01*
X1496576D01*
X1495862Y719775D01*
X1495386Y720251D01*
X1502932Y724536D02*
X1499837D01*
Y719537D01*
X1502932D01*
X1499837Y722156D02*
X1501742D01*
X1503765Y724536D02*
Y719537D01*
Y724536D02*
X1505669Y719537D01*
X1507574Y724536D02*
X1505669Y719537D01*
X1507574Y724536D02*
Y719537D01*
X1509002Y724536D02*
Y719537D01*
X1510049Y724536D02*
Y719537D01*
Y724536D02*
X1513382Y719537D01*
Y724536D02*
Y719537D01*
X1518571D02*
X1516667Y724536D01*
X1514762Y719537D01*
X1515477Y721203D02*
X1517857D01*
X1521404Y724536D02*
Y719537D01*
X1519738Y724536D02*
X1523070D01*
X1523665D02*
Y719537D01*
X1526141Y724536D02*
X1525665Y724298D01*
X1525189Y723822D01*
X1524951Y723346D01*
X1524713Y722632D01*
Y721441D01*
X1524951Y720727D01*
X1525189Y720251D01*
X1525665Y719775D01*
X1526141Y719537D01*
X1527093D01*
X1527569Y719775D01*
X1528045Y720251D01*
X1528283Y720727D01*
X1528521Y721441D01*
Y722632D01*
X1528283Y723346D01*
X1528045Y723822D01*
X1527569Y724298D01*
X1527093Y724536D01*
X1526141D01*
X1529688D02*
Y719537D01*
Y724536D02*
X1533020Y719537D01*
Y724536D02*
Y719537D01*
X1539995Y724536D02*
Y719537D01*
X1538329Y724536D02*
X1541661D01*
X1543685D02*
X1543209Y724298D01*
X1542733Y723822D01*
X1542495Y723346D01*
X1542257Y722632D01*
Y721441D01*
X1542495Y720727D01*
X1542733Y720251D01*
X1543209Y719775D01*
X1543685Y719537D01*
X1544637D01*
X1545113Y719775D01*
X1545589Y720251D01*
X1545827Y720727D01*
X1546065Y721441D01*
Y722632D01*
X1545827Y723346D01*
X1545589Y723822D01*
X1545113Y724298D01*
X1544637Y724536D01*
X1543685D01*
X1552826D02*
Y719537D01*
X1551159Y724536D02*
X1554492D01*
X1555087D02*
Y719537D01*
X1558420Y724536D02*
Y719537D01*
X1555087Y722156D02*
X1558420D01*
X1559800Y724536D02*
Y719537D01*
X1560848Y724536D02*
Y719537D01*
Y724536D02*
X1562990D01*
X1563704Y724298D01*
X1563942Y724060D01*
X1564180Y723584D01*
Y723108D01*
X1563942Y722632D01*
X1563704Y722394D01*
X1562990Y722156D01*
X1560848D01*
X1562514D02*
X1564180Y719537D01*
X1565299Y724536D02*
Y719537D01*
Y724536D02*
X1566966D01*
X1567680Y724298D01*
X1568156Y723822D01*
X1568394Y723346D01*
X1568632Y722632D01*
Y721441D01*
X1568394Y720727D01*
X1568156Y720251D01*
X1567680Y719775D01*
X1566966Y719537D01*
X1565299D01*
X1573678Y721917D02*
X1575821D01*
X1576535Y722156D01*
X1576773Y722394D01*
X1577011Y722870D01*
Y723584D01*
X1576773Y724060D01*
X1576535Y724298D01*
X1575821Y724536D01*
X1573678D01*
Y719537D01*
X1581939D02*
X1580034Y724536D01*
X1578130Y719537D01*
X1578844Y721203D02*
X1581224D01*
X1583105Y724536D02*
Y719537D01*
Y724536D02*
X1585247D01*
X1585962Y724298D01*
X1586199Y724060D01*
X1586438Y723584D01*
Y723108D01*
X1586199Y722632D01*
X1585962Y722394D01*
X1585247Y722156D01*
X1583105D01*
X1584771D02*
X1586438Y719537D01*
X1589223Y724536D02*
Y719537D01*
X1587556Y724536D02*
X1590889D01*
X1591484D02*
Y719537D01*
X1595626Y724536D02*
X1592531D01*
Y719537D01*
X1595626D01*
X1592531Y722156D02*
X1594436D01*
X1599792Y723822D02*
X1599316Y724298D01*
X1598602Y724536D01*
X1597649D01*
X1596935Y724298D01*
X1596459Y723822D01*
Y723346D01*
X1596697Y722870D01*
X1596935Y722632D01*
X1597411Y722394D01*
X1598840Y721917D01*
X1599316Y721679D01*
X1599554Y721441D01*
X1599792Y720965D01*
Y720251D01*
X1599316Y719775D01*
X1598602Y719537D01*
X1597649D01*
X1596935Y719775D01*
X1596459Y720251D01*
X1220802Y736536D02*
Y731537D01*
X1219135Y736536D02*
X1222468D01*
X1223063D02*
Y731537D01*
X1226396Y736536D02*
Y731537D01*
X1223063Y734156D02*
X1226396D01*
X1230871Y736536D02*
X1227776D01*
Y731537D01*
X1230871D01*
X1227776Y734156D02*
X1229681D01*
X1235632Y736536D02*
Y731537D01*
X1238964Y736536D02*
Y731537D01*
X1235632Y734156D02*
X1238964D01*
X1241773Y736536D02*
X1241297Y736298D01*
X1240821Y735822D01*
X1240583Y735346D01*
X1240345Y734632D01*
Y733441D01*
X1240583Y732727D01*
X1240821Y732251D01*
X1241297Y731775D01*
X1241773Y731537D01*
X1242725D01*
X1243202Y731775D01*
X1243678Y732251D01*
X1243916Y732727D01*
X1244154Y733441D01*
Y734632D01*
X1243916Y735346D01*
X1243678Y735822D01*
X1243202Y736298D01*
X1242725Y736536D01*
X1241773D01*
X1245320D02*
Y731537D01*
X1248177D01*
X1248724Y736536D02*
Y731537D01*
Y736536D02*
X1250391D01*
X1251105Y736298D01*
X1251581Y735822D01*
X1251819Y735346D01*
X1252057Y734632D01*
Y733441D01*
X1251819Y732727D01*
X1251581Y732251D01*
X1251105Y731775D01*
X1250391Y731537D01*
X1248724D01*
X1256270Y736536D02*
X1253176D01*
Y731537D01*
X1256270D01*
X1253176Y734156D02*
X1255080D01*
X1257103Y736536D02*
Y731537D01*
Y736536D02*
X1259246D01*
X1259960Y736298D01*
X1260198Y736060D01*
X1260436Y735584D01*
Y735108D01*
X1260198Y734632D01*
X1259960Y734394D01*
X1259246Y734156D01*
X1257103D01*
X1258770D02*
X1260436Y731537D01*
X1266911Y736536D02*
X1266435Y736298D01*
X1265959Y735822D01*
X1265721Y735346D01*
X1265483Y734632D01*
Y733441D01*
X1265721Y732727D01*
X1265959Y732251D01*
X1266435Y731775D01*
X1266911Y731537D01*
X1267863D01*
X1268339Y731775D01*
X1268815Y732251D01*
X1269053Y732727D01*
X1269291Y733441D01*
Y734632D01*
X1269053Y735346D01*
X1268815Y735822D01*
X1268339Y736298D01*
X1267863Y736536D01*
X1266911D01*
X1270458D02*
Y731537D01*
Y736536D02*
X1273552D01*
X1270458Y734156D02*
X1272362D01*
X1279718Y736536D02*
Y731537D01*
X1278051Y736536D02*
X1281384D01*
X1281979D02*
Y731537D01*
X1285312Y736536D02*
Y731537D01*
X1281979Y734156D02*
X1285312D01*
X1286692Y736536D02*
Y731537D01*
X1291072Y735822D02*
X1290596Y736298D01*
X1289882Y736536D01*
X1288930D01*
X1288216Y736298D01*
X1287740Y735822D01*
Y735346D01*
X1287978Y734870D01*
X1288216Y734632D01*
X1288692Y734394D01*
X1290120Y733918D01*
X1290596Y733679D01*
X1290834Y733441D01*
X1291072Y732965D01*
Y732251D01*
X1290596Y731775D01*
X1289882Y731537D01*
X1288930D01*
X1288216Y731775D01*
X1287740Y732251D01*
X1296119Y736536D02*
Y731537D01*
Y736536D02*
X1297785D01*
X1298499Y736298D01*
X1298975Y735822D01*
X1299213Y735346D01*
X1299452Y734632D01*
Y733441D01*
X1299213Y732727D01*
X1298975Y732251D01*
X1298499Y731775D01*
X1297785Y731537D01*
X1296119D01*
X1301999Y736536D02*
X1301523Y736298D01*
X1301046Y735822D01*
X1300808Y735346D01*
X1300570Y734632D01*
Y733441D01*
X1300808Y732727D01*
X1301046Y732251D01*
X1301523Y731775D01*
X1301999Y731537D01*
X1302951D01*
X1303427Y731775D01*
X1303903Y732251D01*
X1304141Y732727D01*
X1304379Y733441D01*
Y734632D01*
X1304141Y735346D01*
X1303903Y735822D01*
X1303427Y736298D01*
X1302951Y736536D01*
X1301999D01*
X1309116Y735346D02*
X1308878Y735822D01*
X1308402Y736298D01*
X1307926Y736536D01*
X1306974D01*
X1306498Y736298D01*
X1306021Y735822D01*
X1305783Y735346D01*
X1305545Y734632D01*
Y733441D01*
X1305783Y732727D01*
X1306021Y732251D01*
X1306498Y731775D01*
X1306974Y731537D01*
X1307926D01*
X1308402Y731775D01*
X1308878Y732251D01*
X1309116Y732727D01*
X1310520Y736536D02*
Y732965D01*
X1310759Y732251D01*
X1311235Y731775D01*
X1311949Y731537D01*
X1312425D01*
X1313139Y731775D01*
X1313615Y732251D01*
X1313853Y732965D01*
Y736536D01*
X1315234D02*
Y731537D01*
Y736536D02*
X1317138Y731537D01*
X1319042Y736536D02*
X1317138Y731537D01*
X1319042Y736536D02*
Y731537D01*
X1323565Y736536D02*
X1320471D01*
Y731537D01*
X1323565D01*
X1320471Y734156D02*
X1322375D01*
X1324399Y736536D02*
Y731537D01*
Y736536D02*
X1327731Y731537D01*
Y736536D02*
Y731537D01*
X1330778Y736536D02*
Y731537D01*
X1329112Y736536D02*
X1332444D01*
X1340300Y735822D02*
X1339824Y736298D01*
X1339110Y736536D01*
X1338157D01*
X1337443Y736298D01*
X1336967Y735822D01*
Y735346D01*
X1337205Y734870D01*
X1337443Y734632D01*
X1337919Y734394D01*
X1339348Y733918D01*
X1339824Y733679D01*
X1340062Y733441D01*
X1340300Y732965D01*
Y732251D01*
X1339824Y731775D01*
X1339110Y731537D01*
X1338157D01*
X1337443Y731775D01*
X1336967Y732251D01*
X1341419Y736536D02*
Y731537D01*
X1344751Y736536D02*
Y731537D01*
X1341419Y734156D02*
X1344751D01*
X1349941Y731537D02*
X1348036Y736536D01*
X1346132Y731537D01*
X1346846Y733203D02*
X1349226D01*
X1351107Y736536D02*
Y731537D01*
X1353964D01*
X1354511Y736536D02*
Y731537D01*
X1357368D01*
X1361843Y736536D02*
Y731537D01*
X1365176Y736536D02*
X1361843Y733203D01*
X1363033Y734394D02*
X1365176Y731537D01*
X1369389Y736536D02*
X1366294D01*
Y731537D01*
X1369389D01*
X1366294Y734156D02*
X1368199D01*
X1373317Y736536D02*
X1370222D01*
Y731537D01*
X1373317D01*
X1370222Y734156D02*
X1372126D01*
X1374150Y733918D02*
X1376292D01*
X1377006Y734156D01*
X1377244Y734394D01*
X1377482Y734870D01*
Y735584D01*
X1377244Y736060D01*
X1377006Y736298D01*
X1376292Y736536D01*
X1374150D01*
Y731537D01*
X1384195Y736536D02*
Y731537D01*
X1382529Y736536D02*
X1385861D01*
X1386457D02*
Y731537D01*
X1389789Y736536D02*
Y731537D01*
X1386457Y734156D02*
X1389789D01*
X1394265Y736536D02*
X1391170D01*
Y731537D01*
X1394265D01*
X1391170Y734156D02*
X1393074D01*
X1399025Y736536D02*
Y731537D01*
X1400073Y736536D02*
Y731537D01*
Y736536D02*
X1403405Y731537D01*
Y736536D02*
Y731537D01*
X1404786Y736536D02*
Y731537D01*
Y736536D02*
X1407881D01*
X1404786Y734156D02*
X1406690D01*
X1409880Y736536D02*
X1409404Y736298D01*
X1408928Y735822D01*
X1408690Y735346D01*
X1408452Y734632D01*
Y733441D01*
X1408690Y732727D01*
X1408928Y732251D01*
X1409404Y731775D01*
X1409880Y731537D01*
X1410832D01*
X1411308Y731775D01*
X1411785Y732251D01*
X1412023Y732727D01*
X1412261Y733441D01*
Y734632D01*
X1412023Y735346D01*
X1411785Y735822D01*
X1411308Y736298D01*
X1410832Y736536D01*
X1409880D01*
X1413427D02*
Y731537D01*
Y736536D02*
X1415569D01*
X1416284Y736298D01*
X1416522Y736060D01*
X1416760Y735584D01*
Y735108D01*
X1416522Y734632D01*
X1416284Y734394D01*
X1415569Y734156D01*
X1413427D01*
X1415093D02*
X1416760Y731537D01*
X1417879Y736536D02*
Y731537D01*
Y736536D02*
X1419783Y731537D01*
X1421687Y736536D02*
X1419783Y731537D01*
X1421687Y736536D02*
Y731537D01*
X1426924D02*
X1425020Y736536D01*
X1423116Y731537D01*
X1423830Y733203D02*
X1426210D01*
X1429757Y736536D02*
Y731537D01*
X1428091Y736536D02*
X1431423D01*
X1432018D02*
Y731537D01*
X1434494Y736536D02*
X1434018Y736298D01*
X1433542Y735822D01*
X1433304Y735346D01*
X1433066Y734632D01*
Y733441D01*
X1433304Y732727D01*
X1433542Y732251D01*
X1434018Y731775D01*
X1434494Y731537D01*
X1435446D01*
X1435922Y731775D01*
X1436398Y732251D01*
X1436636Y732727D01*
X1436874Y733441D01*
Y734632D01*
X1436636Y735346D01*
X1436398Y735822D01*
X1435922Y736298D01*
X1435446Y736536D01*
X1434494D01*
X1438041D02*
Y731537D01*
Y736536D02*
X1441373Y731537D01*
Y736536D02*
Y731537D01*
X1450253Y735346D02*
X1450014Y735822D01*
X1449538Y736298D01*
X1449062Y736536D01*
X1448110D01*
X1447634Y736298D01*
X1447158Y735822D01*
X1446920Y735346D01*
X1446682Y734632D01*
Y733441D01*
X1446920Y732727D01*
X1447158Y732251D01*
X1447634Y731775D01*
X1448110Y731537D01*
X1449062D01*
X1449538Y731775D01*
X1450014Y732251D01*
X1450253Y732727D01*
X1453085Y736536D02*
X1452609Y736298D01*
X1452133Y735822D01*
X1451895Y735346D01*
X1451657Y734632D01*
Y733441D01*
X1451895Y732727D01*
X1452133Y732251D01*
X1452609Y731775D01*
X1453085Y731537D01*
X1454037D01*
X1454513Y731775D01*
X1454990Y732251D01*
X1455228Y732727D01*
X1455466Y733441D01*
Y734632D01*
X1455228Y735346D01*
X1454990Y735822D01*
X1454513Y736298D01*
X1454037Y736536D01*
X1453085D01*
X1456632D02*
Y731537D01*
Y736536D02*
X1459965Y731537D01*
Y736536D02*
Y731537D01*
X1463012Y736536D02*
Y731537D01*
X1461345Y736536D02*
X1464678D01*
X1469082Y731537D02*
X1467177Y736536D01*
X1465273Y731537D01*
X1465987Y733203D02*
X1468368D01*
X1470248Y736536D02*
Y731537D01*
X1471296Y736536D02*
Y731537D01*
Y736536D02*
X1474628Y731537D01*
Y736536D02*
Y731537D01*
X1479103Y736536D02*
X1476009D01*
Y731537D01*
X1479103D01*
X1476009Y734156D02*
X1477913D01*
X1479937Y736536D02*
Y731537D01*
Y736536D02*
X1481603D01*
X1482317Y736298D01*
X1482793Y735822D01*
X1483031Y735346D01*
X1483269Y734632D01*
Y733441D01*
X1483031Y732727D01*
X1482793Y732251D01*
X1482317Y731775D01*
X1481603Y731537D01*
X1479937D01*
X1488316Y736536D02*
Y731537D01*
X1491648Y736536D02*
Y731537D01*
X1488316Y734156D02*
X1491648D01*
X1496124Y736536D02*
X1493029D01*
Y731537D01*
X1496124D01*
X1493029Y734156D02*
X1494933D01*
X1496957Y736536D02*
Y731537D01*
Y736536D02*
X1499099D01*
X1499813Y736298D01*
X1500051Y736060D01*
X1500289Y735584D01*
Y735108D01*
X1500051Y734632D01*
X1499813Y734394D01*
X1499099Y734156D01*
X1496957D01*
X1498623D02*
X1500289Y731537D01*
X1504503Y736536D02*
X1501408D01*
Y731537D01*
X1504503D01*
X1501408Y734156D02*
X1503313D01*
X1505336Y736536D02*
Y731537D01*
X1506383Y736536D02*
Y731537D01*
Y736536D02*
X1509716Y731537D01*
Y736536D02*
Y731537D01*
X1518595Y735346D02*
X1518357Y735822D01*
X1517881Y736298D01*
X1517405Y736536D01*
X1516453D01*
X1515977Y736298D01*
X1515500Y735822D01*
X1515262Y735346D01*
X1515024Y734632D01*
Y733441D01*
X1515262Y732727D01*
X1515500Y732251D01*
X1515977Y731775D01*
X1516453Y731537D01*
X1517405D01*
X1517881Y731775D01*
X1518357Y732251D01*
X1518595Y732727D01*
X1521428Y736536D02*
X1520952Y736298D01*
X1520475Y735822D01*
X1520238Y735346D01*
X1520000Y734632D01*
Y733441D01*
X1520238Y732727D01*
X1520475Y732251D01*
X1520952Y731775D01*
X1521428Y731537D01*
X1522380D01*
X1522856Y731775D01*
X1523332Y732251D01*
X1523570Y732727D01*
X1523808Y733441D01*
Y734632D01*
X1523570Y735346D01*
X1523332Y735822D01*
X1522856Y736298D01*
X1522380Y736536D01*
X1521428D01*
X1524975D02*
Y731537D01*
Y736536D02*
X1528307Y731537D01*
Y736536D02*
Y731537D01*
X1529688Y736536D02*
Y731537D01*
Y736536D02*
X1532782D01*
X1529688Y734156D02*
X1531592D01*
X1533354Y736536D02*
Y731537D01*
X1534401Y736536D02*
Y731537D01*
Y736536D02*
X1536067D01*
X1536782Y736298D01*
X1537258Y735822D01*
X1537496Y735346D01*
X1537734Y734632D01*
Y733441D01*
X1537496Y732727D01*
X1537258Y732251D01*
X1536782Y731775D01*
X1536067Y731537D01*
X1534401D01*
X1541947Y736536D02*
X1538853D01*
Y731537D01*
X1541947D01*
X1538853Y734156D02*
X1540757D01*
X1542780Y736536D02*
Y731537D01*
Y736536D02*
X1546113Y731537D01*
Y736536D02*
Y731537D01*
X1549160Y736536D02*
Y731537D01*
X1547494Y736536D02*
X1550826D01*
X1551421D02*
Y731537D01*
X1556277D02*
X1554373Y736536D01*
X1552469Y731537D01*
X1553183Y733203D02*
X1555563D01*
X1557444Y736536D02*
Y731537D01*
X1560300D01*
X1222230Y748536D02*
X1219135D01*
Y743537D01*
X1222230D01*
X1219135Y746156D02*
X1221040D01*
X1223063Y748536D02*
X1226396Y743537D01*
Y748536D02*
X1223063Y743537D01*
X1231085Y747346D02*
X1230847Y747822D01*
X1230371Y748298D01*
X1229895Y748536D01*
X1228943D01*
X1228467Y748298D01*
X1227991Y747822D01*
X1227752Y747346D01*
X1227514Y746632D01*
Y745441D01*
X1227752Y744727D01*
X1227991Y744251D01*
X1228467Y743775D01*
X1228943Y743537D01*
X1229895D01*
X1230371Y743775D01*
X1230847Y744251D01*
X1231085Y744727D01*
X1235584Y748536D02*
X1232490D01*
Y743537D01*
X1235584D01*
X1232490Y746156D02*
X1234394D01*
X1236417Y745918D02*
X1238560D01*
X1239274Y746156D01*
X1239512Y746393D01*
X1239750Y746870D01*
Y747584D01*
X1239512Y748060D01*
X1239274Y748298D01*
X1238560Y748536D01*
X1236417D01*
Y743537D01*
X1242535Y748536D02*
Y743537D01*
X1240869Y748536D02*
X1244201D01*
X1252533Y743537D02*
X1250629Y748536D01*
X1248724Y743537D01*
X1249438Y745203D02*
X1251819D01*
X1257032Y747822D02*
X1256556Y748298D01*
X1255842Y748536D01*
X1254890D01*
X1254175Y748298D01*
X1253699Y747822D01*
Y747346D01*
X1253937Y746870D01*
X1254175Y746632D01*
X1254652Y746393D01*
X1256080Y745918D01*
X1256556Y745679D01*
X1256794Y745441D01*
X1257032Y744965D01*
Y744251D01*
X1256556Y743775D01*
X1255842Y743537D01*
X1254890D01*
X1254175Y743775D01*
X1253699Y744251D01*
X1265411Y747822D02*
X1264935Y748298D01*
X1264221Y748536D01*
X1263269D01*
X1262555Y748298D01*
X1262078Y747822D01*
Y747346D01*
X1262317Y746870D01*
X1262555Y746632D01*
X1263031Y746393D01*
X1264459Y745918D01*
X1264935Y745679D01*
X1265173Y745441D01*
X1265411Y744965D01*
Y744251D01*
X1264935Y743775D01*
X1264221Y743537D01*
X1263269D01*
X1262555Y743775D01*
X1262078Y744251D01*
X1266530Y745918D02*
X1268672D01*
X1269386Y746156D01*
X1269625Y746393D01*
X1269863Y746870D01*
Y747584D01*
X1269625Y748060D01*
X1269386Y748298D01*
X1268672Y748536D01*
X1266530D01*
Y743537D01*
X1274076Y748536D02*
X1270981D01*
Y743537D01*
X1274076D01*
X1270981Y746156D02*
X1272886D01*
X1278480Y747346D02*
X1278242Y747822D01*
X1277766Y748298D01*
X1277290Y748536D01*
X1276337D01*
X1275861Y748298D01*
X1275385Y747822D01*
X1275147Y747346D01*
X1274909Y746632D01*
Y745441D01*
X1275147Y744727D01*
X1275385Y744251D01*
X1275861Y743775D01*
X1276337Y743537D01*
X1277290D01*
X1277766Y743775D01*
X1278242Y744251D01*
X1278480Y744727D01*
X1279884Y748536D02*
Y743537D01*
X1280932Y748536D02*
Y743537D01*
Y748536D02*
X1284026D01*
X1280932Y746156D02*
X1282836D01*
X1284597Y748536D02*
Y743537D01*
X1289216Y747346D02*
X1288978Y747822D01*
X1288501Y748298D01*
X1288025Y748536D01*
X1287073D01*
X1286597Y748298D01*
X1286121Y747822D01*
X1285883Y747346D01*
X1285645Y746632D01*
Y745441D01*
X1285883Y744727D01*
X1286121Y744251D01*
X1286597Y743775D01*
X1287073Y743537D01*
X1288025D01*
X1288501Y743775D01*
X1288978Y744251D01*
X1289216Y744727D01*
X1294429Y743537D02*
X1292524Y748536D01*
X1290620Y743537D01*
X1291334Y745203D02*
X1293715D01*
X1295595Y748536D02*
Y743537D01*
X1298452D01*
X1298999Y748536D02*
Y743537D01*
X1301856D01*
X1302403Y748536D02*
X1304308Y746156D01*
Y743537D01*
X1306212Y748536D02*
X1304308Y746156D01*
X1314591Y743537D02*
X1312687Y748536D01*
X1310782Y743537D01*
X1311497Y745203D02*
X1313877D01*
X1315757Y748536D02*
Y744965D01*
X1315996Y744251D01*
X1316472Y743775D01*
X1317186Y743537D01*
X1317662D01*
X1318376Y743775D01*
X1318852Y744251D01*
X1319090Y744965D01*
Y748536D01*
X1322137D02*
Y743537D01*
X1320471Y748536D02*
X1323803D01*
X1324399D02*
Y743537D01*
X1327731Y748536D02*
Y743537D01*
X1324399Y746156D02*
X1327731D01*
X1330540Y748536D02*
X1330064Y748298D01*
X1329588Y747822D01*
X1329350Y747346D01*
X1329112Y746632D01*
Y745441D01*
X1329350Y744727D01*
X1329588Y744251D01*
X1330064Y743775D01*
X1330540Y743537D01*
X1331492D01*
X1331968Y743775D01*
X1332444Y744251D01*
X1332682Y744727D01*
X1332920Y745441D01*
Y746632D01*
X1332682Y747346D01*
X1332444Y747822D01*
X1331968Y748298D01*
X1331492Y748536D01*
X1330540D01*
X1334087D02*
Y743537D01*
Y748536D02*
X1336229D01*
X1336943Y748298D01*
X1337181Y748060D01*
X1337420Y747584D01*
Y747108D01*
X1337181Y746632D01*
X1336943Y746393D01*
X1336229Y746156D01*
X1334087D01*
X1335753D02*
X1337420Y743537D01*
X1338538Y748536D02*
Y743537D01*
X1342918Y748536D02*
X1339586Y743537D01*
Y748536D02*
X1342918D01*
X1339586Y743537D02*
X1342918D01*
X1347132Y748536D02*
X1344037D01*
Y743537D01*
X1347132D01*
X1344037Y746156D02*
X1345942D01*
X1347965Y748536D02*
Y743537D01*
Y748536D02*
X1349631D01*
X1350345Y748298D01*
X1350821Y747822D01*
X1351059Y747346D01*
X1351297Y746632D01*
Y745441D01*
X1351059Y744727D01*
X1350821Y744251D01*
X1350345Y743775D01*
X1349631Y743537D01*
X1347965D01*
X1356344Y748536D02*
Y743537D01*
X1357391Y748536D02*
Y743537D01*
Y748536D02*
X1360724Y743537D01*
Y748536D02*
Y743537D01*
X1366032Y748536D02*
X1367223Y743537D01*
X1368413Y748536D02*
X1367223Y743537D01*
X1368413Y748536D02*
X1369603Y743537D01*
X1370793Y748536D02*
X1369603Y743537D01*
X1371793Y748536D02*
Y743537D01*
Y748536D02*
X1373936D01*
X1374650Y748298D01*
X1374888Y748060D01*
X1375126Y747584D01*
Y747108D01*
X1374888Y746632D01*
X1374650Y746393D01*
X1373936Y746156D01*
X1371793D01*
X1373459D02*
X1375126Y743537D01*
X1376245Y748536D02*
Y743537D01*
X1378958Y748536D02*
Y743537D01*
X1377292Y748536D02*
X1380624D01*
X1381220D02*
Y743537D01*
X1382267Y748536D02*
Y743537D01*
Y748536D02*
X1385600Y743537D01*
Y748536D02*
Y743537D01*
X1390551Y747346D02*
X1390313Y747822D01*
X1389837Y748298D01*
X1389361Y748536D01*
X1388409D01*
X1387932Y748298D01*
X1387456Y747822D01*
X1387218Y747346D01*
X1386980Y746632D01*
Y745441D01*
X1387218Y744727D01*
X1387456Y744251D01*
X1387932Y743775D01*
X1388409Y743537D01*
X1389361D01*
X1389837Y743775D01*
X1390313Y744251D01*
X1390551Y744727D01*
Y745441D01*
X1389361D02*
X1390551D01*
X1395621Y748536D02*
Y743537D01*
Y748536D02*
X1397764D01*
X1398478Y748298D01*
X1398716Y748060D01*
X1398954Y747584D01*
Y747108D01*
X1398716Y746632D01*
X1398478Y746393D01*
X1397764Y746156D01*
X1395621D02*
X1397764D01*
X1398478Y745918D01*
X1398716Y745679D01*
X1398954Y745203D01*
Y744489D01*
X1398716Y744013D01*
X1398478Y743775D01*
X1397764Y743537D01*
X1395621D01*
X1400073Y748536D02*
X1401977Y746156D01*
Y743537D01*
X1403881Y748536D02*
X1401977Y746156D01*
X1408452Y748536D02*
Y743537D01*
X1411784Y748536D02*
X1408452Y745203D01*
X1409642Y746393D02*
X1411784Y743537D01*
X1412903Y748536D02*
Y743537D01*
X1413951Y748536D02*
Y743537D01*
Y748536D02*
X1417283Y743537D01*
Y748536D02*
Y743537D01*
X1420092Y748536D02*
X1419616Y748298D01*
X1419140Y747822D01*
X1418902Y747346D01*
X1418664Y746632D01*
Y745441D01*
X1418902Y744727D01*
X1419140Y744251D01*
X1419616Y743775D01*
X1420092Y743537D01*
X1421045D01*
X1421521Y743775D01*
X1421997Y744251D01*
X1422235Y744727D01*
X1422473Y745441D01*
Y746632D01*
X1422235Y747346D01*
X1421997Y747822D01*
X1421521Y748298D01*
X1421045Y748536D01*
X1420092D01*
X1423639D02*
X1425543Y743537D01*
X1427448Y748536D02*
X1425543Y743537D01*
X1431899D02*
X1429995Y748536D01*
X1428091Y743537D01*
X1428805Y745203D02*
X1431185D01*
X1220802Y760036D02*
Y755037D01*
X1219135Y760036D02*
X1222468D01*
X1223063D02*
Y755037D01*
X1226396Y760036D02*
Y755037D01*
X1223063Y757655D02*
X1226396D01*
X1230871Y760036D02*
X1227776D01*
Y755037D01*
X1230871D01*
X1227776Y757655D02*
X1229681D01*
X1235632Y760036D02*
Y755037D01*
X1236679Y760036D02*
Y755037D01*
Y760036D02*
X1240012Y755037D01*
Y760036D02*
Y755037D01*
X1241393Y760036D02*
Y755037D01*
Y760036D02*
X1244487D01*
X1241393Y757655D02*
X1243297D01*
X1246487Y760036D02*
X1246010Y759798D01*
X1245535Y759322D01*
X1245296Y758846D01*
X1245058Y758132D01*
Y756941D01*
X1245296Y756227D01*
X1245535Y755751D01*
X1246010Y755275D01*
X1246487Y755037D01*
X1247439D01*
X1247915Y755275D01*
X1248391Y755751D01*
X1248629Y756227D01*
X1248867Y756941D01*
Y758132D01*
X1248629Y758846D01*
X1248391Y759322D01*
X1247915Y759798D01*
X1247439Y760036D01*
X1246487D01*
X1250033D02*
Y755037D01*
Y760036D02*
X1252176D01*
X1252890Y759798D01*
X1253128Y759560D01*
X1253366Y759084D01*
Y758608D01*
X1253128Y758132D01*
X1252890Y757894D01*
X1252176Y757655D01*
X1250033D01*
X1251700D02*
X1253366Y755037D01*
X1254485Y760036D02*
Y755037D01*
Y760036D02*
X1256389Y755037D01*
X1258294Y760036D02*
X1256389Y755037D01*
X1258294Y760036D02*
Y755037D01*
X1263531D02*
X1261626Y760036D01*
X1259722Y755037D01*
X1260436Y756703D02*
X1262817D01*
X1266363Y760036D02*
Y755037D01*
X1264697Y760036D02*
X1268030D01*
X1268625D02*
Y755037D01*
X1271100Y760036D02*
X1270624Y759798D01*
X1270148Y759322D01*
X1269910Y758846D01*
X1269672Y758132D01*
Y756941D01*
X1269910Y756227D01*
X1270148Y755751D01*
X1270624Y755275D01*
X1271100Y755037D01*
X1272053D01*
X1272529Y755275D01*
X1273005Y755751D01*
X1273243Y756227D01*
X1273481Y756941D01*
Y758132D01*
X1273243Y758846D01*
X1273005Y759322D01*
X1272529Y759798D01*
X1272053Y760036D01*
X1271100D01*
X1274647D02*
Y755037D01*
Y760036D02*
X1277980Y755037D01*
Y760036D02*
Y755037D01*
X1286859Y758846D02*
X1286621Y759322D01*
X1286145Y759798D01*
X1285669Y760036D01*
X1284717D01*
X1284240Y759798D01*
X1283764Y759322D01*
X1283526Y758846D01*
X1283288Y758132D01*
Y756941D01*
X1283526Y756227D01*
X1283764Y755751D01*
X1284240Y755275D01*
X1284717Y755037D01*
X1285669D01*
X1286145Y755275D01*
X1286621Y755751D01*
X1286859Y756227D01*
X1289692Y760036D02*
X1289216Y759798D01*
X1288739Y759322D01*
X1288501Y758846D01*
X1288263Y758132D01*
Y756941D01*
X1288501Y756227D01*
X1288739Y755751D01*
X1289216Y755275D01*
X1289692Y755037D01*
X1290644D01*
X1291120Y755275D01*
X1291596Y755751D01*
X1291834Y756227D01*
X1292072Y756941D01*
Y758132D01*
X1291834Y758846D01*
X1291596Y759322D01*
X1291120Y759798D01*
X1290644Y760036D01*
X1289692D01*
X1293239D02*
Y755037D01*
Y760036D02*
X1296571Y755037D01*
Y760036D02*
Y755037D01*
X1299618Y760036D02*
Y755037D01*
X1297952Y760036D02*
X1301284D01*
X1305688Y755037D02*
X1303784Y760036D01*
X1301880Y755037D01*
X1302594Y756703D02*
X1304974D01*
X1306855Y760036D02*
Y755037D01*
X1307902Y760036D02*
Y755037D01*
Y760036D02*
X1311235Y755037D01*
Y760036D02*
Y755037D01*
X1315710Y760036D02*
X1312615D01*
Y755037D01*
X1315710D01*
X1312615Y757655D02*
X1314520D01*
X1316543Y760036D02*
Y755037D01*
Y760036D02*
X1318209D01*
X1318923Y759798D01*
X1319400Y759322D01*
X1319638Y758846D01*
X1319876Y758132D01*
Y756941D01*
X1319638Y756227D01*
X1319400Y755751D01*
X1318923Y755275D01*
X1318209Y755037D01*
X1316543D01*
X1324922Y760036D02*
Y755037D01*
X1325970Y760036D02*
Y755037D01*
Y760036D02*
X1329302Y755037D01*
Y760036D02*
Y755037D01*
X1336277Y760036D02*
Y755037D01*
X1334611Y760036D02*
X1337943D01*
X1338538D02*
Y755037D01*
X1341871Y760036D02*
Y755037D01*
X1338538Y757655D02*
X1341871D01*
X1343252Y760036D02*
Y755037D01*
X1347632Y759322D02*
X1347155Y759798D01*
X1346441Y760036D01*
X1345489D01*
X1344775Y759798D01*
X1344299Y759322D01*
Y758846D01*
X1344537Y758370D01*
X1344775Y758132D01*
X1345251Y757894D01*
X1346679Y757417D01*
X1347155Y757179D01*
X1347394Y756941D01*
X1347632Y756465D01*
Y755751D01*
X1347155Y755275D01*
X1346441Y755037D01*
X1345489D01*
X1344775Y755275D01*
X1344299Y755751D01*
X1352678Y760036D02*
Y755037D01*
Y760036D02*
X1354344D01*
X1355059Y759798D01*
X1355535Y759322D01*
X1355773Y758846D01*
X1356011Y758132D01*
Y756941D01*
X1355773Y756227D01*
X1355535Y755751D01*
X1355059Y755275D01*
X1354344Y755037D01*
X1352678D01*
X1358558Y760036D02*
X1358082Y759798D01*
X1357606Y759322D01*
X1357368Y758846D01*
X1357130Y758132D01*
Y756941D01*
X1357368Y756227D01*
X1357606Y755751D01*
X1358082Y755275D01*
X1358558Y755037D01*
X1359510D01*
X1359986Y755275D01*
X1360462Y755751D01*
X1360700Y756227D01*
X1360938Y756941D01*
Y758132D01*
X1360700Y758846D01*
X1360462Y759322D01*
X1359986Y759798D01*
X1359510Y760036D01*
X1358558D01*
X1365675Y758846D02*
X1365437Y759322D01*
X1364961Y759798D01*
X1364485Y760036D01*
X1363533D01*
X1363057Y759798D01*
X1362581Y759322D01*
X1362343Y758846D01*
X1362105Y758132D01*
Y756941D01*
X1362343Y756227D01*
X1362581Y755751D01*
X1363057Y755275D01*
X1363533Y755037D01*
X1364485D01*
X1364961Y755275D01*
X1365437Y755751D01*
X1365675Y756227D01*
X1367080Y760036D02*
Y756465D01*
X1367318Y755751D01*
X1367794Y755275D01*
X1368508Y755037D01*
X1368984D01*
X1369698Y755275D01*
X1370174Y755751D01*
X1370412Y756465D01*
Y760036D01*
X1371793D02*
Y755037D01*
Y760036D02*
X1373697Y755037D01*
X1375602Y760036D02*
X1373697Y755037D01*
X1375602Y760036D02*
Y755037D01*
X1380125Y760036D02*
X1377030D01*
Y755037D01*
X1380125D01*
X1377030Y757655D02*
X1378934D01*
X1380958Y760036D02*
Y755037D01*
Y760036D02*
X1384290Y755037D01*
Y760036D02*
Y755037D01*
X1387337Y760036D02*
Y755037D01*
X1385671Y760036D02*
X1389004D01*
X1393526D02*
Y755037D01*
X1397907Y759322D02*
X1397431Y759798D01*
X1396716Y760036D01*
X1395764D01*
X1395050Y759798D01*
X1394574Y759322D01*
Y758846D01*
X1394812Y758370D01*
X1395050Y758132D01*
X1395526Y757894D01*
X1396954Y757417D01*
X1397431Y757179D01*
X1397668Y756941D01*
X1397907Y756465D01*
Y755751D01*
X1397431Y755275D01*
X1396716Y755037D01*
X1395764D01*
X1395050Y755275D01*
X1394574Y755751D01*
X1404619Y760036D02*
Y755037D01*
X1402953Y760036D02*
X1406286D01*
X1406881D02*
Y755037D01*
X1410213Y760036D02*
Y755037D01*
X1406881Y757655D02*
X1410213D01*
X1414689Y760036D02*
X1411594D01*
Y755037D01*
X1414689D01*
X1411594Y757655D02*
X1413498D01*
X1419450Y757417D02*
X1421592D01*
X1422306Y757655D01*
X1422544Y757894D01*
X1422782Y758370D01*
Y759084D01*
X1422544Y759560D01*
X1422306Y759798D01*
X1421592Y760036D01*
X1419450D01*
Y755037D01*
X1423901Y760036D02*
Y755037D01*
Y760036D02*
X1426043D01*
X1426758Y759798D01*
X1426996Y759560D01*
X1427234Y759084D01*
Y758608D01*
X1426996Y758132D01*
X1426758Y757894D01*
X1426043Y757655D01*
X1423901D01*
X1425567D02*
X1427234Y755037D01*
X1429781Y760036D02*
X1429305Y759798D01*
X1428829Y759322D01*
X1428590Y758846D01*
X1428352Y758132D01*
Y756941D01*
X1428590Y756227D01*
X1428829Y755751D01*
X1429305Y755275D01*
X1429781Y755037D01*
X1430733D01*
X1431209Y755275D01*
X1431685Y755751D01*
X1431923Y756227D01*
X1432161Y756941D01*
Y758132D01*
X1431923Y758846D01*
X1431685Y759322D01*
X1431209Y759798D01*
X1430733Y760036D01*
X1429781D01*
X1433327Y757417D02*
X1435470D01*
X1436184Y757655D01*
X1436422Y757894D01*
X1436660Y758370D01*
Y759084D01*
X1436422Y759560D01*
X1436184Y759798D01*
X1435470Y760036D01*
X1433327D01*
Y755037D01*
X1440874Y760036D02*
X1437779D01*
Y755037D01*
X1440874D01*
X1437779Y757655D02*
X1439683D01*
X1441707Y760036D02*
Y755037D01*
Y760036D02*
X1443849D01*
X1444563Y759798D01*
X1444801Y759560D01*
X1445039Y759084D01*
Y758608D01*
X1444801Y758132D01*
X1444563Y757894D01*
X1443849Y757655D01*
X1441707D01*
X1443373D02*
X1445039Y755037D01*
X1447824Y760036D02*
Y755037D01*
X1446158Y760036D02*
X1449491D01*
X1450086D02*
X1451990Y757655D01*
Y755037D01*
X1453895Y760036D02*
X1451990Y757655D01*
X1459893Y760036D02*
X1459417Y759798D01*
X1458941Y759322D01*
X1458703Y758846D01*
X1458465Y758132D01*
Y756941D01*
X1458703Y756227D01*
X1458941Y755751D01*
X1459417Y755275D01*
X1459893Y755037D01*
X1460845D01*
X1461322Y755275D01*
X1461798Y755751D01*
X1462036Y756227D01*
X1462274Y756941D01*
Y758132D01*
X1462036Y758846D01*
X1461798Y759322D01*
X1461322Y759798D01*
X1460845Y760036D01*
X1459893D01*
X1463440D02*
Y755037D01*
Y760036D02*
X1466535D01*
X1463440Y757655D02*
X1465345D01*
X1471034Y760036D02*
Y755037D01*
X1474366Y760036D02*
X1471034Y756703D01*
X1472224Y757894D02*
X1474366Y755037D01*
X1475485Y760036D02*
Y755037D01*
X1476533Y760036D02*
Y755037D01*
Y760036D02*
X1479865Y755037D01*
Y760036D02*
Y755037D01*
X1482674Y760036D02*
X1482198Y759798D01*
X1481722Y759322D01*
X1481484Y758846D01*
X1481246Y758132D01*
Y756941D01*
X1481484Y756227D01*
X1481722Y755751D01*
X1482198Y755275D01*
X1482674Y755037D01*
X1483626D01*
X1484102Y755275D01*
X1484579Y755751D01*
X1484816Y756227D01*
X1485055Y756941D01*
Y758132D01*
X1484816Y758846D01*
X1484579Y759322D01*
X1484102Y759798D01*
X1483626Y760036D01*
X1482674D01*
X1486221D02*
X1488125Y755037D01*
X1490030Y760036D02*
X1488125Y755037D01*
X1494481D02*
X1492577Y760036D01*
X1490672Y755037D01*
X1491387Y756703D02*
X1493767D01*
D29*
X1302715Y-655414D02*
X1302717D01*
M02*
